<svg width="100" height="100" viewBox="0 0 100 100" fill="none" xmlns="http://www.w3.org/2000/svg">
<g clip-path="url(#clip0)">
<path d="M32.5761 66.7794C29.4564 60.1157 28.2584 53.1275 29.0321 45.8148C33.225 44.1176 40.1633 45.2408 43.907 51.006C47.7006 56.8462 46.1782 65.6314 39.0153 69.4499C41.9104 73.6928 45.5542 77.0871 49.9468 79.7326C54.3644 77.112 57.9833 73.6928 60.9283 69.425C60.7287 69.3002 60.5539 69.2004 60.3543 69.0756C57.0598 67.0789 54.9634 64.2088 54.2146 60.4152C52.8669 53.6765 57.1098 47.0627 63.7985 45.4404C65.9948 44.8913 68.1911 44.9413 70.3624 45.5652C70.8865 45.715 70.9364 45.715 70.9364 46.2391C70.9864 48.086 71.1111 49.9578 71.0612 51.8047C70.9614 55.2489 70.3375 58.6182 69.2393 61.8877C68.7651 63.3103 68.1661 64.683 67.642 66.0806C67.5671 66.3052 67.4673 66.5049 67.3675 66.7295C72.384 67.6779 80.7699 66.6546 87.4835 60.6148C94.7213 54.0759 96.8927 44.5918 95.2205 37.0046C93.4984 38.577 91.7513 40.0245 89.8296 41.2974C87.8829 42.5703 85.8613 43.6684 83.7149 44.5918C81.5935 45.4903 79.4221 46.2141 77.151 46.7133C76.9762 46.1143 77.126 45.5402 77.2757 45.0161C77.7499 43.2691 78.8481 42.0212 80.5203 41.3473C82.0427 40.7234 83.5651 40.0495 85.0127 39.2758C88.8562 37.1793 92.1507 34.4589 94.921 31.0896C95.4701 30.4157 95.9942 29.692 96.5433 29.0181C96.5932 28.9432 96.668 28.8684 96.7429 28.7935C100.512 35.5571 101.735 46.4138 96.4434 56.0226C93.3736 61.6131 88.981 65.7811 83.2157 68.5015C77.4505 71.2219 71.4356 71.9208 65.1462 70.7727C62.326 75.1903 58.7819 78.909 54.3893 81.9539C57.6838 83.3016 61.0281 84.1252 64.4723 84.4247C67.9415 84.7242 71.3607 84.5245 74.78 83.8007C71.6602 90.0901 63.5489 97.303 52.6423 98.3013C40.1384 99.4494 29.681 92.4112 25.0888 83.8007C27.4098 84.225 29.681 84.5245 31.9771 84.5495C34.2733 84.5495 36.5694 84.3997 38.8156 83.9505C41.0868 83.5262 43.308 82.8773 45.5293 81.9539C44.9303 81.5046 44.4062 81.1302 43.8821 80.7309C40.4379 78.0604 37.4928 74.8908 35.1218 71.222C34.8972 70.8725 34.6726 70.7727 34.2483 70.8476C31.4031 71.3717 28.5329 71.4466 25.6628 71.0972C19.3734 70.2985 13.8827 67.7528 9.24049 63.4351C6.6199 60.9892 4.49848 58.144 2.92613 54.9244C1.20404 51.4054 0.230679 47.6866 0.00605738 43.7682C-0.243522 39.4006 0.4553 35.1827 2.07756 31.1146C2.3521 30.4407 2.6516 29.7918 2.95109 29.1429C3.00101 29.0181 3.10084 28.9183 3.20067 28.7685C3.40033 29.0431 3.57504 29.2427 3.72479 29.4673C7.69309 34.8583 12.8095 38.7517 19.0489 41.1976C20.5963 41.7966 21.7694 42.7699 22.4183 44.3173C22.7178 45.066 22.9424 45.8647 22.7926 46.7632C15.8793 45.1659 9.91435 41.8964 4.74806 37.0546C3.25059 43.294 4.47352 52.3787 11.0624 59.2921C17.6763 66.2304 26.5114 67.8027 32.5761 66.7794ZM34.7225 88.7674C39.0153 92.3863 45.8537 94.932 53.1664 93.9836C57.2096 93.4594 63.8734 90.6143 65.1212 88.7424C64.9216 88.7174 64.7718 88.6925 64.5971 88.6925C62.6754 88.5427 60.7536 88.2682 58.8568 87.819C55.9367 87.1451 53.1165 86.1468 50.421 84.824C50.0966 84.6743 49.847 84.6493 49.5226 84.7991C47.5509 85.7974 45.4794 86.596 43.358 87.22C41.3364 87.819 39.2649 88.2682 37.1684 88.4928C36.3697 88.5677 35.596 88.6675 34.7225 88.7674ZM66.8683 49.3588C63.1246 49.3089 58.9816 51.9544 58.2828 56.7963C57.9583 59.0175 58.4575 61.089 59.7553 62.9359C60.6039 64.1589 61.702 65.1322 63.1246 65.7562C65.7202 60.5649 66.9681 55.149 66.8683 49.3588ZM36.794 65.7562C40.2632 64.1838 42.5343 59.9909 41.4362 55.798C40.3131 51.5801 36.3947 49.234 33.0753 49.3588C32.9255 55.1241 34.1984 60.5649 36.794 65.7562Z" fill="white"/>
<path d="M49.9476 18.4361C50.0474 18.2863 50.1472 18.1615 50.2221 18.0367C52.5182 14.4178 55.7877 12.1217 59.9307 11.0735C65.097 9.77566 70.2383 8.42793 75.3797 7.0802C78.2249 6.33146 81.095 5.60768 83.9402 4.85895C84.1149 4.80903 84.2896 4.78407 84.5392 4.73416C84.5392 5.00869 84.5642 5.28323 84.5392 5.50785C84.2397 7.75407 82.6424 9.57599 80.4212 10.15C73.7824 11.8721 67.1186 13.5193 60.5048 15.3163C56.4865 16.3895 53.816 19.035 52.618 23.0283C51.5948 26.4226 52.1688 29.6422 54.1405 32.5622C55.8376 35.0331 58.2086 36.5805 61.1537 37.2044C65.9705 38.2027 70.8373 35.9066 73.2083 31.6637C74.1318 29.9916 74.6309 28.1946 74.6309 26.2978C74.6309 25.1996 74.8056 24.1514 75.3547 23.203C75.9537 22.2047 76.7523 21.431 77.9004 20.9318C78.0502 21.3312 78.1999 21.7305 78.2997 22.1049C80.7207 31.2145 74.8056 39.9747 65.9705 41.4473C64.7226 41.6469 63.4747 41.8216 62.2768 42.1461C59.4316 42.9198 57.0106 44.3923 54.9641 46.5137C53.7162 47.8115 52.6929 49.2341 51.9192 50.8564C51.5199 51.705 51.0207 52.5036 50.3968 53.2024C50.2471 53.3522 50.0973 53.5019 49.9226 53.6766C49.099 52.9029 48.475 52.0294 48.0258 51.0311C46.728 48.2857 44.8312 46.0395 42.3104 44.3174C40.1641 42.8699 37.7931 41.9215 35.2224 41.622C32.6767 41.3225 30.2558 40.6236 28.1094 39.1761C23.9664 36.4307 21.6203 32.5622 21.0713 27.6206C20.8466 25.4742 21.0962 23.4027 21.7451 21.3561C21.795 21.2064 21.8699 21.0566 21.9448 20.8819C22.9181 21.2813 23.617 21.9302 24.2159 22.7039C25.0146 23.7771 25.2392 25.0249 25.2392 26.3228C25.2642 28.4192 25.8382 30.3909 26.9863 32.1629C28.8332 35.058 31.4787 36.7801 34.848 37.2793C39.5651 37.9781 44.0076 35.657 46.2538 31.7386C49.5732 25.8985 47.0774 18.7605 41.387 16.0401C40.1641 15.4661 38.8662 15.1416 37.5684 14.8172C31.903 13.3446 26.2625 11.8971 20.5971 10.4246C20.1728 10.3247 19.7485 10.1999 19.3242 10.1001C17.1279 9.52608 15.3808 7.3797 15.3309 5.13348C15.3309 5.00869 15.3559 4.90886 15.3559 4.7092C15.6803 4.78407 15.9549 4.85895 16.2544 4.93382C23.0679 6.68087 29.8814 8.45289 36.6949 10.1999C38.1924 10.5743 39.6649 10.9237 41.1374 11.3979C44.7314 12.521 47.5017 14.7173 49.5732 17.862C49.673 18.0367 49.7978 18.2364 49.9476 18.4361ZM49.9476 33.8351C48.3752 36.5555 46.2288 38.5521 43.4585 39.9997C46.0541 41.5471 48.1755 43.4938 49.9476 45.9147C50.871 44.6668 51.7944 43.5437 52.9175 42.6203C54.0157 41.6968 55.1887 40.8483 56.3368 39.9498C53.6413 38.5272 51.5449 36.5056 49.9476 33.8351Z" fill="white"/>
<path d="M81.3196 12.7205C81.3446 13.8436 81.095 14.7671 80.5709 15.6156C79.7223 17.0133 78.4994 17.8868 76.9021 18.2861C74.7557 18.8352 72.6343 19.4092 70.4879 19.9583C68.1418 20.5573 65.7958 21.1563 63.4498 21.7802C62.7509 21.9799 62.0272 22.1796 61.3783 22.4791C59.8059 23.2528 58.9823 25.1246 59.2069 26.672C59.4814 28.4939 60.7793 29.8666 62.5263 30.2659C64.5978 30.7401 67.0187 29.4423 67.5429 26.9465C67.7924 25.7486 68.3166 24.7003 69.1651 23.8268C69.6144 23.3776 70.5378 22.8035 71.1118 22.7037C71.4113 23.2028 71.5361 23.7519 71.6609 24.326C72.1601 26.6221 71.7857 28.7934 70.5378 30.7651C69.2899 32.7118 67.4929 33.9597 65.2467 34.4589C61.4531 35.3074 57.5347 33.5604 55.8126 30.0413C54.415 27.1712 54.5647 24.301 56.2868 21.5556C57.5597 19.534 59.4315 18.4109 61.7027 17.8369C64.8724 17.0382 68.0171 16.2146 71.1618 15.391C73.8822 14.6922 76.6275 13.9684 79.3479 13.2446C80.0218 13.045 80.6208 12.8952 81.3196 12.7205Z" fill="white"/>
<path d="M18.5505 12.7205C19.399 12.9202 20.1228 13.0949 20.8216 13.2696C23.1178 13.8686 25.4388 14.4676 27.735 15.0666C30.4803 15.7903 33.2257 16.5141 35.9711 17.2629C36.7947 17.4875 37.6183 17.7121 38.4419 17.9118C40.763 18.4608 42.5101 19.8086 43.758 21.7802C44.4568 22.8784 44.8561 24.1263 44.931 25.4491C45.0059 26.8467 44.8561 28.1944 44.2821 29.4922C43.3586 31.5887 41.8612 33.1111 39.7397 34.0096C38.7165 34.4589 37.6433 34.6585 36.5451 34.6585C34.8729 34.6835 33.3006 34.2093 31.853 33.2859C29.9063 32.038 28.7083 30.2659 28.1842 28.0447C27.8098 26.4723 27.9346 24.1263 28.7832 22.6538C29.3822 22.8285 29.8814 23.1529 30.3556 23.5523C31.4287 24.4507 32.0777 25.6238 32.3522 26.9965C32.6018 28.3192 33.3755 29.2676 34.5485 29.8916C36.9444 31.1644 39.9394 29.7917 40.5883 27.0464C41.0875 24.9998 39.6898 22.6288 37.5185 22.0797C33.5252 21.0565 29.5319 19.9833 25.5137 18.935C24.4904 18.6605 23.4672 18.4359 22.4689 18.1114C20.3724 17.4376 19.0995 15.99 18.7002 13.8187C18.6253 13.4942 18.6004 13.1448 18.5505 12.7205Z" fill="white"/>
<path d="M22.7434 51.6546C22.0446 51.7544 19.2743 51.0306 16.5539 50.0573C14.5323 49.3335 12.5855 48.435 10.6139 47.4117C10.8385 48.5348 11.2378 49.4583 11.6871 50.3567C12.935 52.9524 14.6571 55.1736 16.8783 56.9956C19.0996 58.8175 21.5954 60.0903 24.3657 60.8141C26.0628 61.2634 27.3856 62.2118 28.1593 63.834C28.2092 63.9339 28.2342 64.0586 28.309 64.2583C28.0345 64.2583 27.8099 64.3082 27.5853 64.2833C23.6419 63.9339 19.998 62.7359 16.7036 60.5146C14.4075 58.9672 12.4358 57.0455 10.8634 54.7493C9.14135 52.2535 7.94337 49.4832 7.36934 46.4883C7.06984 44.9409 6.84522 43.3436 6.97001 41.6964C7.06984 41.7463 7.16967 41.7463 7.21959 41.7962C9.24118 43.3186 11.4375 44.5915 13.7087 45.7146C15.5306 46.6131 17.4274 47.3119 19.3741 47.9608C21.0213 48.5099 22.419 50.0323 22.7434 51.6546Z" fill="white"/>
<path d="M92.9251 41.6714C93.3743 53.3018 83.7905 63.9589 71.611 64.2584C71.8356 63.6843 72.0852 63.1602 72.4846 62.711C73.3082 61.7626 74.3314 61.1386 75.5294 60.8391C77.1517 60.4398 78.6991 59.8159 80.1716 58.9922C82.2431 57.8192 84.065 56.3217 85.6124 54.4749C87.2097 52.5781 88.3578 50.4317 89.1564 48.0856C89.2313 47.886 89.2563 47.6613 89.3312 47.3868C85.4377 49.4334 81.4694 50.9558 77.1517 51.7794C77.3014 50.9558 77.6508 50.3069 78.125 49.7329C78.8987 48.7345 79.947 48.1605 81.12 47.7861C84.0151 46.8627 86.7605 45.6148 89.3561 44.0175C90.4293 43.3436 91.4775 42.6198 92.5507 41.921C92.6506 41.8212 92.7504 41.7713 92.9251 41.6714Z" fill="white"/>
<path d="M36.3205 8.07823C42.6848 0.266406 56.212 -0.557205 63.6495 8.07823C63.5497 8.12815 63.4498 8.20302 63.35 8.22798C62.0272 8.57739 60.7044 8.90184 59.3817 9.25126C59.0572 9.32613 58.8326 9.30117 58.5581 9.07655C57.385 8.15311 56.0872 7.47924 54.6896 6.98008C53.3918 6.53084 52.044 6.23135 50.6714 6.18143C48.0508 6.05664 45.5799 6.63067 43.2588 7.87857C42.6099 8.22798 42.011 8.65226 41.412 9.07655C41.1873 9.25125 40.9627 9.32613 40.6882 9.25126C39.2656 8.87689 37.843 8.50252 36.4204 8.15311C36.3705 8.15311 36.3455 8.10319 36.3205 8.07823Z" fill="white"/>
<path d="M60.1803 90.4642C53.3668 93.6089 46.6031 93.5839 39.7148 90.4642C40.189 90.1397 40.6382 90.0649 41.0625 90.0399C41.8861 89.99 42.6847 90.0898 43.4834 90.3394C44.9559 90.8136 46.4784 91.1131 48.0258 91.2629C49.4983 91.4126 50.9708 91.3627 52.4433 91.2129C53.8909 91.0632 55.2885 90.7138 56.6862 90.2645C57.7344 89.9151 58.8076 89.9151 59.8558 90.2396C59.9307 90.2645 60.0056 90.2895 60.0804 90.3145C60.0804 90.3394 60.1054 90.3893 60.1803 90.4642Z" fill="white"/>
</g>
<defs>
<clipPath id="clip0">
<rect width="100" height="100" fill="white"/>
</clipPath>
</defs>
</svg>
