<svg width="176" height="171" viewBox="0 0 176 171" fill="none" xmlns="http://www.w3.org/2000/svg">
<g opacity="0.5" filter="url(#filter0_f)">
<path d="M154.089 95.6352L154.432 95.6319L164.799 97.5113C165.017 97.552 165.22 97.6319 165.39 97.7444C165.56 97.857 165.692 97.999 165.777 98.1589C165.862 98.3189 165.896 98.4922 165.877 98.6648C165.858 98.8374 165.786 99.0045 165.668 99.1523L118.259 157.228C118.056 157.478 117.732 157.656 117.36 157.724C116.988 157.791 116.597 157.743 116.273 157.588C115.95 157.434 115.72 157.187 115.635 156.901C115.55 156.615 115.617 156.314 115.82 156.064L162.179 99.2959L154.733 97.9381L107.872 152.38C107.67 152.614 107.361 152.782 107.006 152.851C106.652 152.919 106.278 152.884 105.958 152.75L30.4874 120.116L22.3494 126.484L104.797 158.678C105.135 158.808 105.391 159.038 105.508 159.315C105.625 159.592 105.594 159.895 105.421 160.156C105.249 160.417 104.949 160.616 104.587 160.708C104.226 160.8 103.832 160.778 103.494 160.647L19.2968 127.679C19.095 127.602 18.921 127.489 18.7904 127.348C18.6597 127.208 18.5764 127.044 18.5478 126.872C18.5121 126.705 18.5293 126.534 18.598 126.372C18.6666 126.211 18.7846 126.064 18.9421 125.945L29.214 117.885C29.4346 117.713 29.7217 117.601 30.0314 117.566C30.3412 117.532 30.6564 117.576 30.9289 117.692L106.228 150.241L152.918 95.9983C153.064 95.872 153.245 95.7734 153.449 95.7103C153.652 95.6473 153.871 95.6216 154.089 95.6352Z" fill="white"/>
<path d="M21.8968 28.3813C22.1363 28.3781 22.3727 28.4211 22.5841 28.5066L86.063 55.7151C86.2485 55.7938 86.409 55.9029 86.5334 56.0346C86.6578 56.1664 86.743 56.3176 86.7832 56.4779L108.096 151.63C108.156 151.921 108.064 152.219 107.841 152.46C107.618 152.701 107.281 152.865 106.903 152.917C106.717 152.941 106.528 152.936 106.345 152.903C106.162 152.871 105.99 152.81 105.838 152.726C105.686 152.642 105.557 152.535 105.459 152.412C105.361 152.289 105.296 152.152 105.267 152.009L84.0719 57.3837L23.4045 31.4457L32.7901 113.716C32.809 114.005 32.6845 114.289 32.4418 114.512C32.1991 114.735 31.8563 114.879 31.4824 114.916C31.2946 114.93 31.1053 114.915 30.9255 114.872C30.7457 114.829 30.5789 114.76 30.4347 114.667C30.2906 114.575 30.1719 114.461 30.0855 114.332C29.999 114.204 29.9466 114.064 29.9312 113.919L20.5318 29.582C20.5041 29.3831 20.5505 29.1817 20.6658 29.0014C20.7811 28.8212 20.9605 28.6695 21.1829 28.5641C21.3908 28.4476 21.6404 28.3837 21.8968 28.3813Z" fill="white"/>
<path d="M21.8969 28.3814C22.1414 28.3805 22.3817 28.4279 22.5948 28.5189C22.8079 28.61 22.9866 28.7418 23.1139 28.9016C23.2412 29.0614 23.3128 29.244 23.322 29.4318C23.3311 29.6197 23.2774 29.8066 23.166 29.9746L13.1099 44.6962L21.3786 126.735C21.3927 126.879 21.3697 127.025 21.3108 127.162C21.252 127.3 21.1586 127.428 21.0358 127.538C20.7879 127.761 20.4356 127.9 20.0564 127.924C19.6773 127.948 19.3024 127.856 19.0141 127.667C18.7259 127.478 18.548 127.208 18.5195 126.917L10.2196 44.4821C10.2145 44.2767 10.2719 44.0728 10.3873 43.8867L20.528 28.9884C20.6548 28.7957 20.8521 28.6354 21.0955 28.5275C21.3388 28.4196 21.6175 28.3688 21.8969 28.3814Z" fill="white"/>
<path d="M127.693 10.3622L127.979 10.3594C128.252 10.3957 128.504 10.4934 128.704 10.6402C128.903 10.787 129.041 10.9764 129.1 11.1844L151.581 88.4459C151.66 88.7337 151.587 89.0344 151.38 89.2833C151.173 89.5322 150.848 89.7092 150.474 89.7761C150.291 89.8068 150.101 89.8094 149.916 89.7837C149.732 89.758 149.556 89.7046 149.399 89.6264C149.241 89.5483 149.106 89.447 149 89.3283C148.894 89.2096 148.82 89.0759 148.781 88.9348L127.003 14.0635L86.5028 57.3163C86.2807 57.5546 85.945 57.7161 85.5699 57.7651C85.1947 57.814 84.8108 57.7466 84.5024 57.5775C84.194 57.4084 83.9866 57.1515 83.9256 56.8634C83.8647 56.5753 83.9553 56.2795 84.1776 56.0412L126.524 10.9233C126.639 10.7594 126.807 10.6213 127.012 10.5228C127.217 10.4243 127.452 10.3689 127.693 10.3622Z" fill="white"/>
<path d="M127.693 10.3622L127.865 10.3605L139.483 11.2382C139.779 11.2621 140.057 11.3565 140.278 11.5081C140.5 11.6597 140.654 11.861 140.719 12.084L165.833 98.271C165.874 98.415 165.877 98.564 165.842 98.7093C165.808 98.8547 165.737 98.9936 165.633 99.1181C165.528 99.2427 165.394 99.3504 165.236 99.4352C165.078 99.52 164.9 99.5802 164.712 99.6123C164.525 99.6445 164.331 99.6479 164.142 99.6225C163.954 99.5971 163.773 99.5433 163.612 99.4642C163.451 99.3851 163.312 99.2822 163.203 99.1614C163.094 99.0407 163.017 98.9044 162.976 98.7604L138.067 13.3631L127.479 12.5634C127.1 12.5671 126.735 12.4547 126.466 12.2511C126.196 12.0475 126.043 11.7693 126.041 11.4777C126.04 11.1861 126.188 10.9049 126.455 10.6962C126.722 10.4874 127.085 10.368 127.464 10.3644L127.693 10.3622Z" fill="white"/>
<path d="M137.208 81.8989C137.471 81.8952 137.73 81.9475 137.956 82.05C138.182 82.1525 138.366 82.3011 138.488 82.4796C138.611 82.6581 138.667 82.8594 138.65 83.0615C138.633 83.2635 138.543 83.4585 138.392 83.6248L105.024 119.705C104.919 119.825 104.784 119.928 104.626 120.007C104.469 120.085 104.292 120.138 104.108 120.163C103.923 120.187 103.734 120.182 103.552 120.149C103.371 120.115 103.2 120.053 103.052 119.966C102.896 119.885 102.764 119.78 102.662 119.658C102.56 119.536 102.491 119.4 102.458 119.257C102.425 119.115 102.429 118.968 102.471 118.826C102.512 118.684 102.589 118.55 102.698 118.43L136.066 82.3497C136.197 82.2106 136.369 82.0971 136.567 82.0187C136.766 81.9403 136.985 81.8993 137.208 81.8989Z" fill="white"/>
<path d="M134.521 65.0348C134.817 65.033 135.107 65.0991 135.352 65.2247C135.655 65.397 135.858 65.6535 135.919 65.9401C135.979 66.2267 135.893 66.521 135.677 66.761L102.337 102.841C102.23 102.962 102.092 103.065 101.932 103.144C101.772 103.223 101.594 103.276 101.407 103.3C101.22 103.325 101.028 103.32 100.845 103.286C100.661 103.252 100.488 103.19 100.337 103.103C100.036 102.934 99.8336 102.682 99.7729 102.399C99.7122 102.116 99.7981 101.825 100.012 101.588L133.352 65.5079C133.482 65.3616 133.657 65.242 133.861 65.1595C134.065 65.077 134.292 65.0342 134.521 65.0348Z" fill="white"/>
<path d="M131.834 48.1707C132.135 48.166 132.429 48.2408 132.665 48.3826C132.966 48.551 133.169 48.8037 133.229 49.0866C133.29 49.3696 133.204 49.6604 132.99 49.8969L99.6504 85.9773C99.5428 86.0973 99.4056 86.1998 99.2465 86.2791C99.0875 86.3583 98.9099 86.4127 98.7239 86.439C98.5379 86.4654 98.3473 86.4631 98.163 86.4325C97.9787 86.4018 97.8044 86.3434 97.6501 86.2605C97.3473 86.0882 97.1441 85.8317 97.0835 85.5451C97.0229 85.2585 97.1096 84.9642 97.3253 84.7242L130.665 48.6438C130.795 48.4975 130.97 48.3779 131.174 48.2954C131.378 48.2129 131.605 48.1701 131.834 48.1707Z" fill="white"/>
<path d="M129.234 31.3058C129.535 31.2992 129.829 31.3742 130.065 31.5177C130.22 31.5995 130.352 31.7043 130.454 31.826C130.556 31.9477 130.625 32.0839 130.658 32.2267C130.691 32.3695 130.687 32.5161 130.646 32.6581C130.604 32.8 130.527 32.9345 130.418 33.0537L97.05 69.1343C96.8287 69.3669 96.4986 69.5244 96.1301 69.5732C95.7617 69.6219 95.3841 69.5581 95.0781 69.3952C94.9229 69.3134 94.7905 69.2086 94.6886 69.0869C94.5867 68.9652 94.5174 68.829 94.4845 68.6862C94.4517 68.5434 94.4559 68.3968 94.4971 68.2549C94.5384 68.1129 94.6157 67.9784 94.7247 67.8592L128.093 31.7786C128.222 31.6367 128.393 31.52 128.591 31.4378C128.789 31.3557 129.009 31.3105 129.234 31.3058Z" fill="white"/>
<path d="M44.2959 97.6826C44.5487 97.6764 44.7977 97.7275 45.0119 97.8297L90.3618 117.186C90.6928 117.328 90.9355 117.567 91.0366 117.848C91.1377 118.13 91.0889 118.431 90.901 118.687C90.713 118.942 90.4013 119.131 90.0344 119.211C89.6675 119.291 89.2754 119.255 88.9445 119.113L43.5946 99.7566C43.2669 99.6087 43.0285 99.3677 42.9304 99.085C42.8323 98.8023 42.8823 98.5005 43.0697 98.2442C43.1934 98.0768 43.3716 97.9369 43.5867 97.8384C43.8018 97.7399 44.0463 97.6862 44.2959 97.6826Z" fill="white"/>
<path d="M44.1903 81.8052C44.439 81.8019 44.6846 81.8448 44.9062 81.9302L90.256 101.286C90.4388 101.348 90.6024 101.438 90.7363 101.552C90.8702 101.665 90.9715 101.8 91.0334 101.945C91.0954 102.091 91.1168 102.246 91.0962 102.399C91.0755 102.552 91.0134 102.701 90.9137 102.835C90.814 102.969 90.679 103.085 90.5175 103.177C90.3559 103.269 90.1713 103.333 89.9758 103.367C89.7802 103.401 89.5779 103.402 89.382 103.372C89.1861 103.342 89.001 103.28 88.8386 103.191L43.4888 83.8352C43.1631 83.6915 42.9253 83.4543 42.8271 83.1752C42.7288 82.8962 42.778 82.5978 42.964 82.3448C43.0913 82.1815 43.2711 82.046 43.486 81.9514C43.7009 81.8568 43.9435 81.8065 44.1903 81.8052Z" fill="white"/>
<path d="M37.6429 64.9785C37.882 64.978 38.1176 65.0209 38.3302 65.1039L83.68 84.4598C84.0105 84.5998 84.2543 84.8353 84.3581 85.1147C84.4618 85.394 84.417 85.6943 84.2334 85.9499C84.0433 86.2067 83.7302 86.3964 83.3614 86.4781C82.9927 86.5599 82.5981 86.527 82.2627 86.3868L36.9415 67.0305C36.775 66.9634 36.6281 66.871 36.5096 66.759C36.3911 66.6469 36.3034 66.5175 36.2517 66.3783C36.2 66.2392 36.1855 66.0933 36.2089 65.9493C36.2323 65.8054 36.2933 65.6663 36.3881 65.5404C36.5142 65.3698 36.6969 65.2277 36.9175 65.1289C37.1381 65.0302 37.3885 64.9783 37.6429 64.9785Z" fill="white"/>
<path d="M36.2148 48.1022C36.4676 48.096 36.7166 48.1471 36.9308 48.2493L82.2806 67.6052C82.4445 67.6759 82.5884 67.7707 82.7042 67.8844C82.8199 67.998 82.9053 68.1283 82.9554 68.2677C83.0055 68.4071 83.0192 68.5529 82.996 68.6968C82.9727 68.8408 82.9128 68.98 82.8198 69.1065C82.7267 69.233 82.6023 69.3444 82.4536 69.4342C82.3049 69.5241 82.1349 69.5907 81.9532 69.6303C81.7715 69.6698 81.5818 69.6815 81.3948 69.6646C81.2078 69.6478 81.0272 69.6028 80.8633 69.5322L35.5135 50.1762C35.2442 50.0564 35.034 49.8718 34.9149 49.6507C34.7958 49.4295 34.7744 49.1839 34.8539 48.9514C34.9334 48.7189 35.1094 48.5122 35.3551 48.3628C35.6009 48.2135 35.9028 48.1297 36.2149 48.1242L36.2148 48.1022Z" fill="white"/>
</g>
<defs>
<filter id="filter0_f" x="0" y="0" width="176.292" height="171.661" filterUnits="userSpaceOnUse" color-interpolation-filters="sRGB">
<feFlood flood-opacity="0" result="BackgroundImageFix"/>
<feBlend mode="normal" in="SourceGraphic" in2="BackgroundImageFix" result="shape"/>
<feGaussianBlur stdDeviation="5" result="effect1_foregroundBlur"/>
</filter>
</defs>
</svg>
