<svg width="287" height="287" viewBox="0 0 287 287" fill="none" xmlns="http://www.w3.org/2000/svg">
<g opacity="0.5" filter="url(#filter0_f)">
<path d="M138.83 239.009C137.993 238.148 56.7773 151.61 54.55 149.322C52.3228 147.033 45.2528 139.768 45.3385 133.143C45.4242 126.518 48.5631 109.562 48.7611 108.878C48.8053 108.672 48.8901 108.477 49.0106 108.303C49.1311 108.13 49.2848 107.982 49.4627 107.868L163.341 39.9591C163.675 39.7602 164.073 39.7012 164.449 39.7949C164.825 39.8885 165.148 40.1273 165.347 40.4591C165.449 40.6229 165.516 40.8057 165.546 40.9965C165.575 41.1873 165.566 41.3823 165.518 41.5698C165.471 41.7573 165.386 41.9335 165.269 42.0878C165.152 42.2422 165.005 42.3716 164.837 42.4683L51.5667 110.072C50.974 113.348 48.4336 127.963 48.3079 133.196C48.1823 138.429 54.5759 145.126 56.6806 147.289C58.7852 149.452 130.75 226.104 140.083 236.032L268.561 143.691C268.878 143.458 269.275 143.36 269.664 143.419C270.052 143.478 270.401 143.688 270.633 144.005C270.865 144.322 270.961 144.718 270.9 145.107C270.839 145.496 270.626 145.845 270.309 146.079L140.8 239.218C140.504 239.436 140.137 239.535 139.773 239.496C139.408 239.458 139.072 239.284 138.83 239.009Z" fill="white"/>
<path d="M198.404 43.6914L191.726 36.5761C191.459 36.2904 191.315 35.9106 191.325 35.5185C191.336 35.1263 191.499 34.753 191.781 34.4788C192.078 34.238 192.452 34.1119 192.833 34.1238C193.214 34.1356 193.578 34.2845 193.857 34.5432L200.555 41.6795C200.826 41.958 200.975 42.3333 200.969 42.7228C200.962 43.1122 200.802 43.484 200.522 43.7563C200.242 44.0287 199.866 44.1793 199.477 44.175C199.087 44.1707 198.716 44.0118 198.445 43.7334L198.404 43.6914Z" fill="white"/>
<path d="M52.0911 116.227C51.8201 115.948 51.6714 115.573 51.6777 115.184C51.684 114.794 51.8447 114.422 52.1245 114.15C52.4043 113.878 52.7803 113.727 53.1698 113.731C53.5592 113.736 53.9303 113.895 54.2012 114.173L143.893 205.748L270.369 120.385L206.594 52.4019C206.332 52.1218 206.191 51.7495 206.201 51.3651C206.211 50.9808 206.371 50.6149 206.647 50.3461C206.949 50.1082 207.323 49.9823 207.706 49.9904C208.089 49.9984 208.456 50.1398 208.745 50.3901L273.684 119.612C273.83 119.77 273.939 119.958 274.004 120.163C274.069 120.369 274.088 120.586 274.059 120.8C274.033 121.008 273.965 121.209 273.859 121.39C273.752 121.571 273.61 121.728 273.44 121.852L144.486 208.891C144.203 209.089 143.859 209.178 143.517 209.144C143.174 209.11 142.856 208.954 142.62 208.705L52.0489 116.268L52.0911 116.227Z" fill="white"/>
<path d="M139.735 229.215L55.4786 138.074C55.2216 137.765 55.0875 137.372 55.1017 136.969L56.1452 121.153C56.1575 120.764 56.3207 120.394 56.6003 120.122C56.88 119.849 57.2541 119.696 57.6434 119.694C57.8349 119.695 58.0242 119.733 58.2003 119.807C58.3764 119.882 58.5356 119.99 58.6689 120.127C58.8021 120.264 58.9065 120.426 58.976 120.604C59.0455 120.782 59.0787 120.973 59.0737 121.164L58.124 136.317L141.074 226.073L253.185 147.862L256.052 132.357C256.081 132.165 256.148 131.98 256.25 131.814C256.353 131.648 256.487 131.504 256.646 131.391C256.806 131.278 256.986 131.199 257.176 131.157C257.366 131.116 257.563 131.114 257.754 131.15C257.944 131.184 258.126 131.256 258.289 131.361C258.452 131.466 258.592 131.602 258.701 131.761C258.81 131.921 258.887 132.101 258.927 132.29C258.966 132.48 258.967 132.676 258.931 132.867L256.029 149.265C255.949 149.652 255.72 149.993 255.391 150.213L141.745 229.507C141.436 229.727 141.054 229.82 140.68 229.765C140.305 229.711 139.967 229.514 139.735 229.215Z" fill="white"/>
<path d="M67.844 141.534L80.3697 154.405C80.3697 154.405 68.0712 162.287 57.3029 170.601C46.5345 178.915 33.6155 190.508 33.6155 190.508L40.3531 169.354L19.5847 171.783L67.844 141.534Z" fill="white"/>
</g>
<defs>
<filter id="filter0_f" x="-10" y="-10" width="306.798" height="306.014" filterUnits="userSpaceOnUse" color-interpolation-filters="sRGB">
<feFlood flood-opacity="0" result="BackgroundImageFix"/>
<feBlend mode="normal" in="SourceGraphic" in2="BackgroundImageFix" result="shape"/>
<feGaussianBlur stdDeviation="5" result="effect1_foregroundBlur"/>
</filter>
</defs>
</svg>
