<svg width="202" height="158" viewBox="0 0 202 158" fill="none" xmlns="http://www.w3.org/2000/svg">
<g opacity="0.5" filter="url(#filter0_f)">
<path d="M123.013 11.4696C123.337 11.4636 123.655 11.5557 123.925 11.7336C124.195 11.9115 124.404 12.1668 124.525 12.4661C124.692 12.8672 124.694 13.318 124.532 13.7218C124.369 14.1257 124.055 14.4506 123.656 14.6271L39.1756 49.4587C37.425 54.4363 35.9406 59.5022 34.7286 64.6352C34.3511 66.9219 35.7808 70.3327 38.951 74.7053C40.1728 76.3895 80.6405 134.349 87.1811 143.679L184.353 93.4938C184.54 93.3905 184.747 93.3258 184.96 93.3034C185.173 93.2809 185.388 93.3013 185.593 93.3632C185.798 93.425 185.988 93.5272 186.152 93.6636C186.316 93.8 186.451 93.968 186.549 94.1575C186.652 94.3488 186.715 94.5587 186.735 94.7748C186.755 94.991 186.731 95.209 186.666 95.4162C186.6 95.6234 186.493 95.8156 186.352 95.9815C186.211 96.1473 186.039 96.2836 185.844 96.3822L87.4011 147.232C87.0478 147.41 86.643 147.457 86.2589 147.365C85.8748 147.273 85.5363 147.048 85.3037 146.73C84.8083 146.05 37.5685 78.3715 36.3134 76.6224C33.9033 73.384 30.7947 68.4238 31.486 64.1445C32.1774 59.8652 36.1244 48.2161 36.2852 47.7906C36.3616 47.5643 36.485 47.3564 36.6473 47.1806C36.8097 47.0048 37.0073 46.8651 37.2273 46.7704L122.393 11.6712C122.582 11.5597 122.794 11.4908 123.013 11.4696Z" fill="white"/>
<path d="M143.325 10.4591C143.59 10.4588 143.851 10.5228 144.086 10.6455C144.32 10.7683 144.521 10.9461 144.671 11.1637L148.569 16.7357C148.819 17.0923 148.916 17.5336 148.839 17.9624C148.762 18.3913 148.518 18.7727 148.159 19.0227C147.801 19.2726 147.358 19.3707 146.928 19.2954C146.498 19.22 146.116 18.9774 145.866 18.6208L141.968 13.0161C141.734 12.6603 141.646 12.2282 141.722 11.8087C141.798 11.3893 142.033 11.0145 142.378 10.7618C142.657 10.5693 142.986 10.4639 143.325 10.4591Z" fill="white"/>
<path d="M151.98 22.867C152.245 22.8667 152.507 22.9307 152.741 23.0535C152.976 23.1762 153.176 23.354 153.326 23.5716L191.086 77.7084C191.219 77.9006 191.309 78.1192 191.35 78.3496C191.392 78.5799 191.382 78.8165 191.323 79.0433C191.26 79.2703 191.149 79.4815 190.998 79.6628C190.847 79.8442 190.659 79.9917 190.447 80.0955L93.0227 126.695C92.6791 126.869 92.2849 126.913 91.9119 126.821C91.5388 126.729 91.2119 126.506 90.9907 126.193L37.9263 53.5478C37.6755 53.1974 37.5712 52.7632 37.6355 52.3366C37.6998 51.9101 37.9277 51.5246 38.271 51.2614C38.446 51.1346 38.6444 51.0435 38.8547 50.9934C39.0649 50.9433 39.2829 50.9352 39.4961 50.9695C39.7093 51.0038 39.9134 51.08 40.0967 51.1935C40.2799 51.3069 40.4387 51.4556 40.5639 51.6307L92.8363 123.273L187.423 78.0045L150.754 25.4229C150.515 25.0656 150.427 24.6283 150.51 24.206C150.593 23.7837 150.84 23.4107 151.197 23.1681C151.425 22.9974 151.696 22.8932 151.98 22.867Z" fill="white"/>
<path d="M41.8014 55.663L42.1286 55.6599C42.5502 55.7499 42.92 55.9993 43.1602 56.3558C43.4006 56.7122 43.4927 57.1481 43.4174 57.5718L41.2594 67.6381L88.8055 137.075L172.943 95.0714L176.376 84.7318C176.521 84.3233 176.821 83.987 177.21 83.7944C177.6 83.6019 178.05 83.5682 178.463 83.7007C178.87 83.8377 179.206 84.1291 179.398 84.5117C179.59 84.8944 179.624 85.3376 179.491 85.7456L175.834 96.7396C175.698 97.1501 175.406 97.4921 175.022 97.6932L88.8619 140.63C88.5062 140.811 88.0967 140.857 87.7104 140.759C87.3241 140.66 86.9876 140.424 86.7642 140.095L37.9298 68.8118C37.7989 68.6369 37.7071 68.4362 37.6606 68.2229C37.614 68.0096 37.6137 67.7886 37.6598 67.5749L39.9441 56.8225C40.0561 56.4351 40.3078 56.1023 40.6507 55.8883C40.9936 55.6742 41.4035 55.5939 41.8014 55.663Z" fill="white"/>
<path d="M46.7217 72.2494L54.0528 82.3548C54.0528 82.3548 44.7878 86.4884 36.5408 91.1666C28.2938 95.8448 18.26 102.432 18.26 102.432L25.0062 88.5706L10.5084 88.1558L46.7217 72.2494Z" fill="white"/>
</g>
<defs>
<filter id="filter0_f" x="-4.57764e-05" y="0.000244141" width="201.827" height="158.14" filterUnits="userSpaceOnUse" color-interpolation-filters="sRGB">
<feFlood flood-opacity="0" result="BackgroundImageFix"/>
<feBlend mode="normal" in="SourceGraphic" in2="BackgroundImageFix" result="shape"/>
<feGaussianBlur stdDeviation="5" result="effect1_foregroundBlur"/>
</filter>
</defs>
</svg>
