<svg width="180" height="216" viewBox="0 0 180 216" fill="none" xmlns="http://www.w3.org/2000/svg">
<g opacity="0.5" filter="url(#filter0_f)">
<path d="M31.3748 47.6632C32.4331 47.653 136.982 48.5245 139.795 48.4974C142.609 48.4703 151.54 48.3842 155.697 52.4361C159.854 56.488 168.711 68.7043 169.025 69.2417C169.129 69.3941 169.201 69.5657 169.238 69.7465C169.275 69.9273 169.275 70.1137 169.238 70.2948L142.886 183.27C142.809 183.601 142.603 183.889 142.314 184.07C142.025 184.251 141.676 184.311 141.344 184.237C141.178 184.203 141.02 184.135 140.881 184.038C140.742 183.942 140.624 183.818 140.534 183.675C140.444 183.532 140.384 183.372 140.357 183.205C140.33 183.038 140.338 182.867 140.379 182.702L166.554 70.2949C164.834 67.9438 157.099 57.5183 153.85 54.2812C150.602 51.044 142.445 51.0454 139.787 51.071C137.128 51.0966 44.5057 50.3419 32.502 50.2516L12.7627 187.2C12.717 187.542 12.5372 187.852 12.2626 188.062C11.9881 188.272 11.6414 188.365 11.2988 188.321C10.9562 188.276 10.6458 188.098 10.4358 187.825C10.2258 187.552 10.1335 187.207 10.1791 186.865L30.04 48.7827C30.0826 48.464 30.2432 48.1724 30.4902 47.9652C30.7373 47.7581 31.0528 47.6503 31.3748 47.6632Z" fill="white"/>
<path d="M119.116 203.187L127.712 203.258C128.057 203.262 128.386 203.4 128.629 203.643C128.872 203.886 129.009 204.215 129.011 204.558C128.983 204.892 128.835 205.204 128.595 205.438C128.355 205.672 128.038 205.812 127.703 205.832L119.081 205.761C118.739 205.764 118.41 205.632 118.166 205.393C117.922 205.154 117.784 204.828 117.782 204.486C117.78 204.145 117.914 203.817 118.154 203.573C118.394 203.329 118.722 203.191 119.064 203.187L119.116 203.187Z" fill="white"/>
<path d="M162.324 66.9128C162.666 66.9095 162.995 67.0419 163.239 67.2808C163.482 67.5198 163.62 67.8458 163.623 68.187C163.625 68.5283 163.491 68.8568 163.251 69.1005C163.01 69.3441 162.683 69.4829 162.341 69.4862L49.418 70.9343L26.4673 202.406L108.583 203.108C108.921 203.112 109.244 203.247 109.482 203.485C109.72 203.724 109.855 204.046 109.857 204.383C109.824 204.717 109.676 205.029 109.437 205.266C109.198 205.504 108.884 205.651 108.549 205.682L24.9356 204.969C24.7461 204.966 24.5596 204.922 24.3895 204.839C24.2195 204.756 24.0699 204.637 23.9515 204.49C23.8349 204.348 23.7489 204.183 23.6989 204.007C23.6489 203.83 23.6358 203.645 23.6607 203.463L47.0589 69.4129C47.1063 69.1148 47.2593 68.8432 47.4901 68.6474C47.7209 68.4516 48.0141 68.3445 48.3166 68.3456L162.323 66.8613L162.324 66.9128Z" fill="white"/>
<path d="M37.0452 54.1452L146.375 55.8714C146.728 55.8955 147.06 56.0479 147.307 56.3L156.719 66.5035C156.959 66.746 157.095 67.0724 157.097 67.4134C157.099 67.7545 156.968 68.0834 156.732 68.3306C156.615 68.4516 156.475 68.5481 156.32 68.6146C156.165 68.6811 155.999 68.7161 155.831 68.7178C155.663 68.7194 155.496 68.6875 155.34 68.624C155.185 68.5605 155.043 68.4667 154.925 68.348L145.877 58.6042L38.2251 56.8876L19.496 174.962L27.5982 186.131C27.7028 186.265 27.779 186.419 27.8221 186.584C27.8652 186.749 27.8743 186.921 27.8489 187.09C27.8235 187.258 27.7641 187.42 27.6743 187.565C27.5844 187.711 27.4661 187.836 27.3263 187.935C27.1882 188.035 27.0317 188.107 26.8658 188.146C26.6999 188.186 26.5279 188.192 26.3597 188.165C26.1915 188.138 26.0306 188.078 25.886 187.988C25.7414 187.899 25.6161 187.782 25.5174 187.643L16.8694 175.914C16.672 175.63 16.5955 175.279 16.6564 174.938L35.6328 55.2397C35.6818 54.9113 35.8561 54.6141 36.1193 54.4102C36.3825 54.2062 36.7142 54.1113 37.0452 54.1452Z" fill="white"/>
<path d="M136.63 61.6017L120.808 61.7541C120.808 61.7541 123.306 49.2226 124.595 37.3976C125.885 25.5726 126.403 10.4093 126.403 10.4093L135.732 27.4336L146.863 12.8372L136.63 61.6017Z" fill="white"/>
</g>
<defs>
<filter id="filter0_f" x="-1" y="0" width="181.166" height="216.963" filterUnits="userSpaceOnUse" color-interpolation-filters="sRGB">
<feFlood flood-opacity="0" result="BackgroundImageFix"/>
<feBlend mode="normal" in="SourceGraphic" in2="BackgroundImageFix" result="shape"/>
<feGaussianBlur stdDeviation="5" result="effect1_foregroundBlur"/>
</filter>
</defs>
</svg>
