<svg width="257" height="249" viewBox="0 0 257 249" fill="none" xmlns="http://www.w3.org/2000/svg">
<g opacity="0.5" filter="url(#filter0_f)">
<path d="M115.465 17.3405C115.71 17.4397 115.931 17.5918 116.11 17.7859C116.29 17.9801 116.424 18.2114 116.503 18.4633L142.956 108.513L220.436 183.232C220.645 183.423 220.802 183.662 220.894 183.929C220.986 184.195 221.009 184.481 220.962 184.759C220.921 185.035 220.813 185.298 220.649 185.524C220.485 185.751 220.269 185.935 220.019 186.061L134.899 228.779C134.688 228.886 134.458 228.949 134.222 228.965C133.986 228.981 133.749 228.949 133.525 228.872C133.309 228.796 133.109 228.678 132.939 228.525C132.768 228.372 132.63 228.186 132.532 227.979L130.095 222.945C129.96 222.54 129.977 222.099 130.144 221.706C130.312 221.313 130.618 220.994 131.004 220.811C131.391 220.627 131.832 220.591 132.244 220.71C132.656 220.828 133.01 221.092 133.241 221.453L134.89 224.852L216.242 184.035L140.295 110.758C140.086 110.53 139.924 110.263 139.82 109.972L113.871 21.6603L44.0923 63.8581L44.2795 66.7441C44.2947 66.975 44.2643 67.2066 44.1898 67.4255C44.1153 67.6445 43.9983 67.8466 43.8454 68.0203C43.6925 68.194 43.5068 68.3359 43.2988 68.4379C43.0908 68.5399 42.8647 68.6 42.6333 68.6148C42.4018 68.6295 42.1697 68.5987 41.9501 68.524C41.7304 68.4493 41.5277 68.3322 41.3533 68.1794C41.1789 68.0266 41.0363 67.8411 40.9337 67.6335C40.8311 67.4258 40.7704 67.2001 40.7552 66.9693L40.4996 63.0106C40.4777 62.6888 40.5452 62.3673 40.6948 62.0817C40.8444 61.796 41.0703 61.5573 41.3474 61.3917L114.004 17.482C114.224 17.3568 114.468 17.2796 114.719 17.2552C114.971 17.2308 115.225 17.2599 115.465 17.3405Z" fill="white"/>
<path d="M133.243 115.313C133.454 115.337 133.66 115.394 133.853 115.481C134.127 115.689 134.335 115.971 134.453 116.294C134.571 116.616 134.593 116.966 134.517 117.3C134.349 117.908 131.036 132.944 145.413 136.445C161.556 140.543 181.861 157.419 191.684 165.403L192.754 166.28C198.6 171.113 204.065 176.389 209.097 182.061C209.272 182.263 209.397 182.502 209.465 182.76C209.533 183.018 209.541 183.288 209.488 183.55C209.434 183.814 209.319 184.062 209.153 184.274C208.987 184.487 208.774 184.658 208.53 184.775L127.166 225.769C126.791 225.931 126.371 225.96 125.977 225.851C125.583 225.742 125.238 225.502 124.999 225.17C114.534 212.613 101.474 202.459 86.7137 195.404C65.8232 186.324 55.6021 171.072 59.3743 154.636C59.4292 154.396 59.5343 154.17 59.6829 153.973C59.8315 153.776 60.0201 153.613 60.2364 153.494L131.901 115.16C132.351 115.038 132.832 115.093 133.243 115.313ZM143.935 139.816C139.691 138.729 135.991 136.126 133.539 132.501C131.086 128.876 130.052 124.481 130.632 120.151L62.5215 156.305C59.5946 170.867 68.8537 183.927 87.9776 192.41C102.89 199.401 116.108 209.538 126.716 222.12L204.888 182.787C200.4 177.893 195.574 173.317 190.446 169.094L189.376 168.217C179.757 160.289 159.691 143.734 144.477 139.965L143.935 139.816Z" fill="white"/>
<path d="M108.565 26.6256C108.984 26.7409 109.351 26.9962 109.604 27.3489C109.801 27.6938 111.767 30.9989 117.186 48.9935C120.957 61.7361 120.302 75.7265 119.687 86.93C119.361 91.3419 119.271 95.7683 119.415 100.191C120.228 110.444 133.256 115.135 133.484 115.234C133.805 115.342 134.089 115.54 134.301 115.805C134.512 116.07 134.642 116.39 134.675 116.726C134.696 117.07 134.618 117.413 134.451 117.714C134.284 118.015 134.035 118.262 133.732 118.428L62.1143 156.593C61.7442 156.787 61.3148 156.837 60.9095 156.732C47.4251 153.696 41.5061 138.834 41.9472 108.723C42.3135 82.8433 34.2862 72.449 34.2033 72.3534C34.0465 72.1565 33.9322 71.9294 33.8676 71.6864C33.803 71.4434 33.7894 71.1898 33.8278 70.9415C33.8763 70.6963 33.9759 70.464 34.1202 70.2598C34.2645 70.0555 34.4502 69.8838 34.6653 69.7558L107.16 26.9639C107.357 26.8131 107.584 26.7051 107.826 26.6469C108.068 26.5886 108.32 26.5813 108.565 26.6256ZM128.807 116.994C124.22 114.6 116.522 109.348 115.924 100.425C115.696 95.8602 115.741 91.2861 116.062 86.7276C116.645 75.7698 117.343 62.1545 113.678 49.95C111.847 43.4477 109.686 37.0415 107.206 30.7558L37.8209 71.7907C40.1895 75.752 45.5006 87.1398 45.2276 108.721C44.8305 135.901 49.8058 149.957 60.8106 152.999L128.807 116.994Z" fill="white"/>
<path d="M140.96 112.576C141.213 112.65 141.446 112.778 141.644 112.952C141.842 113.126 141.998 113.342 142.103 113.583C144.206 118.324 146.957 122.753 150.278 126.743C154.683 131.36 159.583 135.48 164.889 139.03C169.437 142.358 174.588 146.143 180.438 150.958C180.795 151.255 181.02 151.68 181.063 152.142C181.107 152.603 180.965 153.063 180.669 153.42C180.525 153.6 180.346 153.749 180.142 153.859C179.939 153.968 179.715 154.035 179.485 154.056C179.254 154.077 179.022 154.052 178.801 153.982C178.581 153.911 178.377 153.797 178.201 153.646C172.434 148.927 167.317 145.151 162.837 141.842C157.28 138.145 152.162 133.83 147.583 128.978C144.053 124.731 141.109 120.031 138.832 115.004C138.656 114.569 138.659 114.082 138.84 113.649C139.021 113.217 139.365 112.873 139.798 112.691C140.161 112.522 140.571 112.481 140.96 112.576Z" fill="white"/>
<path d="M114.274 28.7846C114.544 28.8607 114.793 28.9993 115 29.1891C115.207 29.3789 115.367 29.6147 115.466 29.8772C122.276 47.4 126.152 65.9157 126.939 84.6829C127.022 86.2319 127.132 87.6795 127.213 88.9735C128.04 95.2475 131.144 101.005 135.937 105.156C136.145 105.29 136.322 105.466 136.456 105.673C136.591 105.879 136.68 106.112 136.719 106.355C136.758 106.598 136.745 106.847 136.681 107.084C136.617 107.322 136.503 107.543 136.347 107.734C136.192 107.925 135.997 108.08 135.777 108.191C135.557 108.302 135.316 108.365 135.069 108.376C134.823 108.387 134.576 108.347 134.347 108.257C134.117 108.167 133.908 108.03 133.735 107.854C128.149 103.14 124.566 96.4858 123.713 89.2417C123.608 87.9047 123.531 86.4663 123.449 84.9174C122.686 66.4335 118.881 48.1953 112.186 30.933C112.106 30.7186 112.07 30.4905 112.08 30.2622C112.09 30.0339 112.145 29.8099 112.243 29.6034C112.341 29.3969 112.479 29.212 112.649 29.0595C112.82 28.9071 113.019 28.7902 113.236 28.7157C113.579 28.6212 113.945 28.6455 114.274 28.7846Z" fill="white"/>
<path d="M81.8288 150.922C82.2029 151.03 82.5306 151.258 82.7607 151.572C82.9908 151.885 83.1101 152.266 83.0998 152.654C82.978 162.468 90.3977 171.895 108.777 185.186C119.095 192.487 128.991 200.365 138.415 208.784C138.601 208.937 138.753 209.127 138.862 209.341C138.971 209.556 139.035 209.79 139.049 210.03C139.064 210.269 139.029 210.509 138.946 210.735C138.864 210.96 138.736 211.166 138.57 211.34C138.405 211.514 138.205 211.652 137.983 211.746C137.762 211.839 137.523 211.886 137.282 211.884C137.042 211.882 136.804 211.83 136.584 211.732C136.364 211.634 136.166 211.492 136.003 211.315C126.689 203.018 116.927 195.238 106.759 188.008C87.297 174.017 79.4204 163.737 79.573 152.624C79.5764 152.394 79.6253 152.166 79.7171 151.955C79.8088 151.743 79.9416 151.552 80.1077 151.392C80.2737 151.232 80.4699 151.106 80.6849 151.022C80.8999 150.938 81.1295 150.897 81.3606 150.902L81.8288 150.922Z" fill="white"/>
<path d="M94.4206 143.464C94.7907 143.569 95.1165 143.792 95.3478 144.099C95.5791 144.405 95.7032 144.779 95.7011 145.163C95.5699 155.01 102.999 164.403 121.378 177.695C131.689 185.013 141.581 192.903 151.007 201.326C151.192 201.48 151.344 201.669 151.453 201.884C151.562 202.098 151.626 202.332 151.641 202.572C151.656 202.812 151.62 203.052 151.538 203.277C151.456 203.503 151.328 203.709 151.162 203.883C150.996 204.057 150.796 204.195 150.575 204.288C150.353 204.382 150.115 204.429 149.874 204.426C149.633 204.424 149.395 204.372 149.175 204.275C148.955 204.177 148.758 204.035 148.595 203.858C139.285 195.539 129.51 187.755 119.317 180.541C99.8981 166.526 92.0122 156.28 92.1649 145.167C92.1635 144.935 92.2092 144.705 92.2993 144.491C92.3893 144.278 92.5218 144.085 92.6889 143.924C92.856 143.763 93.0541 143.637 93.2712 143.555C93.4884 143.472 93.7201 143.435 93.9524 143.444C94.1079 143.416 94.268 143.423 94.4206 143.464Z" fill="white"/>
<path d="M107.012 136.007C107.382 136.111 107.708 136.334 107.939 136.641C108.171 136.948 108.295 137.322 108.293 137.705C108.161 147.553 115.59 156.946 133.97 170.237C144.288 177.538 154.183 185.416 163.607 193.835C163.776 193.994 163.913 194.184 164.008 194.396C164.103 194.607 164.156 194.835 164.163 195.066C164.171 195.298 164.132 195.528 164.05 195.744C163.968 195.961 163.844 196.159 163.685 196.327C163.526 196.496 163.335 196.631 163.123 196.726C162.912 196.821 162.683 196.873 162.451 196.88C162.219 196.886 161.988 196.848 161.771 196.765C161.554 196.683 161.355 196.559 161.186 196.4C151.876 188.082 142.101 180.297 131.908 173.083C112.49 159.068 104.604 148.822 104.766 137.675C104.769 137.445 104.818 137.217 104.91 137.006C105.002 136.794 105.134 136.603 105.3 136.443C105.466 136.283 105.663 136.157 105.878 136.073C106.093 135.989 106.322 135.948 106.553 135.953L107.012 136.007Z" fill="white"/>
<path d="M119.613 128.515C119.987 128.623 120.314 128.852 120.545 129.165C120.775 129.479 120.894 129.86 120.884 130.248C120.762 140.061 128.181 149.488 146.561 162.78C156.879 170.08 166.774 177.959 176.199 186.378C176.535 186.702 176.731 187.143 176.745 187.609C176.76 188.074 176.591 188.527 176.276 188.87C175.947 189.196 175.506 189.386 175.042 189.399C174.578 189.413 174.126 189.249 173.778 188.942C164.481 180.609 154.705 172.823 144.5 165.626C125.081 151.611 117.204 141.331 117.357 130.218C117.36 129.987 117.409 129.76 117.501 129.548C117.593 129.337 117.725 129.146 117.891 128.986C118.058 128.826 118.254 128.7 118.469 128.616C118.684 128.532 118.913 128.491 119.144 128.495L119.613 128.515Z" fill="white"/>
<path d="M54.144 69.0344C65.4084 72.9832 67.4252 99.3399 67.1312 120.734C66.962 133.623 75.9323 137.301 76.3293 137.447C76.759 137.621 77.1029 137.957 77.2859 138.382C77.469 138.807 77.4764 139.286 77.3065 139.716C77.1342 140.14 76.8048 140.482 76.3864 140.671C75.9681 140.86 75.4927 140.881 75.0587 140.73C74.5507 140.589 63.3922 136.125 63.6043 120.704C63.9999 92.87 60.0229 74.8015 53.0087 72.3543C52.7898 72.2799 52.5877 72.1632 52.414 72.0108C52.2403 71.8584 52.0984 71.6733 51.9964 71.4662C51.8945 71.2591 51.8344 71.0341 51.8198 70.8039C51.8052 70.5738 51.8363 70.3431 51.9112 70.1252C52.0687 69.69 52.3895 69.3331 52.8059 69.1296C53.2224 68.9261 53.7021 68.892 54.144 69.0344Z" fill="white"/>
<path d="M68.6851 58.7363C68.997 58.8154 69.2799 58.9818 69.5003 59.2159C79.2843 69.1872 84.0212 85.0312 83.7781 105.712C83.5376 122.688 91.3305 129.311 91.4227 129.373C91.7265 129.681 91.9059 130.089 91.9267 130.52C91.9474 130.951 91.8081 131.374 91.5351 131.709C91.2622 132.043 90.875 132.265 90.4478 132.332C90.0206 132.399 89.5834 132.306 89.22 132.071C88.7798 131.949 79.9756 124.502 80.2605 105.649C80.5356 85.7757 76.055 70.9837 66.9041 61.6234C66.582 61.2917 66.4039 60.8468 66.4084 60.3854C66.413 59.924 66.5999 59.4834 66.9284 59.1592C67.1571 58.9395 67.4402 58.7846 67.749 58.7103C68.0577 58.636 68.3808 58.6449 68.6851 58.7363Z" fill="white"/>
<path d="M82.2367 53.2154C82.6246 53.3089 82.9629 53.5452 83.1838 53.8768C93.7735 68.3223 94.5004 93.0143 94.3659 103.006C94.1316 107.134 95.0536 111.248 97.029 114.887C99.0044 118.527 101.955 121.547 105.551 123.612C105.967 123.815 106.287 124.175 106.439 124.612C106.592 125.048 106.565 125.528 106.365 125.944C106.16 126.361 105.801 126.682 105.363 126.84C104.925 126.997 104.443 126.977 104.018 126.786C99.813 124.43 96.3505 120.948 94.0229 116.734C91.6953 112.521 90.5956 107.743 90.8483 102.942C91.1268 82.925 87.198 65.3422 80.3575 55.93C80.218 55.7427 80.1173 55.5296 80.0614 55.3031C80.0055 55.0766 79.9955 54.8414 80.0319 54.6112C80.0683 54.3809 80.1504 54.1604 80.2734 53.9624C80.3964 53.7644 80.5579 53.5929 80.7483 53.4581C80.9602 53.3051 81.205 53.2035 81.4634 53.1613C81.7217 53.1192 81.9865 53.1377 82.2367 53.2154Z" fill="white"/>
<path d="M94.8368 45.7239C95.0886 45.7998 95.3212 45.929 95.5185 46.1027C95.7159 46.2764 95.8734 46.4905 95.9803 46.7303C102.547 63.5153 106.267 81.2694 106.988 99.2635C107.661 113.984 115.713 116.9 116.051 116.993C116.496 117.145 116.864 117.464 117.076 117.883C117.287 118.301 117.326 118.786 117.183 119.232C117.127 119.459 117.023 119.671 116.878 119.854C116.732 120.036 116.548 120.185 116.339 120.29C116.13 120.394 115.9 120.452 115.666 120.46C115.432 120.467 115.199 120.423 114.984 120.332C114.544 120.211 104.239 116.745 103.482 99.4211C102.741 81.854 99.1309 64.5202 92.795 48.103C92.6197 47.6735 92.622 47.1925 92.8014 46.7654C92.9808 46.3382 93.3228 45.9997 93.7523 45.8239C94.0945 45.6791 94.4734 45.6441 94.8368 45.7239Z" fill="white"/>
</g>
<defs>
<filter id="filter0_f" x="-9.62146" y="-9.82568" width="276.062" height="268.028" filterUnits="userSpaceOnUse" color-interpolation-filters="sRGB">
<feFlood flood-opacity="0" result="BackgroundImageFix"/>
<feBlend mode="normal" in="SourceGraphic" in2="BackgroundImageFix" result="shape"/>
<feGaussianBlur stdDeviation="5" result="effect1_foregroundBlur"/>
</filter>
</defs>
</svg>
