<svg width="200" height="182" viewBox="0 0 200 182" fill="none" xmlns="http://www.w3.org/2000/svg">
<g opacity="0.5" filter="url(#filter0_f)">
<path d="M150.75 10.3719L150.873 10.3708C151.037 10.396 151.192 10.4585 151.328 10.5533C151.464 10.6481 151.577 10.7727 151.657 10.9177L189.714 82.4302C189.818 82.6864 189.82 82.9728 189.719 83.2311C189.634 83.4895 189.451 83.7049 189.21 83.8315L184.973 85.9261C184.734 86.028 184.466 86.036 184.222 85.9485C183.979 85.861 183.777 85.6843 183.659 85.4541C183.54 85.2238 183.513 84.9571 183.583 84.7072C183.654 84.4574 183.816 84.2431 184.037 84.1073L187.332 82.4121L150.46 13.0856L88.9444 79.6837C88.8285 79.8115 88.68 79.9053 88.5149 79.9549L13.1625 103.99L50.9121 163.183L53.6624 162.952C53.7978 162.936 53.9348 162.948 54.0651 162.987C54.1955 163.027 54.3164 163.092 54.4207 163.179C54.525 163.266 54.6103 163.374 54.6717 163.495C54.733 163.617 54.769 163.75 54.7776 163.886C54.7964 164.154 54.7086 164.42 54.5332 164.626C54.3578 164.831 54.1089 164.959 53.8402 164.983L50.4537 165.283C50.2678 165.303 50.0799 165.271 49.9121 165.189C49.7443 165.107 49.6034 164.979 49.5059 164.819L10.7183 103.932C10.6484 103.792 10.6116 103.637 10.6105 103.481C10.6095 103.324 10.6443 103.169 10.7123 103.028C10.7668 102.879 10.8537 102.744 10.9666 102.633C11.0795 102.522 11.2156 102.437 11.3651 102.385L87.7424 78.0524L149.992 10.6668C150.196 10.4726 150.468 10.3666 150.75 10.3719Z" fill="white"/>
<path d="M149.993 20.1753L150.157 20.1737C150.311 20.1997 150.455 20.2608 150.581 20.3523C150.706 20.4437 150.808 20.5629 150.88 20.7007L187.273 88.9638C187.387 89.1722 187.424 89.4148 187.377 89.6484C187.33 89.882 187.201 90.0915 187.014 90.2396C186.851 90.3849 170.063 104.368 162.223 123.584C154.989 141.315 142.397 150.206 128.537 147.382C128.393 147.352 128.258 147.292 128.14 147.204C128.022 147.117 127.925 147.004 127.856 146.875L93.9611 86.7616C93.8635 86.5889 93.8181 86.3914 93.8305 86.193C93.8429 85.9947 93.9126 85.804 94.0311 85.6442C94.1496 85.4843 94.3118 85.3621 94.4981 85.2925C94.6844 85.2228 94.8868 85.2086 95.0806 85.2517C95.6359 85.3695 108.858 87.9736 111.751 75.2334C114.864 61.608 128.773 43.9766 135.453 35.5126L136.186 34.5609C140.181 29.5157 144.565 24.7903 149.297 20.4284C149.49 20.2621 149.738 20.1721 149.993 20.1753ZM185.098 89.2312L149.744 22.868C145.469 26.9073 141.489 31.249 137.837 35.8593L137.104 36.8111C130.506 45.0894 116.739 62.5346 113.808 75.7065C111.194 87.1501 101.197 87.8215 96.8003 87.5352L129.428 145.484C142.053 147.806 153.579 139.378 160.349 122.822C167.502 105.296 181.892 92.0346 185.098 89.2312Z" fill="white"/>
<path d="M94.8755 85.3152C95.0581 85.3109 95.2385 85.3554 95.3979 85.4441C95.5573 85.5328 95.6901 85.6626 95.7825 85.8199L129.677 145.954C129.75 146.181 129.752 146.424 129.682 146.652C127.334 157.97 114.965 163.224 89.5837 163.468C67.4263 163.681 58.4994 170.812 58.4177 170.874C58.3042 170.967 58.1728 171.036 58.0318 171.076C57.8907 171.116 57.743 171.127 57.5978 171.108C57.4549 171.083 57.3187 171.029 57.198 170.949C57.0772 170.869 56.9746 170.764 56.8965 170.642L18.9097 109.747C18.773 109.519 18.7278 109.249 18.7832 108.989C18.8387 108.729 18.9906 108.5 19.2084 108.347C19.3111 108.346 21.9483 106.555 37.3993 101.518C48.1164 98.0056 59.9683 98.3638 69.5196 98.6415C73.3101 98.8186 77.1083 98.782 80.896 98.5319C89.8855 97.7059 93.7717 86.0857 93.8127 86.0853C93.8747 85.895 93.9908 85.7267 94.1468 85.6012C94.3029 85.4756 94.492 85.3983 94.6911 85.3786L94.8755 85.3152ZM127.69 146.61L95.0417 88.6817C93.3824 92.3943 89.078 99.8085 81.1763 100.542C77.3064 100.793 73.4263 100.83 69.5535 100.654C60.1871 100.374 48.5201 100.035 38.1307 103.421C32.4302 105.149 26.8288 107.192 21.3521 109.538L58.156 168.576C61.0184 166.68 70.5337 161.557 89.6724 161.372C113.616 161.121 125.373 156.49 127.69 146.61Z" fill="white"/>
<path d="M124.015 44.9465C124.244 44.9398 124.469 45.0098 124.653 45.1457C124.867 45.3167 125.005 45.5651 125.038 45.8374C125.07 46.1098 124.995 46.3844 124.827 46.6022C120.897 51.6099 117.784 56.0348 115.038 59.9427C112.012 64.7003 108.458 69.1024 104.446 73.0652C100.932 76.1356 97.0098 78.7031 92.7913 80.694C92.6691 80.7492 92.5373 80.7794 92.4034 80.7831C92.2696 80.7867 92.1364 80.7635 92.0118 80.715C91.8871 80.6665 91.7735 80.5936 91.6775 80.5005C91.5816 80.4074 91.5052 80.296 91.4529 80.1729C91.347 79.9229 91.3425 79.6412 91.4404 79.3873C91.5384 79.1334 91.7311 78.9273 91.9778 78.8124C95.9998 76.8991 99.7423 74.4446 103.101 71.5174C106.966 67.6578 110.382 63.374 113.284 58.748C116.051 54.8193 119.185 50.4764 123.155 45.3244C123.258 45.1977 123.39 45.0973 123.54 45.0316C123.689 44.9659 123.852 44.9367 124.015 44.9465Z" fill="white"/>
<path d="M85.8906 83.6973C86.1166 83.6925 86.3363 83.7708 86.5081 83.9172C86.7239 84.0816 86.8655 84.3249 86.902 84.594C86.9384 84.8631 86.8667 85.136 86.7025 85.3529C82.8555 90.0857 77.3681 93.1971 71.3376 94.0648L67.6638 94.3877C51.9155 95.4038 36.4367 99.0228 21.8567 105.097C21.6014 105.198 21.3169 105.193 21.0659 105.084C20.8148 104.974 20.6177 104.77 20.518 104.515C20.4182 104.26 20.424 103.975 20.534 103.724C20.644 103.472 20.8493 103.275 21.1046 103.174C35.8745 97.0468 51.5437 93.3851 67.4858 92.3357L71.1391 92.013C76.6011 91.1952 81.5684 88.3723 85.0718 84.0954C85.1717 83.974 85.2965 83.8755 85.4379 83.8068C85.5792 83.7381 85.7336 83.7007 85.8906 83.6973Z" fill="white"/>
<path d="M174.067 79.5825C174.267 79.5792 174.464 79.6346 174.633 79.7419C174.802 79.8491 174.936 80.0036 175.018 80.1862C175.1 80.3688 175.126 80.5716 175.094 80.7695C175.063 80.9675 174.974 81.1519 174.838 81.3001C167.911 89.3924 161.453 97.8749 155.498 106.706C144.006 123.369 135.528 130.207 126.226 130.297C125.954 130.3 125.692 130.194 125.498 130.003C125.304 129.813 125.194 129.552 125.192 129.28C125.191 129.008 125.297 128.746 125.488 128.551C125.68 128.357 125.94 128.246 126.212 128.243C134.755 128.161 142.761 121.574 153.806 105.531C159.823 96.6358 166.334 88.0848 173.309 79.9184C173.406 79.8129 173.523 79.7286 173.653 79.6708C173.783 79.613 173.924 79.5829 174.067 79.5825Z" fill="white"/>
<path d="M167.466 69.0287C167.724 69.0243 167.974 69.1172 168.166 69.2889C168.262 69.3817 168.339 69.4927 168.392 69.6156C168.444 69.7386 168.472 69.8709 168.473 70.0048C168.474 70.1386 168.448 70.2714 168.397 70.3953C168.346 70.5192 168.271 70.6318 168.176 70.7264C161.255 78.8362 154.791 87.3249 148.815 96.1527C137.343 112.816 128.866 119.654 119.543 119.744C119.272 119.741 119.014 119.634 118.821 119.444C118.628 119.255 118.517 118.998 118.509 118.727C118.508 118.455 118.614 118.193 118.805 117.998C118.997 117.804 119.257 117.693 119.529 117.69C128.093 117.608 136.078 111.021 147.143 94.9777C153.16 86.0826 159.672 77.5316 166.647 69.3652C166.75 69.2516 166.877 69.1625 167.019 69.1042C167.16 69.046 167.313 69.0202 167.466 69.0287Z" fill="white"/>
<path d="M160.865 58.4745C161.062 58.4748 161.254 58.5315 161.419 58.6378C161.584 58.7441 161.714 58.8955 161.796 59.0742C161.877 59.2529 161.905 59.4513 161.877 59.6458C161.848 59.8403 161.765 60.0228 161.636 60.1717C154.718 68.2765 148.255 76.7582 142.275 85.5775C130.804 102.261 122.327 109.1 113.004 109.189C112.733 109.187 112.474 109.079 112.282 108.89C112.089 108.7 111.977 108.443 111.97 108.173C111.968 107.9 112.075 107.638 112.266 107.444C112.457 107.249 112.718 107.138 112.99 107.136C121.553 107.053 129.539 100.466 140.584 84.4232C146.611 75.5301 153.129 66.9792 160.108 58.8104C160.203 58.7039 160.32 58.6189 160.451 58.561C160.581 58.5031 160.723 58.4736 160.865 58.4745Z" fill="white"/>
<path d="M154.264 47.9206C154.389 47.9168 154.514 47.9379 154.63 47.9826C154.747 48.0273 154.854 48.0948 154.944 48.181C155.04 48.2738 155.117 48.3848 155.169 48.5078C155.222 48.6307 155.25 48.7629 155.251 48.8968C155.251 49.0307 155.226 49.1635 155.175 49.2874C155.124 49.4113 155.048 49.5239 154.953 49.6185C148.027 57.717 141.563 66.1991 135.592 75.0243C124.121 91.708 115.644 98.5258 106.321 98.6156C106.048 98.6182 105.786 98.5126 105.593 98.3219C105.399 98.1312 105.289 97.8711 105.287 97.5987C105.285 97.3264 105.392 97.0642 105.583 96.8698C105.774 96.6754 106.035 96.5647 106.307 96.5621C114.87 96.4796 122.856 89.913 133.901 73.87C139.913 64.9663 146.432 56.4146 153.425 48.2573C153.529 48.1396 153.659 48.0479 153.805 47.9894C153.951 47.931 154.108 47.9074 154.264 47.9206Z" fill="white"/>
<path d="M114.807 133.241L115.156 133.238C115.409 133.333 115.616 133.522 115.732 133.766C115.848 134.01 115.866 134.289 115.781 134.546C115.781 134.649 112.169 144.254 99.4169 144.377C75.4936 144.607 59.9936 148.453 57.9815 154.695C57.8962 154.968 57.706 155.197 57.4527 155.33C57.3272 155.396 57.1901 155.437 57.0491 155.45C56.9081 155.463 56.766 155.448 56.6309 155.407C56.4958 155.365 56.3703 155.297 56.2616 155.206C56.1529 155.116 56.0632 155.005 55.9975 154.88C55.9319 154.754 55.8915 154.617 55.8789 154.476C55.8662 154.335 55.8814 154.193 55.9237 154.058C59.1231 144.169 84.4743 142.467 99.3006 142.324C110.636 142.215 113.622 134.218 113.805 133.867C113.887 133.673 114.028 133.508 114.207 133.396C114.387 133.284 114.596 133.23 114.807 133.241Z" fill="white"/>
<path d="M107.374 121.073C107.602 121.069 107.826 121.139 108.012 121.272C108.224 121.44 108.362 121.684 108.395 121.953C108.427 122.222 108.352 122.494 108.186 122.708C107.941 123.039 102.077 130.53 86.2031 130.683C69.1385 130.847 56.495 134.974 48.6008 142.997C48.4101 143.187 48.1528 143.295 47.884 143.298C47.6153 143.301 47.3565 143.198 47.1633 143.011C47.0665 142.917 46.9893 142.804 46.9364 142.679C46.8834 142.555 46.8557 142.421 46.8548 142.285C46.8539 142.15 46.8798 142.015 46.9311 141.89C46.9824 141.764 47.058 141.65 47.1536 141.553C55.4149 133.136 68.5491 128.696 86.1888 128.527C100.933 128.385 106.514 121.43 106.554 121.368C106.661 121.262 106.79 121.181 106.931 121.13C107.073 121.079 107.224 121.059 107.374 121.073Z" fill="white"/>
<path d="M102.384 108.86C102.534 108.864 102.68 108.897 102.816 108.959C102.939 109.013 103.05 109.091 103.142 109.189C103.234 109.286 103.306 109.401 103.353 109.527C103.399 109.653 103.42 109.787 103.414 109.922C103.409 110.056 103.376 110.188 103.318 110.309C101.442 113.861 98.6042 116.815 95.1305 118.831C91.6568 120.848 87.6879 121.847 83.679 121.712C66.5117 121.877 51.5039 125.616 43.5146 131.689C43.4084 131.774 43.2862 131.836 43.1554 131.873C43.0246 131.909 42.8879 131.918 42.7535 131.901C42.6191 131.883 42.4898 131.838 42.3733 131.769C42.2568 131.699 42.1556 131.607 42.0758 131.498C41.9161 131.28 41.8473 131.008 41.8838 130.74C41.9204 130.471 42.0593 130.227 42.2716 130.058C54.2657 120.927 75.2254 119.74 83.6654 119.658C87.2839 119.793 90.8705 118.909 94.0171 117.107C97.1637 115.305 99.744 112.657 101.464 109.465C101.543 109.286 101.671 109.133 101.835 109.026C101.998 108.919 102.189 108.861 102.384 108.86Z" fill="white"/>
<path d="M96.6158 99.9414C96.7106 99.9217 96.8083 99.9207 96.9033 99.9386C97.1622 100.017 97.3804 100.193 97.5122 100.429C97.6439 100.665 97.679 100.943 97.61 101.205C97.4892 101.576 94.8352 110.104 80.4046 111.085C65.3863 112.024 50.6205 115.449 36.709 121.22C36.5845 121.293 36.4461 121.339 36.3027 121.356C36.1593 121.372 36.0141 121.358 35.8767 121.314C35.7393 121.27 35.6127 121.198 35.5051 121.102C35.3976 121.007 35.3116 120.889 35.2527 120.757C35.1937 120.626 35.1632 120.483 35.1631 120.339C35.163 120.195 35.1933 120.052 35.252 119.92C35.3107 119.788 35.3966 119.67 35.504 119.573C35.6114 119.476 35.7378 119.403 35.8752 119.359C50.0006 113.466 65.0052 109.976 80.2677 109.032C93.1792 108.148 95.534 100.938 95.6349 100.67C95.6994 100.46 95.8295 100.275 96.006 100.144C96.1826 100.013 96.3963 99.9422 96.6158 99.9414Z" fill="white"/>
</g>
<defs>
<filter id="filter0_f" x="0" y="0" width="200.372" height="181.567" filterUnits="userSpaceOnUse" color-interpolation-filters="sRGB">
<feFlood flood-opacity="0" result="BackgroundImageFix"/>
<feBlend mode="normal" in="SourceGraphic" in2="BackgroundImageFix" result="shape"/>
<feGaussianBlur stdDeviation="5" result="effect1_foregroundBlur"/>
</filter>
</defs>
</svg>
