<svg width="133" height="129" viewBox="0 0 133 129" fill="none" xmlns="http://www.w3.org/2000/svg">
<g opacity="0.5" filter="url(#filter0_f)">
<path d="M47.3965 10.7366C47.5136 10.7136 47.6358 10.7124 47.7533 10.7332L108.849 29.3666C108.996 29.4094 109.127 29.4795 109.231 29.5708C109.335 29.6622 109.409 29.7721 109.447 29.8914C109.484 30.0097 109.486 30.1334 109.452 30.2527C109.419 30.3721 109.351 30.484 109.254 30.5797L102.893 36.8819C102.755 37.0134 102.566 37.1066 102.356 37.148C102.146 37.1893 101.925 37.1765 101.725 37.1116L46.8124 18.2781L19.5316 59.1069C19.431 59.2446 19.2825 59.357 19.1038 59.4306C18.9251 59.5042 18.7237 59.536 18.5234 59.5223L11.204 58.7503C11.0487 58.7368 10.9004 58.6934 10.772 58.6239C10.6436 58.5544 10.5392 58.4609 10.468 58.3517C10.3942 58.2416 10.3553 58.1189 10.3545 57.994C10.3537 57.8691 10.3909 57.7456 10.4632 57.6341L37.9241 14.0888C38.0411 13.9014 38.2476 13.7578 38.4981 13.6896C38.7486 13.6214 39.0225 13.634 39.2597 13.7248C39.4969 13.8157 39.6778 13.9772 39.7628 14.1739C39.8477 14.3706 39.8297 14.5863 39.7126 14.7736L12.8795 57.3456L18.136 57.9034L45.456 16.9962C45.5768 16.822 45.7756 16.689 46.0134 16.6232C46.2512 16.5574 46.511 16.5636 46.742 16.6406L101.794 35.5195L106.835 30.447L46.9907 12.3008C46.7489 12.2234 46.5553 12.0751 46.4505 11.887C46.3457 11.6989 46.338 11.4856 46.4289 11.292C46.4952 11.131 46.6246 10.9904 46.7986 10.8906C46.9725 10.7907 47.1819 10.7368 47.3965 10.7366Z" fill="white"/>
<path d="M46.3251 16.5352C46.5428 16.5297 46.7563 16.5808 46.9326 16.6807C47.1088 16.7805 47.2379 16.9235 47.3 17.0875L70.5118 82.6901L114.636 97.6645L100.695 40.1482C100.647 39.946 100.703 39.7366 100.851 39.5657C100.998 39.3948 101.225 39.2762 101.482 39.2358C101.739 39.1968 102.005 39.2394 102.221 39.3542C102.437 39.469 102.586 39.6468 102.635 39.8487L116.903 98.8129C116.943 98.9511 116.931 99.0958 116.869 99.2293C116.806 99.3629 116.696 99.4795 116.551 99.5652C116.412 99.6552 116.244 99.7138 116.066 99.7347C115.888 99.7557 115.707 99.7382 115.541 99.6841L69.2715 83.9659C69.1378 83.9212 69.0184 83.8537 68.9219 83.7684C68.8254 83.683 68.7542 83.5818 68.7132 83.472L45.4595 17.5265C45.3958 17.3267 45.4314 17.1147 45.5591 16.9338C45.6868 16.7528 45.897 16.6165 46.1468 16.5526L46.3251 16.5352Z" fill="white"/>
<path d="M108.433 29.4018C108.668 29.3976 108.897 29.4608 109.076 29.5796C109.256 29.6984 109.374 29.8647 109.409 30.0477L122.636 87.6488C122.677 87.7871 122.678 87.931 122.639 88.0701L116.925 99.2183C116.811 99.3908 116.62 99.5239 116.388 99.5919C116.157 99.6598 115.902 99.6577 115.674 99.5858C115.446 99.514 115.26 99.3776 115.154 99.2033C115.047 99.029 115.027 98.8293 115.098 98.6431L120.694 87.6675L107.527 30.253C107.503 30.1518 107.506 30.0478 107.534 29.947C107.562 29.8461 107.615 29.7505 107.69 29.6657C107.765 29.5808 107.86 29.5083 107.971 29.4525C108.081 29.3967 108.205 29.3585 108.334 29.3403L108.433 29.4018Z" fill="white"/>
<path d="M21.9779 63.343C22.1891 63.3424 22.3948 63.3938 22.566 63.4901C22.7373 63.5864 22.8656 63.7227 22.9329 63.8799L44.7632 115.5L68.7683 82.8632C68.9035 82.6877 69.1205 82.5607 69.3725 82.5094C69.6245 82.458 69.8913 82.4865 70.1155 82.5887C70.3397 82.6909 70.5034 82.8586 70.5712 83.0557C70.639 83.2528 70.6056 83.4635 70.4781 83.6424L45.3729 117.772C45.2773 117.905 45.1342 118.012 44.9617 118.08C44.7892 118.148 44.5952 118.175 44.4042 118.156C44.2154 118.142 44.0362 118.085 43.888 117.992C43.7398 117.9 43.6288 117.775 43.5682 117.634L21.0532 64.3817C21.0095 64.2849 20.9911 64.182 20.9992 64.0792C21.0074 63.9764 21.0418 63.8758 21.1004 63.7834C21.159 63.6911 21.2407 63.6089 21.3404 63.5417C21.4402 63.4746 21.556 63.4239 21.6809 63.3927L21.9779 63.343Z" fill="white"/>
<path d="M11.2928 57.2204C11.5022 57.2163 11.7075 57.2646 11.879 57.3582C12.0506 57.4519 12.1796 57.5861 12.2477 57.7417L37.1789 116.619L44.5721 116.547C44.8349 116.545 45.0875 116.625 45.2743 116.769C45.4612 116.914 45.5669 117.111 45.5683 117.318C45.5596 117.525 45.4506 117.722 45.2636 117.869C45.0766 118.016 44.8258 118.101 44.5626 118.108L36.456 118.186C36.2474 118.186 36.0448 118.133 35.8769 118.037C35.709 117.941 35.5843 117.805 35.5208 117.649L10.368 58.2435C10.3243 58.1467 10.306 58.0438 10.3141 57.941C10.3222 57.8382 10.3566 57.7376 10.4152 57.6452C10.4738 57.5529 10.5555 57.4706 10.6552 57.4035C10.755 57.3363 10.8708 57.2857 10.9957 57.2545L11.2928 57.2204Z" fill="white"/>
<path d="M51.2346 39.4704C51.4098 39.466 51.5824 39.5023 51.7308 39.5748C51.956 39.6771 52.1217 39.8442 52.1932 40.0412C52.2647 40.2383 52.2365 40.45 52.1145 40.6321L32.4741 67.9068C32.3425 68.0848 32.1291 68.2165 31.8782 68.2741C31.6274 68.3318 31.3587 68.311 31.1283 68.2162C30.9016 68.1111 30.7354 67.9412 30.664 67.7416C30.5926 67.542 30.6215 67.3278 30.7445 67.1434L50.484 39.8677C50.5607 39.7597 50.6687 39.6673 50.7992 39.5983C50.9297 39.5292 51.0789 39.4854 51.2346 39.4704Z" fill="white"/>
<path d="M54.623 51.2329C54.7985 51.2266 54.9718 51.2631 55.1193 51.3374C55.3483 51.4368 55.5173 51.6039 55.5893 51.802C55.6612 52.0002 55.6301 52.2133 55.5029 52.3946L35.7633 79.6549C35.7068 79.7549 35.6244 79.8446 35.5214 79.9182C35.4184 79.9918 35.297 80.0477 35.1652 80.0823C35.0333 80.1169 34.8939 80.1293 34.756 80.1188C34.6181 80.1083 34.4846 80.0752 34.3644 80.0214C34.2442 79.9677 34.1397 79.8947 34.0579 79.807C33.9761 79.7194 33.9187 79.619 33.8894 79.5125C33.8601 79.406 33.8595 79.2956 33.8878 79.1886C33.9161 79.0816 33.9725 78.9803 34.0535 78.8912L53.694 51.6163C53.7886 51.4908 53.9257 51.3884 54.0899 51.3207C54.2541 51.2529 54.4388 51.2225 54.623 51.2329Z" fill="white"/>
<path d="M58.031 62.9644C58.2059 62.9617 58.3779 62.9979 58.5272 63.0688C58.641 63.1178 58.7408 63.1843 58.821 63.2645C58.9012 63.3446 58.96 63.4367 58.9939 63.5354C59.0278 63.634 59.0362 63.7371 59.0185 63.8386C59.0009 63.9401 58.9575 64.0379 58.891 64.1262L39.1516 91.402C39.0084 91.5596 38.7963 91.6701 38.5565 91.7123C38.3167 91.7544 38.0662 91.7251 37.8534 91.6301C37.6407 91.5351 37.4809 91.3811 37.4049 91.1979C37.3288 91.0147 37.342 90.8153 37.4418 90.6384L57.0822 63.3636C57.1774 63.2339 57.3169 63.1277 57.4847 63.0571C57.6525 62.9865 57.8418 62.9544 58.031 62.9644Z" fill="white"/>
<path d="M61.4195 74.7114C61.5944 74.7088 61.7664 74.745 61.9158 74.8158C62.0295 74.8648 62.1294 74.9314 62.2096 75.0115C62.2898 75.0916 62.3485 75.1838 62.3825 75.2824C62.4164 75.381 62.4248 75.4841 62.4071 75.5856C62.3895 75.6871 62.3461 75.7849 62.2796 75.8733L42.6391 103.148C42.5041 103.328 42.2856 103.459 42.0304 103.514C41.7751 103.569 41.5034 103.543 41.2733 103.442C41.1596 103.393 41.0597 103.327 40.9795 103.246C40.8994 103.166 40.8405 103.074 40.8066 102.976C40.7727 102.877 40.7643 102.774 40.782 102.672C40.7996 102.571 40.843 102.473 40.9095 102.385L60.6491 75.1089C60.7277 74.9988 60.8389 74.9052 60.973 74.836C61.1072 74.7668 61.2603 74.724 61.4195 74.7114Z" fill="white"/>
<path d="M61.1242 39.297C61.2622 39.2977 61.3979 39.3231 61.5212 39.3712L94.5796 50.5828C94.6999 50.6221 94.8087 50.6802 94.8996 50.7535C94.9904 50.8269 95.0614 50.9139 95.1083 51.0096C95.1552 51.1053 95.177 51.2076 95.1725 51.3104C95.1679 51.4131 95.1372 51.5142 95.082 51.6077C95.0309 51.7026 94.9565 51.7889 94.8631 51.8613C94.7697 51.9338 94.6592 51.9911 94.5379 52.03C94.4165 52.0689 94.2868 52.0885 94.1561 52.0878C94.0254 52.0871 93.8964 52.0661 93.7765 52.0259L60.7378 40.7985C60.4747 40.7597 60.2427 40.64 60.0928 40.4659C59.943 40.2918 59.8876 40.0775 59.9388 39.8701C59.99 39.6627 60.1435 39.4793 60.3658 39.3601C60.588 39.2409 60.8607 39.1958 61.1238 39.2346L61.1242 39.297Z" fill="white"/>
<path d="M62.646 50.5004C62.7772 50.483 62.911 50.4817 63.0424 50.4966L96.1009 61.755C96.2277 61.7915 96.3435 61.848 96.4412 61.9212C96.5388 61.9944 96.6162 62.0826 96.6687 62.1805C96.7212 62.2784 96.7475 62.3838 96.7462 62.4903C96.7448 62.5968 96.7158 62.7021 96.6608 62.7998C96.6059 62.8974 96.5263 62.9852 96.4268 63.058C96.3273 63.1307 96.2101 63.1867 96.0824 63.2226C95.9547 63.2585 95.8192 63.2734 95.6842 63.2665C95.5493 63.2596 95.4177 63.2311 95.2977 63.1826L62.2593 51.9707C61.9962 51.9319 61.7642 51.8123 61.6144 51.6382C61.4645 51.464 61.4091 51.2497 61.4603 51.0423C61.5115 50.8349 61.6651 50.6514 61.8873 50.5323C62.1096 50.4131 62.3823 50.3679 62.6454 50.4068L62.646 50.5004Z" fill="white"/>
<path d="M68.7089 62.0189C68.8468 62.0196 68.9826 62.045 69.1058 62.0931L102.164 73.3047C102.284 73.344 102.393 73.4021 102.484 73.4754C102.575 73.5488 102.646 73.6359 102.693 73.7316C102.74 73.8273 102.761 73.9295 102.757 74.0323C102.752 74.135 102.722 74.2362 102.666 74.3296C102.615 74.4246 102.541 74.5108 102.447 74.5833C102.354 74.6557 102.244 74.7131 102.122 74.7519C102.001 74.7908 101.871 74.8105 101.74 74.8098C101.61 74.8091 101.481 74.788 101.361 74.7478L68.3225 63.5204C68.2022 63.4809 68.0932 63.423 68.0018 63.35C67.9103 63.277 67.8383 63.1903 67.7898 63.0951C67.7413 62.9998 67.7171 62.8978 67.719 62.795C67.7208 62.6921 67.7484 62.5904 67.8003 62.4957C67.8787 62.3566 68.006 62.2378 68.167 62.1533C68.328 62.0688 68.516 62.0222 68.7089 62.0189Z" fill="white"/>
<path d="M71.2055 73.837C71.3358 73.8123 71.4714 73.811 71.602 73.8332L104.66 85.076C104.793 85.1076 104.916 85.161 105.021 85.2327C105.126 85.3044 105.21 85.3927 105.268 85.492C105.326 85.5913 105.357 85.6992 105.359 85.8088C105.36 85.9185 105.333 86.0273 105.277 86.1281C105.222 86.229 105.14 86.3198 105.038 86.3944C104.935 86.469 104.813 86.5259 104.681 86.5613C104.549 86.5967 104.409 86.6099 104.271 86.5999C104.132 86.5899 103.998 86.557 103.877 86.5034L70.8187 75.2762C70.6984 75.2366 70.5894 75.1786 70.498 75.1056C70.4066 75.0326 70.3346 74.946 70.286 74.8508C70.2375 74.7556 70.2134 74.6536 70.2152 74.5507C70.217 74.4478 70.2446 74.3461 70.2965 74.2514C70.3877 74.125 70.5202 74.0198 70.6801 73.9469C70.8399 73.8741 71.0214 73.8361 71.2055 73.837Z" fill="white"/>
</g>
<defs>
<filter id="filter0_f" x="6.10352e-05" y="0" width="132.864" height="128.488" filterUnits="userSpaceOnUse" color-interpolation-filters="sRGB">
<feFlood flood-opacity="0" result="BackgroundImageFix"/>
<feBlend mode="normal" in="SourceGraphic" in2="BackgroundImageFix" result="shape"/>
<feGaussianBlur stdDeviation="5" result="effect1_foregroundBlur"/>
</filter>
</defs>
</svg>
