<svg width="362" height="232" viewBox="0 0 362 232" fill="none" xmlns="http://www.w3.org/2000/svg">
<g filter="url(#filter0_d)">
<path d="M57.788 176.361C138.39 176.493 218.991 176.607 299.593 176.739C301.365 174.397 304.665 169.334 305.343 162.194C305.57 159.871 306.267 152.372 301.761 145.95C300.762 144.533 300.064 143.967 299.121 142.928C292.466 135.712 291.335 125.909 291.014 124.417C287.338 107.832 144.234 51.7133 81.5443 124.606C72.8148 134.768 62.5204 151.05 57.788 176.361Z" fill="#444444" stroke="#444444" stroke-miterlimit="10" stroke-linecap="round" stroke-linejoin="round"/>
<path d="M186.656 146.044V196.1H175.099C167.5 196.1 161.335 184.899 161.335 171.072C161.335 157.246 167.5 146.044 175.099 146.044H186.656Z" fill="#444444" stroke="#444444" stroke-miterlimit="10" stroke-linecap="round" stroke-linejoin="round"/>
<path d="M186.751 196.1C194.352 196.1 200.514 184.895 200.514 171.072C200.514 157.25 194.352 146.044 186.751 146.044C179.149 146.044 172.987 157.25 172.987 171.072C172.987 184.895 179.149 196.1 186.751 196.1Z" fill="#444444" stroke="#444444" stroke-miterlimit="10" stroke-linecap="round" stroke-linejoin="round"/>
<path d="M186.751 189.886C183.885 189.886 181.189 187.883 179.209 184.276C177.267 180.743 176.192 176.059 176.192 171.072C176.192 166.086 177.267 161.401 179.209 157.869C181.207 154.242 183.885 152.259 186.751 152.259C189.616 152.259 192.313 154.261 194.292 157.869C196.234 161.401 197.309 166.086 197.309 171.072C197.309 176.059 196.234 180.743 194.292 184.276C192.313 187.902 189.616 189.886 186.751 189.886Z" fill="#747CA5"/>
<path d="M186.751 152.731C192.313 152.731 196.838 160.948 196.838 171.072C196.838 181.197 192.313 189.413 186.751 189.413C181.189 189.413 176.664 181.197 176.664 171.072C176.664 160.948 181.189 152.731 186.751 152.731ZM186.751 151.787C183.696 151.787 180.868 153.864 178.794 157.642C176.814 161.25 175.721 166.01 175.721 171.072C175.721 176.134 176.814 180.894 178.794 184.502C180.868 188.28 183.696 190.358 186.751 190.358C189.805 190.358 192.633 188.28 194.707 184.502C196.687 180.894 197.78 176.134 197.78 171.072C197.78 166.01 196.687 161.25 194.707 157.642C192.633 153.864 189.805 151.787 186.751 151.787Z" fill="#444444"/>
<path d="M177.701 164.272C179.397 165.594 181.094 166.917 182.791 168.239C183.036 167.956 183.3 167.578 183.545 167.106C183.922 166.369 184.054 165.689 184.111 165.217C183.885 163.932 183.526 162.459 182.98 160.872C182.395 159.172 181.735 157.737 181.094 156.528" stroke="white" stroke-miterlimit="10" stroke-linecap="round" stroke-linejoin="round"/>
<path d="M177.323 176.55C179.077 175.662 180.849 174.793 182.603 173.906C182.904 174.264 183.244 174.774 183.545 175.417C183.885 176.153 184.036 176.814 184.111 177.306C183.715 178.477 183.168 179.837 182.414 181.272C181.66 182.689 180.887 183.879 180.152 184.861" stroke="white" stroke-miterlimit="10" stroke-linecap="round" stroke-linejoin="round"/>
<path d="M186.939 189.206C186.996 185.938 187.071 182.651 187.128 179.383C187.278 179.119 187.524 178.779 187.882 178.439C188.297 178.042 188.711 177.816 189.013 177.683C189.409 178.439 189.786 179.27 190.144 180.139C191.049 182.311 191.634 184.37 192.03 186.183" stroke="white" stroke-miterlimit="10" stroke-linecap="round" stroke-linejoin="round"/>
<path d="M195.989 176.55C195.216 176.191 194.405 175.738 193.538 175.228C192.708 174.718 191.954 174.208 191.276 173.717C191.125 173.263 190.936 172.621 190.898 171.828C190.842 170.959 190.974 170.241 191.087 169.75C191.54 169.372 192.03 168.994 192.595 168.617C193.877 167.748 195.103 167.162 196.178 166.728" stroke="white" stroke-miterlimit="10" stroke-linecap="round" stroke-linejoin="round"/>
<path d="M187.505 153.317C187.448 156.66 187.373 159.984 187.316 163.328C187.486 163.611 187.769 164.046 188.259 164.461C188.768 164.877 189.258 165.103 189.579 165.217C189.975 164.386 190.352 163.498 190.71 162.572C191.521 160.494 192.143 158.53 192.595 156.717" stroke="white" stroke-miterlimit="10" stroke-linecap="round" stroke-linejoin="round"/>
<path d="M87.1063 146.044V196.1H75.5487C67.9504 196.1 61.7851 184.899 61.7851 171.072C61.7851 157.246 67.9504 146.044 75.5487 146.044H87.1063Z" fill="#444444" stroke="#444444" stroke-miterlimit="10" stroke-linecap="round" stroke-linejoin="round"/>
<path d="M87.2006 196.1C94.802 196.1 100.964 184.895 100.964 171.072C100.964 157.25 94.802 146.044 87.2006 146.044C79.5992 146.044 73.437 157.25 73.437 171.072C73.437 184.895 79.5992 196.1 87.2006 196.1Z" fill="#444444" stroke="#444444" stroke-miterlimit="10" stroke-linecap="round" stroke-linejoin="round"/>
<path d="M87.2005 189.413C92.7714 189.413 97.2875 181.202 97.2875 171.072C97.2875 160.943 92.7714 152.731 87.2005 152.731C81.6297 152.731 77.1136 160.943 77.1136 171.072C77.1136 181.202 81.6297 189.413 87.2005 189.413Z" fill="#444444" stroke="#444444" stroke-miterlimit="10" stroke-linecap="round" stroke-linejoin="round"/>
<path d="M78.1505 164.272C79.8474 165.594 81.5443 166.917 83.2412 168.239C83.4863 167.956 83.7502 167.578 83.9953 167.106C84.3724 166.369 84.5044 165.689 84.561 165.217C84.3347 163.932 83.9765 162.459 83.4297 160.872C82.8452 159.172 82.1853 157.737 81.5443 156.528" stroke="#444444" stroke-miterlimit="10" stroke-linecap="round" stroke-linejoin="round"/>
<path d="M77.7735 176.55C79.5269 175.662 81.2992 174.793 83.0526 173.906C83.3543 174.264 83.6937 174.774 83.9953 175.417C84.3347 176.153 84.4855 176.814 84.561 177.306C84.165 178.477 83.6183 179.837 82.8641 181.272C82.1099 182.689 81.3369 183.879 80.6016 184.861" stroke="#444444" stroke-miterlimit="10" stroke-linecap="round" stroke-linejoin="round"/>
<path d="M87.3891 189.206C87.4457 185.938 87.5211 182.651 87.5776 179.383C87.7285 179.119 87.9736 178.779 88.3318 178.439C88.7466 178.042 89.1614 177.816 89.4631 177.683C89.859 178.439 90.2361 179.27 90.5943 180.139C91.4993 182.311 92.0838 184.37 92.4797 186.183" stroke="#444444" stroke-miterlimit="10" stroke-linecap="round" stroke-linejoin="round"/>
<path d="M96.4391 176.55C95.6661 176.191 94.8554 175.738 93.9881 175.228C93.1585 174.718 92.4043 174.208 91.7256 173.717C91.5747 173.263 91.3862 172.621 91.3485 171.828C91.2919 170.959 91.4239 170.241 91.537 169.75C91.9895 169.372 92.4797 168.994 93.0454 168.617C94.3275 167.748 95.553 167.162 96.6277 166.728" stroke="#444444" stroke-miterlimit="10" stroke-linecap="round" stroke-linejoin="round"/>
<path d="M87.9547 153.317C87.8982 156.66 87.8227 159.984 87.7662 163.328C87.9359 163.611 88.2187 164.046 88.7089 164.461C89.2179 164.877 89.7081 165.103 90.0287 165.217C90.4246 164.386 90.8017 163.498 91.1599 162.572C91.9706 160.494 92.5928 158.53 93.0453 156.717" stroke="#444444" stroke-miterlimit="10" stroke-linecap="round" stroke-linejoin="round"/>
<path d="M292.051 146.044V196.1H280.493C272.895 196.1 266.73 184.899 266.73 171.072C266.73 157.246 272.895 146.044 280.493 146.044H292.051Z" fill="#444444" stroke="#444444" stroke-miterlimit="10" stroke-linecap="round" stroke-linejoin="round"/>
<path d="M292.145 196.1C299.747 196.1 305.909 184.895 305.909 171.072C305.909 157.25 299.747 146.044 292.145 146.044C284.544 146.044 278.382 157.25 278.382 171.072C278.382 184.895 284.544 196.1 292.145 196.1Z" fill="#444444" stroke="#444444" stroke-miterlimit="10" stroke-linecap="round" stroke-linejoin="round"/>
<path d="M292.145 189.886C289.28 189.886 286.583 187.883 284.604 184.276C282.662 180.743 281.587 176.059 281.587 171.072C281.587 166.086 282.662 161.401 284.604 157.869C286.602 154.242 289.28 152.259 292.145 152.259C295.011 152.259 297.707 154.261 299.687 157.869C301.629 161.401 302.704 166.086 302.704 171.072C302.704 176.059 301.629 180.743 299.687 184.276C297.707 187.902 295.011 189.886 292.145 189.886Z" fill="#747CA5"/>
<path d="M292.145 152.731C297.707 152.731 302.232 160.948 302.232 171.072C302.232 181.197 297.707 189.413 292.145 189.413C286.583 189.413 282.058 181.197 282.058 171.072C282.058 160.948 286.583 152.731 292.145 152.731ZM292.145 151.787C289.091 151.787 286.263 153.864 284.189 157.642C282.209 161.25 281.116 166.01 281.116 171.072C281.116 176.134 282.209 180.894 284.189 184.502C286.263 188.28 289.091 190.358 292.145 190.358C295.2 190.358 298.028 188.28 300.102 184.502C302.081 180.894 303.175 176.134 303.175 171.072C303.175 166.01 302.081 161.25 300.102 157.642C298.028 153.864 295.2 151.787 292.145 151.787Z" fill="#444444"/>
<path d="M283.095 164.272C284.792 165.594 286.489 166.917 288.186 168.239C288.431 167.956 288.695 167.578 288.94 167.106C289.317 166.369 289.449 165.689 289.506 165.217C289.28 163.932 288.921 162.459 288.375 160.872C287.79 159.172 287.13 157.737 286.489 156.528" stroke="white" stroke-miterlimit="10" stroke-linecap="round" stroke-linejoin="round"/>
<path d="M282.718 176.55C284.472 175.662 286.244 174.793 287.997 173.906C288.299 174.264 288.638 174.774 288.94 175.417C289.28 176.153 289.43 176.814 289.506 177.306C289.11 178.477 288.563 179.837 287.809 181.272C287.055 182.689 286.282 183.879 285.546 184.861" stroke="white" stroke-miterlimit="10" stroke-linecap="round" stroke-linejoin="round"/>
<path d="M292.334 189.206C292.39 185.938 292.466 182.651 292.522 179.383C292.673 179.119 292.918 178.779 293.277 178.439C293.691 178.042 294.106 177.816 294.408 177.683C294.804 178.439 295.181 179.27 295.539 180.139C296.444 182.311 297.029 184.37 297.424 186.183" stroke="white" stroke-miterlimit="10" stroke-linecap="round" stroke-linejoin="round"/>
<path d="M301.384 176.55C300.611 176.191 299.8 175.738 298.933 175.228C298.103 174.718 297.349 174.208 296.67 173.717C296.519 173.263 296.331 172.621 296.293 171.828C296.237 170.959 296.369 170.241 296.482 169.75C296.934 169.372 297.424 168.994 297.99 168.617C299.272 167.748 300.498 167.162 301.572 166.728" stroke="white" stroke-miterlimit="10" stroke-linecap="round" stroke-linejoin="round"/>
<path d="M292.899 153.317C292.843 156.66 292.768 159.984 292.711 163.328C292.881 163.611 293.163 164.046 293.654 164.461C294.163 164.877 294.653 165.103 294.973 165.217C295.369 164.386 295.746 163.498 296.105 162.572C296.915 160.494 297.538 158.53 297.99 156.717" stroke="white" stroke-miterlimit="10" stroke-linecap="round" stroke-linejoin="round"/>
<path d="M165.068 179.497C164.88 179.497 164.691 179.497 164.484 179.478H61.1818C61.163 179.478 61.163 179.478 61.1441 179.478C58.0709 179.251 56.0535 178.344 55.1108 176.796C54.3566 175.549 54.6206 174.453 54.9788 172.961C55.2993 171.62 55.733 169.769 55.6198 166.954C55.601 166.501 55.5633 166.067 55.5444 165.651C55.4501 164.386 55.3747 163.177 55.6198 161.382C55.8272 159.984 56.1289 159.021 56.3929 158.171C56.4683 157.963 56.5248 157.756 56.5814 157.548C57.2224 155.338 57.2036 154.11 57.1847 152.429C57.1659 151.031 57.147 149.293 57.5053 146.479C57.7315 144.722 58.0709 142.078 59.221 138.829C59.7112 137.431 60.0506 136.789 60.5219 135.882C60.8613 135.24 61.2761 134.447 61.8794 133.124C63.0295 130.593 63.6894 128.78 64.3116 127.023C65.0658 124.87 65.8011 122.849 67.366 119.694C68.1956 118.013 68.6669 117.258 69.1006 116.616C69.685 115.766 70.4015 114.897 71.2122 114.066C72.3435 112.913 73.6256 111.818 75.0773 110.836C76.2652 110.023 77.962 109.003 84.4102 106.434C85.466 106.019 86.3898 105.66 87.2571 105.358C88.181 105.037 88.7278 104.848 89.1237 104.734C89.6139 104.583 89.8213 104.508 90.1984 104.357C91.4428 103.828 92.1404 103.242 93.6675 101.939C93.9126 101.731 94.1766 101.486 94.4783 101.24C95.1193 100.692 95.7981 100.163 96.4391 99.6345C97.1744 99.0489 97.9097 98.4445 98.6262 97.84C101.492 95.3467 106.677 91.5689 113.2 87.2245C123.853 80.1222 129.868 76.2878 135.316 73.7756C145.347 69.1478 156.113 68.6945 175.645 67.8822C181.415 67.6367 187.184 67.5233 192.803 67.5233C204.549 67.5233 213.938 68.0334 221.499 68.4489C243.916 69.6767 253.947 71.5278 262.903 74.1345C268.314 75.7022 273.649 77.61 278.797 79.82C278.891 79.8578 278.966 79.9333 279.023 80.0278C284.679 90.3789 289.261 101.146 292.598 112.007C292.749 112.46 292.881 112.913 293.013 113.367C294.37 117.9 294.766 120.053 295.124 121.961C295.483 123.888 295.765 125.418 296.972 128.837C298.593 133.389 300.385 137.242 301.95 140.642C305.23 147.688 307.813 153.26 307.172 160.948C307.021 162.761 306.701 164.574 306.211 166.331C306.154 166.539 305.965 166.671 305.758 166.671C305.739 166.671 305.72 166.671 305.72 166.671C305.494 166.652 305.306 166.463 305.306 166.237C305.136 164.008 304.891 161.741 304.551 159.474C303.665 153.506 303.194 150.748 301.422 147.952C300.724 146.838 299.253 144.552 296.312 143.022H296.293C295.501 142.607 293.39 141.511 290.92 141.511C290.034 141.511 289.185 141.662 288.393 141.927C286.131 142.72 284.905 144.382 283.34 146.479C281.361 149.161 280.531 151.636 279.645 154.28C278.533 157.586 278.061 160.287 277.401 164.027C277.137 165.538 277.005 166.463 276.855 167.446C276.704 168.447 276.572 169.467 276.27 171.204C275.837 173.698 275.327 176.172 274.762 178.59C274.705 178.798 274.517 178.949 274.309 178.949H201.155C201.004 178.949 200.872 178.892 200.797 178.779C200.721 178.666 200.665 178.514 200.703 178.382C202.249 171.242 203.87 157.699 197.365 147.386C196.14 145.44 193.877 141.832 190.144 141.171C189.748 141.096 189.334 141.058 188.919 141.058C184.507 141.058 180.566 145.138 178.888 146.876C173.138 152.826 171.761 160.457 171.479 162.667C170.442 170.694 169.801 175.568 169.782 176.002C169.82 176.456 169.744 176.928 169.556 177.343C168.877 178.666 167.199 179.497 165.068 179.497Z" fill="#747CA5"/>
<path d="M192.765 67.9578C204.285 67.9578 213.618 68.4678 221.442 68.8833C244.482 70.1489 254.23 72.0756 262.733 74.55C269.445 76.4956 274.875 78.63 278.57 80.2167C285.358 92.6078 289.487 103.601 292.108 112.101C292.258 112.554 292.39 113.008 292.522 113.461C295.275 122.679 294.087 122.188 296.482 128.95C301.365 142.739 307.625 149.52 306.663 160.872C306.456 163.233 306.022 165.103 305.72 166.161C305.607 164.518 305.381 162.176 304.966 159.361C304.099 153.543 303.628 150.578 301.761 147.65C300.988 146.441 299.461 144.099 296.482 142.55C295.652 142.116 293.465 140.963 290.882 140.963C290.015 140.963 289.11 141.096 288.186 141.417C285.773 142.267 284.491 144.023 282.907 146.139C280.927 148.821 280.079 151.258 279.136 154.072C278.024 157.397 277.552 160.06 276.873 163.894C276.327 166.954 276.346 167.616 275.742 171.072C275.195 174.208 274.63 176.758 274.234 178.439H201.08C202.4 172.319 204.643 158.114 197.686 147.083C196.291 144.873 193.991 141.341 190.144 140.661C189.711 140.586 189.258 140.548 188.825 140.548C184.205 140.548 180.208 144.684 178.455 146.517C172.271 152.92 171.083 161.326 170.913 162.572C169.763 171.356 169.197 175.738 169.216 175.983C169.235 176.134 169.254 176.607 169.028 177.117C168.519 178.307 166.973 179.024 165.068 179.024C164.88 179.024 164.691 179.024 164.503 179.006H61.1818C57.5618 178.741 56.1477 177.57 55.5255 176.55C54.2623 174.434 56.3174 172.81 56.0912 166.917C56.0158 165.066 55.7518 163.762 56.0912 161.439C56.3363 159.739 56.7134 158.738 57.0339 157.661C58.2594 153.506 57.1847 152.618 57.9766 146.517C58.2217 144.647 58.5611 142.097 59.6735 138.961C60.503 136.619 60.8613 136.487 62.313 133.294C64.8772 127.703 64.9149 125.644 67.7808 119.883C68.648 118.146 69.1005 117.428 69.4776 116.861C69.7982 116.408 70.4392 115.501 71.5327 114.368C72.4566 113.423 73.701 112.309 75.3224 111.194C76.3971 110.458 77.9997 109.457 84.561 106.85C85.7676 106.378 86.6538 106.038 87.3891 105.792C89.4253 105.074 89.6516 105.056 90.3492 104.772C91.8764 104.13 92.5928 103.412 94.7611 101.561C96.1186 100.409 97.5515 99.3322 98.909 98.1611C103.34 94.3267 111.673 88.7544 113.427 87.5833C124.588 80.1411 130.245 76.59 135.486 74.1722C145.234 69.6767 155.509 69.1667 175.645 68.3167C181.83 68.0522 187.524 67.9578 192.765 67.9578ZM192.765 67.0133V67.9578V67.0133C187.128 67.0133 181.358 67.1456 175.589 67.3722C155.981 68.2033 145.196 68.6567 135.071 73.3222C129.585 75.8533 123.551 79.6878 112.88 86.8089C106.356 91.1722 101.153 94.95 98.2679 97.4622C97.5703 98.0667 96.8162 98.6711 96.0997 99.2567C95.4587 99.7667 94.7799 100.314 94.1389 100.862C93.8372 101.108 93.5733 101.353 93.3282 101.561C91.801 102.883 91.1599 103.412 89.991 103.903C89.6516 104.054 89.4253 104.111 88.954 104.281C88.558 104.413 88.0113 104.602 87.0874 104.923C86.2201 105.226 85.2963 105.584 84.2216 106C77.7358 108.588 76.0012 109.608 74.7945 110.439C73.3239 111.44 72.0041 112.554 70.8728 113.726C70.0433 114.576 69.3079 115.463 68.7046 116.351C68.2521 117.012 67.7808 117.787 66.9512 119.487C65.3674 122.66 64.651 124.7 63.8779 126.872C63.2558 128.61 62.6147 130.423 61.4646 132.936C60.8613 134.239 60.4465 135.032 60.126 135.674C59.6546 136.6 59.2964 137.261 58.8062 138.678C57.6372 141.983 57.2978 144.647 57.0716 146.422C56.6945 149.256 56.7322 151.012 56.7511 152.429C56.7699 154.091 56.7888 155.281 56.1666 157.416C56.11 157.623 56.0346 157.831 55.978 158.039C55.7141 158.908 55.4124 159.89 55.205 161.326C54.9411 163.158 55.0353 164.386 55.1108 165.689C55.1485 166.104 55.1673 166.52 55.1862 166.973C55.2993 169.731 54.8845 171.469 54.564 172.867C54.2058 174.416 53.9041 175.643 54.7525 177.06C55.7706 178.76 57.92 179.742 61.1441 179.969C61.1629 179.969 61.1818 179.969 61.2195 179.969H164.503C164.71 179.988 164.899 179.988 165.087 179.988C167.406 179.988 169.254 179.043 169.914 177.513C170.121 177.041 170.215 176.512 170.178 175.983C170.215 175.398 170.838 170.6 171.875 162.723C172.082 161.174 173.364 153.203 179.152 147.197C180.793 145.497 184.639 141.511 188.843 141.511C189.239 141.511 189.616 141.549 189.993 141.606C193.519 142.229 195.631 145.591 196.894 147.593C203.305 157.774 201.702 171.167 200.156 178.25C200.099 178.533 200.156 178.817 200.344 179.043C200.514 179.27 200.797 179.402 201.08 179.402H274.234C274.668 179.402 275.045 179.1 275.158 178.684C275.742 176.248 276.251 173.754 276.685 171.261C276.987 169.523 277.137 168.484 277.269 167.483C277.401 166.501 277.533 165.594 277.816 164.083C278.495 160.211 278.947 157.661 280.041 154.393C280.908 151.787 281.738 149.331 283.68 146.724C285.188 144.684 286.376 143.079 288.507 142.323C289.261 142.059 290.053 141.927 290.882 141.927C293.239 141.927 295.275 142.984 296.029 143.4H296.048C298.857 144.873 300.29 147.102 300.969 148.179C302.704 150.899 303.156 153.619 304.042 159.512C304.382 161.76 304.627 164.027 304.797 166.237C304.834 166.69 305.192 167.068 305.645 167.106C305.683 167.106 305.702 167.106 305.739 167.106C306.154 167.106 306.531 166.822 306.644 166.407C307.134 164.631 307.455 162.799 307.625 160.948C308.285 153.128 305.664 147.499 302.364 140.397C300.781 137.016 299.008 133.162 297.387 128.629C296.199 125.248 295.916 123.737 295.558 121.829C295.219 120.016 294.804 117.749 293.446 113.178C293.333 112.781 293.182 112.29 293.031 111.818C289.675 100.938 285.094 90.1522 279.419 79.7633C279.325 79.5744 279.155 79.4233 278.966 79.3478C273.8 77.1378 268.446 75.2111 263.016 73.6433C254.041 71.0367 243.973 69.1667 221.518 67.9389C213.938 67.5233 204.511 67.0133 192.765 67.0133Z" fill="#444444"/>
<path opacity="0.24" d="M74.2855 123.944C76.6045 120.412 80.4696 115.388 86.4464 110.817C94.0823 104.98 101.36 102.959 104.923 101.75C131.036 92.9667 183.149 99.7289 182.885 104.111C182.735 106.661 164.597 104.508 127.643 110.911C104.867 114.859 86.503 120.053 74.2855 123.944Z" fill="#444444"/>
<path opacity="0.24" d="M150.343 179.006H61.1818C57.5618 178.741 56.1477 177.57 55.5255 176.55C54.2623 174.434 56.3174 172.81 56.0912 166.917C56.0158 165.066 55.7518 163.762 56.0912 161.439C56.3363 159.739 56.7134 158.738 57.0339 157.661C58.2594 153.506 57.1847 152.618 57.9766 146.517C58.2217 144.647 58.5611 142.097 59.6735 138.961C60.503 136.619 60.8613 136.487 62.313 133.294C64.8772 127.703 64.9149 125.644 67.7808 119.883C68.648 118.146 69.1005 117.428 69.4776 116.861C69.7981 116.408 70.4392 115.501 71.5327 114.368C71.2311 116.483 70.9294 119.487 70.986 123.094C70.986 123.586 71.3065 134.749 75.4167 143.211C79.0178 150.597 85.3905 155.678 97.8531 161.911C109.034 167.502 126.53 174.756 150.343 179.006Z" fill="#444444"/>
<path opacity="0.24" d="M306.663 160.872C306.456 163.233 306.022 165.103 305.72 166.161C305.607 164.518 305.381 162.157 304.966 159.361C304.099 153.543 303.628 150.578 301.761 147.65C300.988 146.441 299.461 144.099 296.482 142.55C295.388 141.983 291.881 140.132 288.186 141.417C285.773 142.267 284.472 144.023 282.907 146.139C280.927 148.821 280.079 151.258 279.136 154.072C278.024 157.397 277.552 160.06 276.873 163.894C276.327 166.954 276.346 167.616 275.742 171.072C275.195 174.208 274.63 176.758 274.234 178.439H201.08C202.4 172.319 204.624 158.114 197.686 147.083C196.291 144.873 193.991 141.341 190.144 140.661C184.997 139.754 180.378 144.514 178.455 146.517C172.271 152.92 171.083 161.307 170.913 162.572C169.763 171.356 169.197 175.738 169.216 175.983C169.235 176.134 169.254 176.607 169.028 177.117C168.462 178.42 166.652 179.157 164.503 179.006H156.584C156.886 169.75 161.033 159.588 163.748 152.939C167.915 142.72 172.497 131.481 183.168 128.194C184.714 127.722 190.766 125.852 196.743 128.572C208.056 133.71 203.682 148.179 214.655 156.15C226.778 164.971 245.726 157.189 247.272 156.528C250.61 155.111 255.832 152.882 260.093 147.65C268.106 137.828 263.11 129.233 269.709 120.828C274.686 114.462 284.245 110.854 292.108 112.101C292.258 112.554 292.39 113.008 292.522 113.461C295.275 122.679 294.087 122.188 296.482 128.95C301.365 142.739 307.625 149.52 306.663 160.872Z" fill="#444444"/>
<path d="M57.0339 154.45C60.9178 158.776 62.2565 160.891 62.6901 162.006C62.7844 162.27 63.1238 163.196 64.0099 163.894C64.7264 164.442 65.4617 164.593 65.7068 164.65C77.4906 167.03 93.611 166.539 93.611 166.539C93.611 166.539 118.404 165.764 125.852 165.028C126.436 164.971 127.379 164.839 128.491 164.461C129.566 164.102 130.301 163.668 130.565 163.517C133.751 161.666 137.108 160.079 140.181 158.039C142.933 156.226 148.684 154.204 162.052 153.506C160.128 157.888 158.997 161.288 158.281 163.706C157.847 165.179 157.338 167.068 155.641 168.428C154.585 169.278 153.529 169.542 151.682 169.939C145.535 171.28 143.952 171.45 143.952 171.45C137.108 172.149 133.695 172.508 131.885 172.583C117.857 173.15 107.337 173.056 93.7995 173.339C93.7995 173.339 80.5262 173.622 65.7068 172.017C62.5016 171.677 60.126 170.864 58.7308 170.317C58.1651 170.09 57.7126 169.882 57.411 169.75C56.9585 167.786 56.5625 165.349 56.4683 162.572C56.3551 159.399 56.6379 156.641 57.0339 154.45Z" fill="#444444" stroke="#444444" stroke-miterlimit="10" stroke-linecap="round" stroke-linejoin="round"/>
<path d="M122.081 143.683C121.76 142.796 121.459 141.927 121.138 141.039C113.408 140.982 105.678 140.907 97.9474 140.85C97.9474 141.171 97.9474 141.473 97.9474 141.794C95.5529 141.794 93.1773 141.794 90.7828 141.794C90.7828 141.473 90.7828 141.171 90.7828 140.85C84.1839 140.85 77.5849 140.85 70.9859 140.85C70.3638 141.794 69.7227 142.739 69.1005 143.683C69.1005 148.708 70.2883 152.353 71.1745 154.45C71.7967 155.942 72.5885 157.434 74.1911 158.794C75.4544 159.871 77.1513 160.759 81.3557 161.439C83.4485 161.779 85.5602 161.968 91.537 162.006C98.1359 162.043 101.002 161.836 103.038 161.628C107.997 161.137 109.467 160.551 110.391 160.117C113.2 158.776 114.897 156.887 116.236 155.206C117.933 153.052 120.459 149.293 122.081 143.683Z" fill="#999999" stroke="#444444" stroke-miterlimit="10" stroke-linecap="round" stroke-linejoin="round"/>
<path d="M72.6828 134.239C72.6828 133.219 72.6828 132.18 72.6828 131.16C73.305 130.423 73.946 129.687 74.5682 128.95C91.4804 128.95 108.374 128.95 125.286 128.95C126.078 129.743 126.851 130.518 127.643 131.311C126.926 132.218 126.191 133.143 125.474 134.05C116.745 134.05 107.997 134.05 99.2672 134.05C99.2672 133.729 99.2672 133.427 99.2672 133.106C96.6842 133.106 94.12 133.106 91.537 133.106C91.537 133.427 91.537 133.729 91.537 134.05C85.2585 134.107 78.9612 134.182 72.6828 134.239Z" fill="#999999" stroke="#444444" stroke-miterlimit="10" stroke-linecap="round" stroke-linejoin="round"/>
<path d="M90.2172 136.128C89.463 137.016 88.7088 137.884 87.9547 138.772C89.463 138.772 90.9713 138.772 92.4797 138.772C92.4797 139.15 92.4797 139.547 92.4797 139.924C93.7429 139.924 94.9873 139.924 96.2505 139.924C96.2505 139.547 96.2505 139.15 96.2505 138.772C97.3818 138.772 98.513 138.772 99.6443 138.772C100.398 137.884 101.153 137.016 101.907 136.128C100.342 136.128 98.7581 136.128 97.1932 136.128C97.1932 135.75 97.1932 135.372 97.1932 134.994C95.8169 134.994 94.4217 134.994 93.0453 134.994C93.0453 135.372 93.0453 135.75 93.0453 136.128C92.1026 136.128 91.1599 136.128 90.2172 136.128Z" fill="#444444" stroke="#444444" stroke-miterlimit="10" stroke-linecap="round" stroke-linejoin="round"/>
<path d="M67.0266 142.739C67.2528 138.829 67.366 135.656 67.4037 133.483C67.4791 129.611 67.4791 127.722 67.7808 124.794C68.0824 121.81 68.5538 119.373 68.912 117.806C67.102 118.844 62.7278 121.716 60.6162 127.25C59.73 129.554 57.9766 134.144 60.4276 138.206C62.4073 141.473 65.9331 142.474 67.0266 142.739Z" fill="white" stroke="#444444" stroke-miterlimit="10" stroke-linecap="round" stroke-linejoin="round"/>
<path d="M182.603 110.628C178.662 115.898 175.08 120.148 172.007 123.548C169.273 126.57 166.916 128.893 165.068 130.65C163.315 132.312 161.693 133.729 159.412 135.183C157.074 136.676 153.548 138.489 143.386 140.661C139.596 141.473 134.543 142.418 128.491 143.117C129.509 141.039 131.131 138.054 133.582 134.806C142.443 123.019 154.095 118.164 160.166 115.728C163.051 114.576 166.859 113.253 171.479 112.233C174.778 111.497 178.511 110.911 182.603 110.628Z" fill="white" stroke="#444444" stroke-miterlimit="10" stroke-linecap="round" stroke-linejoin="round"/>
<path d="M172.007 123.548C172.403 122.018 172.761 120.053 172.61 117.617C172.459 115.331 171.912 113.499 171.479 112.328C171.479 112.29 171.479 112.271 171.479 112.233C174.778 111.497 178.511 110.911 182.603 110.628C178.662 115.898 175.08 120.148 172.007 123.548Z" fill="#444444" stroke="#444444" stroke-miterlimit="10" stroke-linecap="round" stroke-linejoin="round"/>
<path d="M207.679 75.306C203.663 79.726 200.854 83.636 199.006 86.4505C197.007 89.4916 194.971 92.476 192.972 95.5172C190.88 98.7094 189.692 100.542 187.316 102.128C185.091 103.602 182.98 104.093 181.471 104.395C172.685 106.17 163.994 106.095 162.24 106.095C158.696 106.076 168.82 106.189 145.083 106.473C135.279 106.586 130.395 106.643 123.023 106.662C118.876 106.662 114.181 106.662 109.015 106.643C103.849 106.605 98.1925 106.567 92.1026 106.473C93.0076 105.509 94.3463 104.112 96.062 102.506C100.342 98.4827 104.188 95.8005 111.711 90.606C112.522 90.0394 118.649 85.8083 124.438 82.2571C126.907 80.746 129.434 79.2727 129.434 79.2727C131.055 78.3283 132.413 77.5538 133.393 77.006C143.028 75.9483 153.284 75.1549 164.126 74.7394C170.385 74.4938 176.475 74.4183 182.395 74.4371C191.238 74.4749 199.685 74.796 207.679 75.306Z" fill="white" stroke="#444444" stroke-miterlimit="10" stroke-linecap="round" stroke-linejoin="round"/>
<path opacity="0.24" d="M183.074 78.0445C179.756 78.8189 178.851 79.1967 166.859 82.3889C152.738 86.1667 154.303 85.5433 151.022 86.5445C137.994 90.4922 128.359 95.4978 123.495 98.0667C119.347 100.239 114.407 103.072 109.015 106.642C103.849 106.604 98.1925 106.567 92.1026 106.472C93.0076 105.509 94.3463 104.111 96.062 102.506C100.342 98.4822 104.188 95.8 111.711 90.6056C112.522 90.0389 118.649 85.8078 124.438 82.2567C126.907 80.7456 129.434 79.2722 129.434 79.2722C131.055 78.3278 132.413 77.5533 133.393 77.0056C143.028 75.9478 153.284 75.1545 164.126 74.7389C165.785 74.6822 169.631 74.55 174.59 74.4745C183.017 74.3611 194.217 74.4367 207.584 75.2111C197.026 75.3245 188.768 76.7222 183.074 78.0445Z" fill="#444444"/>
<path d="M277.062 103.639C276.421 103.714 275.761 103.79 275.101 103.846C267.673 104.678 259.886 105.773 251.816 107.19C251.062 107.322 250.289 107.454 249.535 107.605C249.026 107.7 248.498 107.794 247.989 107.889C247.725 107.945 247.461 107.983 247.197 108.04C246.217 108.229 245.255 108.418 244.275 108.606C233.301 110.741 223.007 113.253 213.448 115.954C210.978 116.653 208.565 117.352 206.208 118.07C206.057 118.108 205.925 118.164 205.774 118.202C203.814 116.766 201.834 115.35 199.873 113.914C198.195 112.705 196.517 111.478 194.839 110.269C196.536 106.623 198.27 103.355 199.93 100.503C201.758 97.3676 203.493 94.7043 205.02 92.5131C206.792 89.982 208.32 87.9987 209.677 86.412C212.317 83.3331 214.278 81.7654 215.956 80.6131C220.047 77.8176 223.592 76.7031 224.44 76.4576C228.739 75.1731 232.566 75.2676 236.318 75.3242C237.204 75.3431 237.958 75.3809 238.731 75.4187C239.768 75.4754 240.824 75.5698 242.163 75.702C243.124 75.7965 244.029 75.872 244.934 75.9665C248.875 76.3442 252.231 76.7787 256.303 77.7798C261.413 79.0454 265.372 80.6698 267.654 81.6898C267.842 81.7842 268.012 81.8598 268.182 81.9354C268.464 82.0676 268.728 82.1998 269.011 82.332C271.651 83.5976 273.857 84.8442 275.535 85.902C276.232 88.0176 276.892 90.6998 277.232 93.8354C277.665 97.7265 277.439 101.089 277.062 103.639Z" fill="white" stroke="#444444" stroke-miterlimit="10" stroke-linecap="round" stroke-linejoin="round"/>
<path opacity="0.24" d="M269.03 82.3134C264.807 83.9 258.792 87.0922 254.06 93.4389C250.082 98.7656 248.592 104.206 247.989 107.889C247.725 107.946 247.461 107.983 247.197 108.04C245.594 97.8778 243.973 87.7345 242.351 77.5722C237.581 79.1778 225.873 83.8811 216.521 95.8945C210.111 104.149 207.396 112.517 206.208 118.051C206.057 118.089 205.925 118.146 205.774 118.183C203.814 116.748 201.834 115.331 199.873 113.896C199.402 110.231 199.364 105.547 199.93 100.484C201.758 97.3489 203.493 94.6856 205.02 92.4945C206.793 89.9634 208.32 87.98 209.677 86.3934C212.317 83.3145 214.278 81.7467 215.956 80.5945C220.047 77.7989 223.592 76.6845 224.44 76.4389C228.739 75.1545 232.566 75.2489 236.318 75.3056C237.204 75.3245 237.958 75.3622 238.731 75.4C239.768 75.4567 240.824 75.5511 242.163 75.6833C243.125 75.7778 244.03 75.8533 244.935 75.9478C248.875 76.3256 252.231 76.76 256.304 77.7611C261.413 79.0267 265.372 80.6511 267.654 81.6711C267.842 81.7656 268.012 81.8411 268.182 81.9167C268.483 82.0489 268.747 82.1811 269.03 82.3134Z" fill="#444444"/>
<path d="M213.467 115.936C210.846 116.672 208.301 117.428 205.793 118.183C202.154 115.539 198.497 112.894 194.858 110.25C198.421 102.6 202.136 96.6689 205.039 92.4945C206.811 89.9634 208.339 87.98 209.696 86.3934C210.771 90.6623 211.713 95.4223 212.392 100.617C213.109 106.113 213.429 111.251 213.467 115.936Z" fill="#444444" stroke="#444444" stroke-miterlimit="10" stroke-linecap="round" stroke-linejoin="round"/>
<path d="M238.75 75.4C240.56 81.1611 241.673 86.1667 242.37 90.0389C242.936 93.1367 243.294 95.7622 243.502 97.6134C243.954 101.504 244.199 105.169 244.293 108.588C246.801 108.116 249.309 107.662 251.835 107.19C251.552 102.26 250.855 96.4422 249.365 90.0389C248.121 84.6745 246.556 79.9522 244.972 75.9478C242.879 75.7589 240.805 75.5889 238.75 75.4Z" fill="#444444" stroke="#444444" stroke-miterlimit="10" stroke-linecap="round" stroke-linejoin="round"/>
<path d="M277.062 103.639C276.421 103.714 275.761 103.79 275.101 103.847C274.177 100.277 273.084 96.5556 271.783 92.6834C270.482 88.7734 269.087 85.09 267.673 81.6711C267.861 81.7656 268.031 81.8411 268.201 81.9167C271.217 83.3145 273.687 84.7122 275.554 85.8834C276.251 87.9989 276.911 90.6811 277.251 93.8167C277.665 97.7267 277.439 101.089 277.062 103.639Z" fill="#444444" stroke="#444444" stroke-miterlimit="10" stroke-linecap="round" stroke-linejoin="round"/>
<path d="M208.244 106.472C210.073 106.416 211.883 106.34 213.712 106.283C213.75 105.452 213.919 103.922 214.843 102.317C214.975 102.071 216.257 99.9178 218.803 98.7278C223.61 96.4989 228.795 99.71 230.115 100.617C231.001 101.221 235.262 104.149 234.64 106.85C234.188 108.796 231.454 109.589 227.853 110.628C226.552 111.006 221.895 112.271 209.376 112.328C208.584 112.328 207.924 112.328 207.49 112.328C207.339 112.158 206.265 110.892 206.547 109.117C206.811 107.454 208.037 106.604 208.244 106.472Z" fill="#444444" stroke="#444444" stroke-miterlimit="10" stroke-linecap="round" stroke-linejoin="round"/>
<path d="M147.859 138.33C151.683 137.713 154.346 134.491 153.806 131.134C153.267 127.776 149.729 125.554 145.904 126.171C142.08 126.788 139.417 130.01 139.957 133.368C140.497 136.726 144.035 138.948 147.859 138.33Z" fill="white" stroke="#444444" stroke-miterlimit="10" stroke-linecap="round" stroke-linejoin="round"/>
<path d="M162.795 123.922C164.573 123.635 165.812 122.141 165.562 120.586C165.312 119.031 163.668 118.003 161.889 118.29C160.111 118.577 158.872 120.07 159.122 121.625C159.372 123.18 161.016 124.209 162.795 123.922Z" fill="white" stroke="#444444" stroke-miterlimit="10" stroke-linecap="round" stroke-linejoin="round"/>
<path d="M135.261 140.742C136.32 140.571 137.057 139.682 136.908 138.755C136.76 137.828 135.78 137.215 134.722 137.385C133.663 137.556 132.925 138.446 133.074 139.373C133.223 140.3 134.202 140.913 135.261 140.742Z" fill="white" stroke="#444444" stroke-miterlimit="10" stroke-linecap="round" stroke-linejoin="round"/>
<path d="M62.6901 126.306C62.7844 126.249 64.7452 124.983 66.2724 125.928C66.97 126.362 67.2717 127.061 67.4036 127.439C67.3471 130.839 67.2717 134.239 67.2151 137.639C66.6118 137.922 65.6502 138.243 64.5755 138.017C61.6531 137.374 60.8801 133.2 60.8047 132.728C60.767 132.463 60.0694 128.043 62.6901 126.306Z" fill="white" stroke="#444444" stroke-miterlimit="10" stroke-linecap="round" stroke-linejoin="round"/>
<path d="M67.2151 138.961C66.4044 139.584 65.3108 139.452 64.7641 138.772C64.2739 138.168 64.3304 137.28 64.7641 136.694C65.292 135.996 66.3667 135.788 67.2151 136.317C67.2151 137.204 67.2151 138.073 67.2151 138.961Z" fill="white" stroke="#444444" stroke-miterlimit="10" stroke-linecap="round" stroke-linejoin="round"/>
<path d="M131.319 168.806C131.677 168.239 132.243 167.446 133.016 166.539C136.712 162.27 141.255 160.646 144.894 159.361C149.08 157.888 152.606 157.397 154.887 157.094C156.508 156.887 157.866 156.773 158.846 156.717C158.733 159.021 158.13 163.876 154.51 166.539C153.869 167.011 153.19 167.313 151.87 167.861C149.457 168.881 147.251 169.504 136.976 170.694C136.41 170.751 135.373 170.864 134.147 170.506C132.846 170.128 131.904 169.372 131.319 168.806Z" fill="#999999" stroke="#444444" stroke-miterlimit="10" stroke-linecap="round" stroke-linejoin="round"/>
<path d="M63.0672 170.317C61.9925 171.072 59.994 169.977 58.9193 168.994C57.5618 167.748 57.147 166.218 56.8453 165.028C56.11 162.081 56.5248 159.437 57.0339 157.661C57.9954 158.719 58.7496 159.626 59.2964 160.306C60.8047 162.176 61.5023 163.309 62.8787 165.594C63.3877 166.444 63.8214 167.2 63.8214 168.239C63.8214 168.579 63.8214 169.788 63.0672 170.317Z" fill="#999999" stroke="#444444" stroke-miterlimit="10" stroke-linecap="round" stroke-linejoin="round"/>
<path d="M65.7068 168.994C70.9294 169.712 76.3971 170.298 82.1099 170.694C99.2295 171.866 114.784 171.072 128.303 169.372C128.246 168.673 128.171 167.993 128.114 167.294C114.935 169.146 99.4746 170.09 82.2985 168.806C76.4914 168.371 70.9482 167.729 65.7068 166.917C65.7068 167.616 65.7068 168.296 65.7068 168.994Z" fill="#999999" stroke="#444444" stroke-miterlimit="10" stroke-linecap="round" stroke-linejoin="round"/>
<path d="M249.912 107.983C251.364 114.972 252.552 123.17 252.929 132.35C253.513 146.139 252.099 158.096 250.289 167.483" stroke="#444444" stroke-miterlimit="10" stroke-linecap="round" stroke-linejoin="round"/>
<path d="M275.365 100.9C275.271 100.9 275.177 100.881 275.101 100.824C274.988 100.749 274.931 100.636 274.894 100.522C274.498 98.3878 273.989 96.2345 273.404 94.1378C272.857 92.2489 272.235 90.36 271.538 88.5089C271.462 88.3389 271.519 88.1311 271.651 87.9989C271.745 87.9234 271.858 87.8667 271.971 87.8667C272.028 87.8667 272.103 87.8856 272.16 87.9045L273.857 88.66C273.97 88.7167 274.064 88.8111 274.102 88.9434C274.686 90.6245 275.195 92.3623 275.629 94.0811C276.119 96.0834 276.496 98.1234 276.779 100.182C276.817 100.428 276.647 100.654 276.402 100.711L275.459 100.9C275.422 100.9 275.403 100.9 275.365 100.9Z" fill="#747CA5"/>
<path d="M271.971 88.3389C272.537 88.5845 273.103 88.8489 273.668 89.0945C274.196 90.6434 274.724 92.3434 275.177 94.1945C275.704 96.3667 276.063 98.3878 276.308 100.239C275.987 100.296 275.686 100.371 275.365 100.428C274.988 98.4445 274.517 96.2911 273.857 94.0056C273.272 91.9467 272.631 90.0578 271.971 88.3389ZM271.971 87.3945C271.726 87.3945 271.5 87.4889 271.33 87.6589C271.047 87.9234 270.953 88.32 271.104 88.6789C271.802 90.5111 272.424 92.3811 272.971 94.27C273.555 96.3478 274.064 98.4822 274.46 100.598C274.498 100.843 274.649 101.07 274.856 101.202C275.007 101.316 275.195 101.372 275.384 101.372C275.441 101.372 275.516 101.372 275.572 101.353L276.044 101.259L276.515 101.164C277.005 101.07 277.326 100.617 277.269 100.107C277.005 98.0478 276.609 95.97 276.119 93.9678C275.686 92.23 275.177 90.4734 274.592 88.7734C274.498 88.5278 274.328 88.32 274.083 88.2256L273.235 87.8478L272.386 87.47C272.235 87.4134 272.103 87.3945 271.971 87.3945Z" fill="#444444"/>
<path d="M247.65 123.094C247.612 123.926 247.442 124.624 247.272 125.172C245.764 125.607 244.256 126.06 242.747 126.494C242.314 126.098 241.729 125.474 241.239 124.606C241.126 124.417 241.032 124.228 240.937 124.039C240.523 123.132 240.353 122.32 240.296 121.772C240.711 121.3 241.333 120.733 242.182 120.261C244.256 119.128 246.311 119.373 247.084 119.506C247.291 120.034 247.518 120.79 247.612 121.697C247.668 122.131 247.687 122.603 247.65 123.094Z" fill="#747CA5" stroke="#444444" stroke-miterlimit="10" stroke-linecap="round" stroke-linejoin="round"/>
<path d="M241.503 124.02C241.333 124.02 241.183 123.926 241.088 123.774C240.749 123.132 240.485 122.452 240.353 121.734C240.334 121.602 240.353 121.47 240.447 121.357C240.919 120.752 241.465 120.242 242.088 119.846C243.445 118.977 244.84 118.788 245.783 118.788C246.047 118.788 246.292 118.807 246.556 118.826C246.726 118.844 246.858 118.939 246.933 119.09C247.216 119.713 247.423 120.374 247.555 121.054C247.593 121.243 247.499 121.451 247.329 121.546C246.122 122.263 244.821 122.868 243.502 123.359C242.879 123.586 242.257 123.793 241.635 123.982C241.597 124.02 241.56 124.02 241.503 124.02Z" fill="#444444"/>
<path d="M245.783 119.279C246.085 119.279 246.33 119.298 246.499 119.317C246.707 119.751 246.952 120.393 247.084 121.168C246.028 121.791 244.784 122.414 243.332 122.943C242.691 123.189 242.088 123.378 241.503 123.548C241.088 122.792 240.9 122.112 240.805 121.659C241.126 121.224 241.635 120.714 242.333 120.261C243.615 119.43 244.916 119.279 245.783 119.279ZM245.783 118.334C244.784 118.334 243.275 118.523 241.842 119.449C241.164 119.883 240.579 120.431 240.07 121.073C239.9 121.281 239.844 121.564 239.882 121.829C240.032 122.584 240.296 123.321 240.673 124.001C240.843 124.303 241.164 124.492 241.503 124.492C241.597 124.492 241.673 124.473 241.767 124.454C242.408 124.266 243.049 124.058 243.671 123.831C245.01 123.321 246.33 122.698 247.574 121.98C247.913 121.772 248.102 121.394 248.027 120.998C247.895 120.28 247.687 119.581 247.367 118.92C247.235 118.618 246.933 118.41 246.612 118.372C246.33 118.334 246.066 118.334 245.783 118.334Z" fill="#444444"/>
<path d="M208.244 170.128C225.364 169.278 239.523 168.22 250.289 167.483C254.324 167.2 261.564 166.728 266.692 161.439C268.578 159.493 269.652 157.434 270.275 155.961" stroke="#444444" stroke-miterlimit="10" stroke-linecap="round" stroke-linejoin="round"/>
<path d="M234.452 180.894C232.132 180.857 229.455 180.668 226.533 180.139C224.761 179.818 223.12 179.44 221.631 179.006C228.041 179.006 234.452 179.006 240.862 179.006C238.731 179.629 236.582 180.271 234.452 180.894Z" fill="#CE3434" stroke="#444444" stroke-miterlimit="10" stroke-linecap="round" stroke-linejoin="round"/>
<path d="M156.207 68.8833C156.244 69.1667 178.021 65.1811 208.621 67.3722C215.824 67.8822 221.895 68.6189 226.344 69.2611C231.642 77.0622 237.449 87.6589 241.239 100.994C251.665 137.677 239.542 169.391 234.452 180.894C242.879 180.951 251.288 181.027 259.716 181.083C264.543 173.263 274.422 154.922 274.611 129.706C274.837 99.0111 260.583 77.5155 255.38 70.3944C245.066 68.0333 229.983 65.2944 211.638 64.5389C179.944 63.2355 156.169 68.6 156.207 68.8833Z" fill="#CE3434" stroke="#444444" stroke-miterlimit="10" stroke-linecap="round" stroke-linejoin="round"/>
<path d="M112.465 182.217C115.425 182.443 119.328 182.406 123.778 181.461C126.398 180.913 128.661 180.158 130.565 179.383C121.27 179.383 111.956 179.383 102.661 179.383C105.923 180.328 109.203 181.272 112.465 182.217Z" fill="#CE3434" stroke="#444444" stroke-miterlimit="10" stroke-linecap="round" stroke-linejoin="round"/>
<path d="M112.465 182.217C102.604 181.896 92.7248 181.593 82.8641 181.272C79.9417 175.19 73.2862 159.116 78.1505 140.85C78.9613 137.79 80.4885 132.274 84.561 126.306C91.6501 115.936 99.1918 114.84 112.654 104.961C124.136 96.5178 122.496 94.4778 133.205 86.0722C140.2 80.5944 151.116 73.4356 167.142 67.9389C172.93 67.3533 179.171 66.9378 185.808 66.8056C191.106 66.6922 196.14 66.7867 200.891 66.9945C178.869 71.15 165.615 79.6122 157.527 86.6389C149.4 93.7033 149.909 96.3856 138.107 106.472C127.888 115.218 121.081 118.693 114.539 128.95C110.617 135.108 108.883 140.434 108.506 141.606C103 158.983 109.335 175.398 112.465 182.217Z" fill="#CE3434" stroke="#444444" stroke-miterlimit="10" stroke-linecap="round" stroke-linejoin="round"/>
<path d="M205.756 37.5278C207.32 38.6422 220.009 47.7089 218.011 55.4722C217.219 58.5889 214.315 60.44 211.977 61.7056C195.235 70.7533 176.569 67.9011 172.949 67.1833C162.504 65.0867 155.17 63.6133 151.833 57.3611C147.477 49.22 152.115 37.1311 159.374 31.1056C172.968 19.8289 195.386 30.1233 205.756 37.5278Z" fill="#CE3434" stroke="#444444" stroke-miterlimit="10" stroke-linecap="round" stroke-linejoin="round"/>
<path d="M192.84 43.0622C191.389 44.3089 179.586 54.5089 182.301 62.0644C183.395 65.0867 186.43 66.6733 188.881 67.7122C206.378 75.1544 224.704 70.6022 228.249 69.5444C238.468 66.4844 245.613 64.35 248.366 57.7956C251.948 49.2767 246.217 37.6789 238.43 32.3522C223.837 22.3978 202.475 34.7322 192.84 43.0622Z" fill="#CE3434" stroke="#444444" stroke-miterlimit="10" stroke-linecap="round" stroke-linejoin="round"/>
<path d="M222.762 28.8956C209.979 33.2022 203.135 45.5745 205.774 55.9067C208.584 66.9189 220.952 70.7534 221.555 70.9422" fill="#CE3434"/>
<path d="M222.762 28.8956C209.979 33.2022 203.135 45.5745 205.774 55.9067C208.584 66.9189 220.952 70.7534 221.555 70.9422" stroke="#444444" stroke-miterlimit="10" stroke-linecap="round" stroke-linejoin="round"/>
<path d="M211.845 35.79C220.707 39.1333 226.363 47.2178 225.986 55.5289C225.609 63.7456 219.5 68.8267 218.407 69.7145" fill="#CE3434"/>
<path d="M211.845 35.79C220.707 39.1333 226.363 47.2178 225.986 55.5289C225.609 63.7456 219.5 68.8267 218.407 69.7145" stroke="#444444" stroke-miterlimit="10" stroke-linecap="round" stroke-linejoin="round"/>
</g>
<defs>
<filter id="filter0_d" x="-30" y="-21" width="422" height="264" filterUnits="userSpaceOnUse" color-interpolation-filters="sRGB">
<feFlood flood-opacity="0" result="BackgroundImageFix"/>
<feColorMatrix in="SourceAlpha" type="matrix" values="0 0 0 0 0 0 0 0 0 0 0 0 0 0 0 0 0 0 127 0"/>
<feOffset dy="5"/>
<feGaussianBlur stdDeviation="15"/>
<feColorMatrix type="matrix" values="0 0 0 0 0 0 0 0 0 0 0 0 0 0 0 0 0 0 0.05 0"/>
<feBlend mode="normal" in2="BackgroundImageFix" result="effect1_dropShadow"/>
<feBlend mode="normal" in="SourceGraphic" in2="effect1_dropShadow" result="shape"/>
</filter>
</defs>
</svg>
