<svg width="16" height="16" viewBox="0 0 16 16" fill="none" xmlns="http://www.w3.org/2000/svg">
<path fill-rule="evenodd" clip-rule="evenodd" d="M9.76769 8.00007L15.1339 2.63382C15.6227 2.14507 15.6227 1.35507 15.1339 0.866318C14.6452 0.377568 13.8552 0.377568 13.3664 0.866318L8.00019 6.23257L2.63394 0.866318C2.14519 0.377568 1.35519 0.377568 0.86644 0.866318C0.37769 1.35507 0.37769 2.14507 0.86644 2.63382L6.23269 8.00007L0.86644 13.3663C0.37769 13.8551 0.37769 14.6451 0.86644 15.1338C1.11019 15.3776 1.43019 15.5001 1.75019 15.5001C2.07019 15.5001 2.39019 15.3776 2.63394 15.1338L8.00019 9.76757L13.3664 15.1338C13.6102 15.3776 13.9302 15.5001 14.2502 15.5001C14.5702 15.5001 14.8902 15.3776 15.1339 15.1338C15.6227 14.6451 15.6227 13.8551 15.1339 13.3663L9.76769 8.00007Z" fill="white"/>
</svg>
