<svg width="93" height="33" viewBox="0 0 93 33" fill="none" xmlns="http://www.w3.org/2000/svg">
<path d="M30.945 9H31.845V2.7H30.945V9ZM36.1521 4.185C35.3961 4.185 34.7841 4.464 34.4331 4.95V4.23H33.6051V9H34.4691V6.543C34.4691 5.508 35.0631 4.959 35.9811 4.959C36.8001 4.959 37.2681 5.418 37.2681 6.354V9H38.1321V6.255C38.1321 4.851 37.3131 4.185 36.1521 4.185ZM42.2781 4.185C41.5221 4.185 40.9101 4.464 40.5591 4.95V4.23H39.7311V9H40.5951V6.543C40.5951 5.508 41.1891 4.959 42.1071 4.959C42.9261 4.959 43.3941 5.418 43.3941 6.354V9H44.2581V6.255C44.2581 4.851 43.4391 4.185 42.2781 4.185ZM47.9265 9.054C49.3575 9.054 50.4015 8.037 50.4015 6.615C50.4015 5.193 49.3575 4.185 47.9265 4.185C46.4955 4.185 45.4425 5.193 45.4425 6.615C45.4425 8.037 46.4955 9.054 47.9265 9.054ZM47.9265 8.298C47.0085 8.298 46.3155 7.632 46.3155 6.615C46.3155 5.598 47.0085 4.941 47.9265 4.941C48.8445 4.941 49.5285 5.598 49.5285 6.615C49.5285 7.632 48.8445 8.298 47.9265 8.298ZM54.8395 4.23L53.1655 8.055L51.5275 4.23H50.6275L52.7155 9H53.5975L55.6855 4.23H54.8395ZM58.0794 4.185C57.3144 4.185 56.6034 4.401 56.1084 4.797L56.4684 5.445C56.8374 5.13 57.4134 4.932 57.9804 4.932C58.8354 4.932 59.2584 5.355 59.2584 6.084V6.255H57.8904C56.4684 6.255 55.9734 6.885 55.9734 7.65C55.9734 8.478 56.6574 9.054 57.7374 9.054C58.4844 9.054 59.0154 8.802 59.3034 8.37V9H60.1224V6.12C60.1224 4.815 59.3844 4.185 58.0794 4.185ZM57.8814 8.388C57.2244 8.388 56.8284 8.091 56.8284 7.614C56.8284 7.209 57.0714 6.876 57.9264 6.876H59.2584V7.542C59.0424 8.091 58.5294 8.388 57.8814 8.388ZM64.1333 8.1C63.9533 8.244 63.7103 8.325 63.4583 8.325C62.9813 8.325 62.7113 8.037 62.7113 7.524V4.941H64.0793V4.23H62.7113V3.186H61.8473V4.23H61.0373V4.941H61.8473V7.56C61.8473 8.523 62.3963 9.054 63.3593 9.054C63.7463 9.054 64.1423 8.946 64.4033 8.721L64.1333 8.1ZM65.8799 3.312C66.2219 3.312 66.4649 3.06 66.4649 2.736C66.4649 2.43 66.2129 2.187 65.8799 2.187C65.5469 2.187 65.2949 2.439 65.2949 2.754C65.2949 3.069 65.5469 3.312 65.8799 3.312ZM65.4479 9H66.3119V4.23H65.4479V9ZM71.3366 4.23L69.6626 8.055L68.0246 4.23H67.1246L69.2126 9H70.0946L72.1826 4.23H71.3366ZM77.1681 6.642C77.1681 5.175 76.1871 4.185 74.8101 4.185C73.4331 4.185 72.4161 5.202 72.4161 6.615C72.4161 8.037 73.4421 9.054 74.9811 9.054C75.7731 9.054 76.4301 8.784 76.8621 8.28L76.3851 7.722C76.0341 8.109 75.5661 8.298 75.0081 8.298C74.0631 8.298 73.3881 7.74 73.2801 6.903H77.1501C77.1591 6.822 77.1681 6.714 77.1681 6.642ZM74.8101 4.914C75.6471 4.914 76.2501 5.481 76.3401 6.282H73.2801C73.3701 5.472 73.9821 4.914 74.8101 4.914ZM30.945 20H33.6C35.625 20 37.002 18.722 37.002 16.85C37.002 14.978 35.625 13.7 33.6 13.7H30.945V20ZM31.845 19.217V14.483H33.546C35.103 14.483 36.102 15.437 36.102 16.85C36.102 18.263 35.103 19.217 33.546 19.217H31.845ZM42.5655 17.642C42.5655 16.175 41.5845 15.185 40.2075 15.185C38.8305 15.185 37.8135 16.202 37.8135 17.615C37.8135 19.037 38.8395 20.054 40.3785 20.054C41.1705 20.054 41.8275 19.784 42.2595 19.28L41.7825 18.722C41.4315 19.109 40.9635 19.298 40.4055 19.298C39.4605 19.298 38.7855 18.74 38.6775 17.903H42.5475C42.5565 17.822 42.5655 17.714 42.5655 17.642ZM40.2075 15.914C41.0445 15.914 41.6475 16.481 41.7375 17.282H38.6775C38.7675 16.472 39.3795 15.914 40.2075 15.914ZM47.0524 15.23L45.3784 19.055L43.7404 15.23H42.8404L44.9284 20H45.8104L47.8984 15.23H47.0524ZM52.8839 17.642C52.8839 16.175 51.9029 15.185 50.5259 15.185C49.1489 15.185 48.1319 16.202 48.1319 17.615C48.1319 19.037 49.1579 20.054 50.6969 20.054C51.4889 20.054 52.1459 19.784 52.5779 19.28L52.1009 18.722C51.7499 19.109 51.2819 19.298 50.7239 19.298C49.7789 19.298 49.1039 18.74 48.9959 17.903H52.8659C52.8749 17.822 52.8839 17.714 52.8839 17.642ZM50.5259 15.914C51.3629 15.914 51.9659 16.481 52.0559 17.282H48.9959C49.0859 16.472 49.6979 15.914 50.5259 15.914ZM54.0836 20H54.9476V13.322H54.0836V20ZM58.6403 20.054C60.0713 20.054 61.1153 19.037 61.1153 17.615C61.1153 16.193 60.0713 15.185 58.6403 15.185C57.2093 15.185 56.1563 16.193 56.1563 17.615C56.1563 19.037 57.2093 20.054 58.6403 20.054ZM58.6403 19.298C57.7223 19.298 57.0293 18.632 57.0293 17.615C57.0293 16.598 57.7223 15.941 58.6403 15.941C59.5583 15.941 60.2423 16.598 60.2423 17.615C60.2423 18.632 59.5583 19.298 58.6403 19.298ZM64.8392 15.185C64.1372 15.185 63.5252 15.455 63.1382 15.986V15.23H62.3102V21.746H63.1742V19.28C63.5702 19.793 64.1642 20.054 64.8392 20.054C66.2342 20.054 67.2512 19.082 67.2512 17.615C67.2512 16.157 66.2342 15.185 64.8392 15.185ZM64.7672 19.298C63.8582 19.298 63.1652 18.632 63.1652 17.615C63.1652 16.607 63.8582 15.941 64.7672 15.941C65.6852 15.941 66.3782 16.607 66.3782 17.615C66.3782 18.632 65.6852 19.298 64.7672 19.298ZM74.412 15.185C73.602 15.185 72.936 15.527 72.576 16.067C72.261 15.473 71.649 15.185 70.92 15.185C70.2 15.185 69.615 15.455 69.273 15.941V15.23H68.445V20H69.309V17.543C69.309 16.508 69.876 15.959 70.74 15.959C71.523 15.959 71.973 16.418 71.973 17.354V20H72.837V17.543C72.837 16.508 73.404 15.959 74.268 15.959C75.051 15.959 75.501 16.418 75.501 17.354V20H76.365V17.255C76.365 15.851 75.573 15.185 74.412 15.185ZM82.2921 17.642C82.2921 16.175 81.3111 15.185 79.9341 15.185C78.5571 15.185 77.5401 16.202 77.5401 17.615C77.5401 19.037 78.5661 20.054 80.1051 20.054C80.8971 20.054 81.5541 19.784 81.9861 19.28L81.5091 18.722C81.1581 19.109 80.6901 19.298 80.1321 19.298C79.1871 19.298 78.5121 18.74 78.4041 17.903H82.2741C82.2831 17.822 82.2921 17.714 82.2921 17.642ZM79.9341 15.914C80.7711 15.914 81.3741 16.481 81.4641 17.282H78.4041C78.4941 16.472 79.1061 15.914 79.9341 15.914ZM86.0389 15.185C85.2829 15.185 84.6709 15.464 84.3199 15.95V15.23H83.4919V20H84.3559V17.543C84.3559 16.508 84.9499 15.959 85.8679 15.959C86.6869 15.959 87.1549 16.418 87.1549 17.354V20H88.0189V17.255C88.0189 15.851 87.1999 15.185 86.0389 15.185ZM92.0298 19.1C91.8498 19.244 91.6068 19.325 91.3548 19.325C90.8778 19.325 90.6078 19.037 90.6078 18.524V15.941H91.9758V15.23H90.6078V14.186H89.7438V15.23H88.9338V15.941H89.7438V18.56C89.7438 19.523 90.2928 20.054 91.2558 20.054C91.6428 20.054 92.0388 19.946 92.2998 19.721L92.0298 19.1ZM35.31 29.866C34.86 30.154 34.365 30.271 33.834 30.271C32.385 30.271 31.332 29.236 31.332 27.85C31.332 26.446 32.385 25.429 33.843 25.429C34.554 25.429 35.148 25.654 35.67 26.158L36.228 25.6C35.652 24.961 34.806 24.628 33.807 24.628C31.854 24.628 30.432 25.987 30.432 27.85C30.432 29.713 31.854 31.072 33.789 31.072C34.671 31.072 35.544 30.802 36.174 30.271V27.814H35.31V29.866ZM38.5991 27.031V26.23H37.7711V31H38.6351V28.624C38.6351 27.58 39.2111 27.013 40.1381 27.013C40.2011 27.013 40.2641 27.013 40.3361 27.022V26.185C39.4991 26.185 38.9051 26.473 38.5991 27.031ZM43.4001 31.054C44.8311 31.054 45.8751 30.037 45.8751 28.615C45.8751 27.193 44.8311 26.185 43.4001 26.185C41.9691 26.185 40.9161 27.193 40.9161 28.615C40.9161 30.037 41.9691 31.054 43.4001 31.054ZM43.4001 30.298C42.4821 30.298 41.7891 29.632 41.7891 28.615C41.7891 27.598 42.4821 26.941 43.4001 26.941C44.3181 26.941 45.0021 27.598 45.0021 28.615C45.0021 29.632 44.3181 30.298 43.4001 30.298ZM50.652 26.23V28.696C50.652 29.722 50.076 30.28 49.176 30.28C48.357 30.28 47.889 29.812 47.889 28.876V26.23H47.025V28.975C47.025 30.379 47.844 31.054 49.077 31.054C49.752 31.054 50.346 30.775 50.697 30.28V31H51.516V26.23H50.652ZM55.6898 26.185C54.9878 26.185 54.3758 26.455 53.9888 26.986V26.23H53.1608V32.746H54.0248V30.28C54.4208 30.793 55.0148 31.054 55.6898 31.054C57.0848 31.054 58.1018 30.082 58.1018 28.615C58.1018 27.157 57.0848 26.185 55.6898 26.185ZM55.6178 30.298C54.7088 30.298 54.0158 29.632 54.0158 28.615C54.0158 27.607 54.7088 26.941 55.6178 26.941C56.5358 26.941 57.2288 27.607 57.2288 28.615C57.2288 29.632 56.5358 30.298 55.6178 30.298Z" fill="white"/>
<g clip-path="url(#clip0)">
<path d="M25 13.663C25 6.66524 19.4077 1 12.5 1C11.8118 1 11.1324 1.05295 10.4704 1.16766V10.548C10.4704 12.2775 9.08537 13.6718 7.38676 13.6718H4.05923V13.663C4.05923 11.3598 4.95645 9.27726 6.41115 7.74182V2.59721C2.58711 4.768 0 8.90663 0 13.663V13.6718V17.7839H8.20557C11.6986 17.7839 14.5296 14.916 14.5296 11.3775V5.35924C18.2143 6.27697 20.9408 9.64788 20.9408 13.663V13.6718H18.5889C18.5889 15.9397 20.4094 17.7839 22.6481 17.7839H25V13.6718V13.663Z" fill="white"/>
<path d="M22.0383 20.7842C22.0383 23.0521 20.2178 24.8964 17.9791 24.8964H2.96167C2.96167 22.6285 4.78223 20.7842 7.0209 20.7842H22.0383Z" fill="white"/>
<path d="M20.8534 20.7842C20.8534 23.0521 19.0329 24.8964 16.7942 24.8964H4.14612C4.14612 22.6285 5.96668 20.7842 8.20535 20.7842H20.8534Z" fill="white"/>
<path d="M19.0765 27.8967C19.0765 30.1645 17.256 32.0088 15.0173 32.0088H5.92322C5.92322 29.741 7.74378 27.8967 9.98245 27.8967H19.0765Z" fill="white"/>
<path d="M17.8657 27.8967C17.8657 30.1645 16.0452 32.0088 13.8065 32.0088H7.13403C7.13403 29.741 8.95459 27.8967 11.1933 27.8967H17.8657Z" fill="white"/>
<path d="M19.8695 5.06803C23.92 8.72132 24.8346 13.5659 25.0001 16.3368V13.6718V13.663C25.0001 6.66524 19.4078 1 12.5001 1C11.8207 1 11.15 1.05295 10.5054 1.15884C12.0036 1.26473 16.2022 1.7589 19.8695 5.06803Z" fill="white"/>
</g>
<defs>
<clipPath id="clip0">
<rect width="25" height="31" fill="white" transform="translate(0 1)"/>
</clipPath>
</defs>
</svg>
