<svg width="25" height="24" viewBox="0 0 25 24" fill="none" xmlns="http://www.w3.org/2000/svg">
<path fill-rule="evenodd" clip-rule="evenodd" d="M12.4998 2.99988C15.0808 2.99988 17.3548 4.66088 18.1748 7.04488C20.6138 7.37588 22.4998 9.47188 22.4998 11.9999C22.4998 13.2209 22.0558 14.3959 21.2498 15.3089C21.0518 15.5319 20.7768 15.6469 20.4998 15.6469C20.2648 15.6469 20.0288 15.5649 19.8378 15.3969C19.4248 15.0299 19.3848 14.3989 19.7508 13.9839C20.2338 13.4379 20.4998 12.7319 20.4998 11.9999C20.4998 10.3459 19.1538 8.99988 17.4998 8.99988H17.3998C16.9238 8.99988 16.5138 8.66388 16.4198 8.19688C16.0458 6.34488 14.3978 4.99988 12.4998 4.99988C10.6028 4.99988 8.95382 6.34488 8.58082 8.19688C8.48682 8.66388 8.07582 8.99988 7.59982 8.99988H7.49982C5.84582 8.99988 4.49982 10.3459 4.49982 11.9999C4.49982 12.7319 4.76582 13.4379 5.24982 13.9839C5.61482 14.3989 5.57582 15.0299 5.16182 15.3969C4.74682 15.7629 4.11582 15.7219 3.75082 15.3089C2.94382 14.3959 2.49982 13.2209 2.49982 11.9999C2.49982 9.47188 4.38582 7.37588 6.82482 7.04488C7.64582 4.66088 9.91982 2.99988 12.4998 2.99988ZM13.5002 17.6438L14.8052 16.3838C15.2032 16.0008 15.8362 16.0118 16.2192 16.4088C16.6032 16.8068 16.5922 17.4398 16.1952 17.8228L13.1952 20.7198C13.0002 20.9058 12.7502 20.9998 12.5002 20.9998C12.2442 20.9998 11.9882 20.9028 11.7932 20.7068L8.79322 17.7068C8.40222 17.3168 8.40222 16.6838 8.79322 16.2928C9.18322 15.9028 9.81622 15.9028 10.2072 16.2928L11.5002 17.5858V11.9998C11.5002 11.4468 11.9482 10.9998 12.5002 10.9998C13.0522 10.9998 13.5002 11.4468 13.5002 11.9998V17.6438Z" fill="white"/>
<mask id="mask0" mask-type="alpha" maskUnits="userSpaceOnUse" x="2" y="2" width="21" height="19">
<path fill-rule="evenodd" clip-rule="evenodd" d="M12.4998 2.99988C15.0808 2.99988 17.3548 4.66088 18.1748 7.04488C20.6138 7.37588 22.4998 9.47188 22.4998 11.9999C22.4998 13.2209 22.0558 14.3959 21.2498 15.3089C21.0518 15.5319 20.7768 15.6469 20.4998 15.6469C20.2648 15.6469 20.0288 15.5649 19.8378 15.3969C19.4248 15.0299 19.3848 14.3989 19.7508 13.9839C20.2338 13.4379 20.4998 12.7319 20.4998 11.9999C20.4998 10.3459 19.1538 8.99988 17.4998 8.99988H17.3998C16.9238 8.99988 16.5138 8.66388 16.4198 8.19688C16.0458 6.34488 14.3978 4.99988 12.4998 4.99988C10.6028 4.99988 8.95382 6.34488 8.58082 8.19688C8.48682 8.66388 8.07582 8.99988 7.59982 8.99988H7.49982C5.84582 8.99988 4.49982 10.3459 4.49982 11.9999C4.49982 12.7319 4.76582 13.4379 5.24982 13.9839C5.61482 14.3989 5.57582 15.0299 5.16182 15.3969C4.74682 15.7629 4.11582 15.7219 3.75082 15.3089C2.94382 14.3959 2.49982 13.2209 2.49982 11.9999C2.49982 9.47188 4.38582 7.37588 6.82482 7.04488C7.64582 4.66088 9.91982 2.99988 12.4998 2.99988ZM13.5002 17.6438L14.8052 16.3838C15.2032 16.0008 15.8362 16.0118 16.2192 16.4088C16.6032 16.8068 16.5922 17.4398 16.1952 17.8228L13.1952 20.7198C13.0002 20.9058 12.7502 20.9998 12.5002 20.9998C12.2442 20.9998 11.9882 20.9028 11.7932 20.7068L8.79322 17.7068C8.40222 17.3168 8.40222 16.6838 8.79322 16.2928C9.18322 15.9028 9.81622 15.9028 10.2072 16.2928L11.5002 17.5858V11.9998C11.5002 11.4468 11.9482 10.9998 12.5002 10.9998C13.0522 10.9998 13.5002 11.4468 13.5002 11.9998V17.6438Z" fill="white"/>
</mask>
<g mask="url(#mask0)">
<rect x="0.5" width="24" height="24" fill="white"/>
</g>
</svg>
