<svg width="212" height="212" viewBox="0 0 212 212" fill="none" xmlns="http://www.w3.org/2000/svg">
<path d="M77.3407 156.723C76.5163 158.372 75.7507 160.08 74.8478 161.689C72.767 165.321 70.8433 168.991 71.55 173.899C71.9622 167.833 75.417 163.476 77.6156 158.607C81.1293 150.756 82.9156 142.472 84.6233 134.129C84.8982 132.834 85.1337 131.538 85.4085 130.066C87.5285 131.401 88.1567 133.305 87.8426 135.405C86.7433 142.845 85.8404 150.343 84.2307 157.665C83.21 162.298 81.09 166.695 79.4607 171.19C79.343 171.524 79.2252 171.877 79.0682 172.348C81.2667 170.601 85.173 161.277 86.5078 154.191C87.7248 147.713 88.667 141.196 89.7663 134.502C91.003 135.17 91.8078 136.171 91.7685 137.604C91.69 140.136 91.4152 142.648 91.2974 145.181C90.9048 153.72 88.3922 161.787 86.0759 169.914C89.8056 161.12 91.1207 151.717 93.1622 142.452C92.907 144.729 92.75 147.026 92.3967 149.283C91.003 158.352 88.9419 167.264 86.0367 175.98C84.5056 180.573 82.1893 181.908 77.1445 181.24C73.1793 180.71 70.3133 177.648 70.0582 173.624C69.8422 170.366 70.4311 167.343 72.237 164.516C73.9252 161.905 75.3778 159.157 76.9285 156.468C77.0659 156.585 77.2033 156.644 77.3407 156.723Z" fill="white"/>
<path d="M117.581 142.295C119.643 151.521 120.997 160.904 124.825 169.678C124.059 166.97 123.313 164.241 122.509 161.552C120.585 155.054 119.623 148.4 119.309 141.647C119.25 140.568 119.132 139.508 119.014 138.428C118.838 136.74 119.643 135.582 121.213 134.345C121.468 136.21 121.684 137.8 121.88 139.41C122.881 147.654 124.079 155.879 127.121 163.691C128.319 166.773 129.889 169.718 131.303 172.741C131.479 172.662 131.636 172.584 131.813 172.525C131.008 170.562 130.223 168.599 129.418 166.636C126.474 159.491 125.276 151.933 124.216 144.356C123.784 141.255 123.411 138.153 123.097 135.052C122.901 133.128 123.47 131.479 125.394 130.203C125.846 132.441 126.258 134.463 126.65 136.504C128.476 146.005 131.244 155.192 135.837 163.77C136.72 165.419 137.682 167.068 138.291 168.815C138.88 170.503 139.037 172.328 139.331 173.742C139.881 170.228 138.84 166.714 136.917 163.358C135.484 160.865 134.247 158.234 132.932 155.663C133.069 155.584 133.207 155.506 133.344 155.447C134.993 158.293 136.681 161.1 138.251 163.986C139.115 165.576 139.979 167.205 140.47 168.932C141.294 171.72 141.098 174.527 139.802 177.236C137.623 181.77 130.792 182.438 127.534 180.318C126.768 179.827 126.061 178.983 125.728 178.158C122.666 170.346 120.781 162.219 119.289 153.994C118.602 150.088 118.151 146.182 117.581 142.295Z" fill="white"/>
<path d="M92.2789 179.297C92.3182 179.552 92.2985 179.631 92.3378 179.65C96.0674 181.594 97.4415 181.024 97.7752 176.941C98.0304 173.781 97.7556 170.581 97.8145 167.401C97.893 162.887 98.0108 158.352 98.2071 153.837C98.3641 150.225 98.6782 146.633 98.9137 143.041C98.9334 142.629 98.9923 142.236 99.0315 141.706C100.641 142.177 100.896 143.316 100.857 144.611C100.68 151.717 100.484 158.843 100.288 165.949C100.17 170.208 100.013 174.448 99.8756 178.708C99.8756 178.865 99.8952 179.042 99.8756 179.199C99.2278 182.261 99.3063 183.262 95.4197 182.968C93.9474 182.87 92.4556 182.477 91.0226 182.065C89.3541 181.574 88.7259 180.298 89.0793 178.649C89.5897 176.235 90.1393 173.82 90.7871 171.425C93.2211 162.494 94.3008 153.347 95.3411 144.199C95.4589 143.198 95.616 142.158 95.93 141.215C96.0478 140.843 96.676 140.627 97.0686 140.332C97.2649 140.725 97.6182 141.137 97.5986 141.53C97.52 144.062 97.3434 146.594 97.2256 149.126C96.8919 155.898 96.5386 162.69 96.2245 169.462C96.1067 171.877 96.1067 174.311 95.9693 176.745C95.8319 179.179 95.6552 179.277 93.2997 179.297C92.9856 179.297 92.6715 179.297 92.2789 179.297Z" fill="white"/>
<path d="M114.303 140.175C114.637 140.96 115.206 141.706 115.285 142.511C116.58 154.269 118.386 165.91 121.586 177.334C122.528 180.71 121.488 182.045 117.876 182.83C117.66 182.87 117.444 182.889 117.228 182.909C111.987 183.419 111.045 182.634 110.888 177.334C110.554 166.773 110.22 156.213 109.985 145.632C109.965 144.454 110.633 143.257 111.025 142.079C111.064 141.961 111.398 141.942 111.791 141.824C111.987 144.18 112.282 146.398 112.36 148.636C112.596 155.584 112.753 162.533 112.929 169.482C113.008 172.289 112.969 175.096 113.145 177.884C113.322 180.691 113.95 181.064 116.62 180.318C117.267 180.121 117.915 179.886 118.641 179.631C118.445 179.474 118.367 179.395 118.308 179.375C115.187 179.297 115.147 179.297 114.892 176.176C114.755 174.625 114.833 173.055 114.755 171.484C114.284 162.396 113.813 153.288 113.322 144.199C113.283 143.394 113.165 142.59 113.224 141.785C113.263 141.274 113.518 140.764 113.675 140.254C113.891 140.214 114.107 140.195 114.303 140.175Z" fill="white"/>
<path d="M103.095 144.317C104.096 145.063 104.685 145.495 105.352 146.005C106.059 145.534 106.785 145.043 107.806 144.356C107.963 146.398 108.218 148.145 108.218 149.872C108.257 159.628 108.238 169.404 108.238 179.16C108.238 179.591 108.12 180.004 108.022 180.435C107.688 181.908 106.294 183.4 105.372 183.282C104.233 183.144 102.82 181.378 102.761 179.925C102.683 177.707 102.643 175.508 102.663 173.29C102.683 164.712 102.741 156.134 102.8 147.556C102.82 146.614 102.957 145.671 103.095 144.317Z" fill="white"/>
<path d="M112.105 32.7815C113.184 32.4674 114.244 32.1533 115.324 31.8589C115.383 31.9767 115.461 32.0945 115.52 32.2122C112.635 33.2722 109.965 34.607 108.513 37.5319C111.104 34.9015 113.93 32.7422 117.797 32.3693C114.068 34.3519 110.103 36.0793 108.414 40.4763C112.556 34.4108 119.054 32.3889 125.63 30.4456C124.687 31.6233 123.765 32.7815 122.823 33.9593C122.882 34.0574 122.94 34.1556 123.019 34.2537C124.687 33.5274 126.356 32.8011 128.044 32.0945C128.103 32.1926 128.162 32.2908 128.201 32.3889C126.415 33.39 124.648 34.3911 122.587 35.5689C125.139 34.98 127.396 34.45 129.654 33.92C129.673 33.9789 129.693 34.0182 129.713 34.077C126.376 35.4119 122.882 36.4522 119.76 38.1796C116.62 39.9267 113.872 42.3608 110.75 44.3433C113.184 41.7522 115.638 39.1415 117.915 36.727C113.106 39.5145 110.063 44.2059 106.981 48.9563C108.022 46.5615 109.062 44.147 110.103 41.7522C109.985 41.6933 109.847 41.6345 109.73 41.5756C108.277 44.6182 106.824 47.6411 105.352 50.723C103.782 46.4633 102.172 42.0859 98.3445 39.0433C100.759 41.6933 102.408 44.7359 103.271 48.23C100.366 43.2637 96.99 38.7685 92.0433 36.0596C94.5559 38.6115 97.2256 41.3008 99.8756 44.0096C99.7185 44.2059 99.5615 44.3826 99.4045 44.5789C94.7522 39.1808 88.5885 36.4326 81.9144 34.5678C81.9733 34.45 82.0126 34.3126 82.0715 34.1948C84.0737 34.6463 86.0759 35.1174 88.0782 35.5689C88.0978 35.5296 88.0978 35.4708 88.1174 35.4315C86.4882 34.5482 84.8589 33.6648 83.21 32.7619C83.2689 32.6441 83.3082 32.5459 83.367 32.4282C84.8982 33.0563 86.4096 33.6648 87.9407 34.293C87.9996 34.1948 88.0585 34.1163 88.1174 34.0182C87.1948 32.86 86.2722 31.7019 85.3496 30.5437C85.3693 30.4652 85.3889 30.4063 85.4282 30.3278C86.017 30.7204 86.6256 31.113 87.2144 31.5056C87.823 31.8982 88.4119 32.3104 89.197 32.4674C88.8241 32.0552 88.4315 31.643 87.8033 30.9559C93.653 33.39 99.3259 35.4119 102.702 40.9474C101.151 36.3737 97.2059 34.4893 93.1033 32.5263C95.7141 32.6245 98.0304 33.3704 102.447 37.7674C101.937 35.7652 100.7 34.7445 95.5178 32.0552C98.2267 32.5656 100.739 33.4293 102.506 35.8045C105.372 39.6911 105.529 39.6715 108.473 35.7456C109.043 34.98 109.73 34.3126 110.358 33.5863C110.907 33.2919 111.496 33.0367 112.105 32.7815ZM106.942 40.6922C106.864 40.6333 106.805 40.5548 106.726 40.4959C106.294 40.7511 105.843 41.0259 105.47 41.2419C104.901 40.9278 104.43 40.6726 103.566 40.1819C104.312 41.5756 104.822 42.4982 105.45 43.6367C106.039 42.4589 106.491 41.5756 106.942 40.6922Z" fill="white"/>
<path d="M112.105 32.7814C111.496 33.0366 110.907 33.2918 110.299 33.547C109.2 34.3518 108.081 35.137 107.04 36.0007C106.51 36.4325 106.098 37.0214 105.254 37.9244C104.096 36.5896 103.154 35.1763 101.897 34.1555C100.68 33.174 99.1296 32.6048 97.4218 31.6625C98.6585 31.8785 99.5418 32.0355 100.445 32.1925C99.9737 30.6222 100.975 30.9362 101.839 31.0148C103.625 31.1718 105.391 31.4074 107.178 31.3877C108.886 31.3681 110.593 31.0933 112.399 31.1325C111.987 31.3681 111.575 31.6037 110.829 32.0159C111.928 31.8392 112.654 31.7214 113.557 31.584C112.969 32.0944 112.537 32.4281 112.105 32.7814Z" fill="white"/>
<path d="M105.411 86.6648C102.074 84.1129 100.975 80.7366 101.014 76.8892C101.034 74.6907 103.252 72.5511 105.411 72.4922C107.511 72.4529 109.926 74.7692 109.906 76.9481C109.847 80.7955 108.827 84.2503 105.411 86.6648Z" fill="white"/>
<path d="M103.056 61.7548C103.114 62.1474 103.173 62.54 103.252 63.1485C103.468 62.6578 103.605 62.3241 103.801 61.8137C104.861 62.9129 105.941 62.9326 107.08 61.6959C107.237 62.3829 107.335 62.8541 107.531 63.7374C107.61 62.7755 107.649 62.2259 107.688 61.6566C107.826 61.6763 107.983 61.6763 108.12 61.6959C107.963 62.4615 108.061 63.5215 107.59 63.9533C106.53 64.9152 105.195 64.8563 103.841 64.2674C102.604 63.7178 102.741 62.7952 103.056 61.7548Z" fill="white"/>
<path d="M104.39 65.9948C105.195 65.9555 105.666 65.9163 106.314 65.877C105.863 66.8978 108.257 67.3885 106.746 68.5074C106.216 68.9 105.058 68.9589 104.449 68.6644C102.761 67.84 104.96 66.9763 104.39 65.9948Z" fill="white"/>
<path d="M92.5341 84.3093C93.5548 84.1522 94.1241 84.6626 94.3596 85.86C95.0663 89.3344 95.7533 92.8285 96.6563 96.2637C96.9704 97.4219 97.7163 98.6193 98.5996 99.4633C100.425 101.21 102.486 102.702 104.43 104.331C105.117 104.901 105.686 104.96 106.393 104.331C107.767 103.114 109.141 101.878 110.633 100.837C113.086 99.1493 114.382 96.9115 114.814 93.967C115.226 91.1796 115.933 88.4119 116.561 85.6441C116.875 84.2307 117.699 83.9756 119.701 84.4074C120.958 84.6822 120.958 85.3889 120.703 86.4489C119.937 89.6681 119.211 92.907 118.602 96.1459C118.19 98.3444 117.051 99.9737 115.265 101.25C112.301 103.389 109.317 105.509 106.353 107.688C105.607 108.238 105.097 108.179 104.371 107.629C101.701 105.607 99.0315 103.605 96.2833 101.721C94.0652 100.209 92.6911 98.2659 92.1807 95.6356C91.6115 92.6715 90.8655 89.7467 90.2374 86.8022C89.8252 84.8393 90.2767 84.3485 92.5341 84.3093Z" fill="white"/>
<path d="M100.19 91.2581C101.269 93.3388 102.251 95.2233 103.232 97.1077C104.547 96.8918 103.605 94.7914 105.411 94.7718C107.256 94.7522 106.412 96.7544 107.57 97.0881C108.571 95.1448 109.553 93.2211 110.613 91.1796C111.418 91.6899 112.105 92.1218 113.008 92.6911C113.773 90.5907 114.5 88.6277 115.363 86.2329C114.617 93.4566 112.792 99.6007 106.079 102.938C105.706 103.114 105.038 103.016 104.646 102.8C100.013 100.268 97.0882 96.4992 96.3226 91.1796C96.1459 89.9233 95.8122 88.667 95.8319 87.3322C96.4796 89.0596 97.1078 90.8066 97.8144 92.7107C98.7174 92.1611 99.3652 91.7685 100.19 91.2581Z" fill="white"/>
<path d="M127.769 84.1718C126.238 84.5251 124.707 84.8588 123.196 85.2122C123.235 85.3888 123.274 85.5459 123.313 85.7226C124.157 85.5263 125.001 85.2514 125.865 85.1925C126.258 85.1729 127.004 85.5655 127.023 85.7814C127.043 86.2525 126.788 87.0377 126.454 87.1751C125.453 87.5481 124.373 87.7444 123.313 87.8229C122.98 87.8425 122.253 87.1751 122.312 86.9788C122.548 86.1348 122.803 84.9374 123.431 84.6233C124.687 84.0148 126.179 83.897 127.553 83.5829C127.632 83.7792 127.691 83.9755 127.769 84.1718Z" fill="white"/>
<path d="M83.4063 83.6811C84.8589 83.9559 86.4096 84.0148 87.6855 84.6233C88.2744 84.8981 88.2941 86.3311 88.5689 87.2341C87.9996 87.3911 87.45 87.7052 86.9004 87.6855C86.1152 87.6463 85.2711 87.4892 84.5841 87.1555C84.1915 86.9592 84.0541 86.2918 83.7989 85.8207C84.2111 85.6048 84.643 85.1926 85.0356 85.2122C85.9385 85.2515 86.8415 85.5067 87.7444 85.6833C87.7837 85.5459 87.823 85.3889 87.8426 85.2515C86.3311 84.8981 84.8 84.5252 83.2885 84.1718C83.3081 84.0148 83.367 83.8578 83.4063 83.6811Z" fill="white"/>
<path d="M87.1163 97.893C88.3333 97.8341 89.1578 97.7948 89.9822 97.7556C89.9822 97.6574 90.0019 97.5593 90.0019 97.4611C89.0007 97.4022 88.0193 97.3433 86.8611 97.2648C88.8633 96.0478 91.16 96.6759 91.4348 98.4426C91.5133 98.953 91.1993 99.8952 90.8263 100.052C90.0019 100.406 88.9222 101.132 88.137 99.9148C87.8033 99.4044 87.5874 98.8156 87.1163 97.893Z" fill="white"/>
<path d="M123.647 97.9519C122.607 100.739 122.567 100.779 120.703 100.268C119.917 100.052 119.034 99.9345 119.309 98.7567C119.544 97.7556 119.741 96.6956 121.154 96.7741C122.037 96.8133 122.901 96.7741 123.784 96.7741C123.804 96.9311 123.804 97.0881 123.824 97.2452C123.313 97.2844 122.803 97.3433 122.293 97.3826C121.763 97.4219 121.233 97.4415 120.683 97.4807C120.683 97.6378 120.683 97.7948 120.683 97.9519C121.625 97.9519 122.548 97.9519 123.647 97.9519Z" fill="white"/>
<path d="M125.904 89.3148C126.297 90.4533 126.179 91.1796 124.903 91.3366C124.275 91.4152 123.627 91.6311 122.999 91.5918C122.45 91.5722 121.92 91.2778 121.39 91.1207C121.625 90.3944 121.684 89.2166 122.155 89.0203C123.529 88.4314 125.08 88.2155 126.552 87.8426C126.591 87.9996 126.65 88.1566 126.69 88.3137C125.257 88.6866 123.824 89.04 122.391 89.4129C122.43 89.5896 122.469 89.7663 122.528 89.9626C123.627 89.7466 124.727 89.5307 125.904 89.3148Z" fill="white"/>
<path d="M120.742 95.714C120.389 92.7499 121.645 92.2985 125.335 92.6714C124.197 92.9266 123.039 93.1818 121.9 93.437C121.92 93.5351 121.939 93.6333 121.959 93.7314C122.823 93.6136 123.706 93.4959 124.55 93.3977C125.021 95.3999 123.411 96.3225 120.742 95.714Z" fill="white"/>
<path d="M85.0748 89.4718C85.7422 89.5503 86.3115 89.5896 86.9004 89.6877C87.4107 89.7663 87.9211 89.884 88.4315 90.0018C88.4707 89.8252 88.5296 89.6681 88.5689 89.4915C87.1752 89.1185 85.7815 88.7652 84.3092 88.3726C86.1348 87.7444 89.197 88.8044 89.4718 90.0803C89.7859 91.5329 89.3933 91.9452 87.9211 91.69C87.2929 91.5722 86.6648 91.4544 86.017 91.3563C84.9963 91.1796 84.6626 90.63 85.0748 89.4718Z" fill="white"/>
<path d="M86.0759 93.437C87.1359 93.5351 88.0585 93.6333 88.9811 93.7314C89.0007 93.6529 89.0204 93.5548 89.04 93.4762C87.9211 93.221 86.7826 92.9462 85.4281 92.6322C88.1959 91.6703 90.3159 92.8481 90.1393 95.0466C90.1196 95.3607 89.943 95.8122 89.6878 95.9299C88.4118 96.5385 86.2526 95.184 86.0759 93.437Z" fill="white"/>
<path d="M89.0793 101.269C90.63 101.132 91.9256 99.2866 93.0641 101.308C93.2996 101.721 92.8089 103.016 92.3378 103.252C90.6496 104.096 90.1589 102.427 89.0793 101.269Z" fill="white"/>
<path d="M104.174 110.613C105.136 110.456 105.882 110.338 106.844 110.181C106.844 110.888 107.021 111.928 106.746 112.812C106.628 113.184 105.391 113.557 104.901 113.361C103.33 112.753 104.41 111.32 104.174 110.613Z" fill="white"/>
<path d="M121.527 101.171C121.213 101.838 121.134 102.251 120.899 102.408C120.271 102.82 119.564 103.409 118.897 103.389C118.465 103.37 117.797 102.486 117.699 101.917C117.64 101.485 118.327 100.523 118.661 100.523C119.662 100.563 120.644 100.955 121.527 101.171Z" fill="white"/>
<path d="M115.952 106.275C114.912 106.981 114.5 108.65 113.165 107.433C112.419 106.746 111.85 105.647 113.047 104.842C114.735 103.684 114.814 105.725 115.952 106.275Z" fill="white"/>
<path d="M94.6148 106.177C93.7118 105.372 93.0641 104.803 92.2985 104.116C93.3192 103.586 93.3781 101.564 94.9878 102.604C96.7152 103.703 95.1841 104.724 94.6148 106.177Z" fill="white"/>
<path d="M116.58 106.196C115.952 105.195 115.206 104.528 115.206 103.88C115.206 103.35 116.109 102.82 116.62 102.27C117.189 102.859 118.111 103.389 118.229 104.057C118.308 104.567 117.366 105.234 116.58 106.196Z" fill="white"/>
<path d="M108.729 108.67C109.651 111.064 109.612 111.28 107.826 111.928C106.746 109.474 106.962 108.807 109.219 107.767C109.553 108.67 109.867 109.553 110.201 110.436C110.063 110.495 109.946 110.574 109.808 110.633C109.455 109.985 109.082 109.317 108.729 108.67Z" fill="white"/>
<path d="M113.184 108.277C112.164 109.003 111.496 109.474 110.476 110.201C110.279 108.964 110.024 108.061 110.063 107.158C110.083 106.883 111.123 106.334 111.339 106.471C112.007 106.864 112.478 107.551 113.184 108.277Z" fill="white"/>
<path d="M94.7326 106.196C95.9104 105.411 96.5778 104.783 97.3433 104.547C97.5789 104.469 98.5211 105.47 98.4622 105.863C98.3445 106.569 97.6771 107.747 97.3041 107.727C96.5778 107.669 95.8908 106.923 94.7326 106.196Z" fill="white"/>
<path d="M102.133 108.65C101.78 109.278 101.446 109.926 101.093 110.554C100.975 110.515 100.857 110.456 100.739 110.417C101.034 109.573 101.328 108.728 101.623 107.904C103.959 108.571 104.174 109.18 103.075 111.908C101.466 111.457 101.367 111.045 102.133 108.65Z" fill="white"/>
<path d="M97.9126 108.336C98.3837 107.688 98.7567 106.923 99.3455 106.451C99.5811 106.275 100.778 106.785 100.798 107.04C100.857 107.983 100.621 108.925 100.484 109.906C98.8941 109.592 98.5407 108.885 99.0511 107.629C98.8155 107.963 98.5996 108.316 98.3641 108.65C98.2267 108.552 98.0696 108.454 97.9126 108.336Z" fill="white"/>
<path d="M123.824 65.0133C121.704 60.5378 121.782 59.7722 124.393 58.7711C124.216 60.7733 124.04 62.697 123.824 65.0133Z" fill="white"/>
<path d="M87.0378 64.8367C86.8415 62.5989 86.6648 60.7734 86.4882 58.8693C89.1774 59.7134 89.2559 60.4789 87.0378 64.8367Z" fill="white"/>
<path d="M121.841 57.8485C122.018 56.5137 122.155 55.3948 122.312 54.2563C122.45 54.217 122.587 54.1974 122.724 54.1581C123.196 55.2181 123.667 56.2781 124.177 57.4167C123.412 57.5541 122.783 57.6718 121.841 57.8485Z" fill="white"/>
<path d="M86.763 57.397C87.2733 56.1407 87.7248 55.1004 88.1567 54.06C88.2745 54.06 88.3922 54.0796 88.51 54.0796C88.6867 55.277 88.8633 56.4744 89.0793 57.8878C88.2941 57.7111 87.6659 57.5737 86.763 57.397Z" fill="white"/>
<path d="M118.602 132.736C118.21 131.656 117.817 130.537 117.267 128.986C117.954 129.124 118.681 129.065 118.975 129.379C119.957 130.458 119.741 131.676 118.602 132.736Z" fill="white"/>
<path d="M112.753 131.715C113.283 131.931 113.97 132.009 114.303 132.382C115.128 133.364 114.912 134.404 113.852 135.503C113.44 134.424 113.008 133.305 112.576 132.206C112.635 132.048 112.694 131.891 112.753 131.715Z" fill="white"/>
<path d="M93.5745 129.457C93.1034 130.498 92.6322 131.538 92.1415 132.618C91.0815 131.734 91.1208 130.576 91.8471 129.497C92.1022 129.104 92.9267 129.084 93.4763 128.888C93.5156 129.084 93.5548 129.261 93.5745 129.457Z" fill="white"/>
<path d="M116.364 134.09C115.933 132.932 115.52 131.813 114.931 130.203C115.756 130.478 116.463 130.498 116.777 130.851C117.719 131.97 117.542 132.892 116.364 134.09Z" fill="white"/>
<path d="M96.9704 135.562C95.9889 134.659 95.9104 133.501 96.6367 132.363C96.8919 131.97 97.6378 131.911 98.1678 131.715C98.2463 131.852 98.3248 131.99 98.4033 132.127C97.9126 133.246 97.4415 134.384 96.9704 135.562Z" fill="white"/>
<path d="M96.0478 130.262C95.3215 131.891 94.87 132.951 94.3989 134.031C93.3978 133.069 93.2604 131.891 94.2223 130.753C94.4971 130.419 95.243 130.458 96.0478 130.262Z" fill="white"/>
<path d="M137.584 86.3704C138.134 89.3541 138.683 92.3181 139.292 95.6356C139.292 92.1218 139.292 88.9615 139.292 85.8011C139.41 85.7815 139.527 85.7422 139.645 85.7226C140.018 86.5078 140.391 87.293 140.862 88.2548C141.059 86.7237 141.235 85.4281 141.451 83.8185C144.396 92.3181 145.004 100.543 141.726 108.807C142.354 103.134 143.022 97.4611 141.412 91.8078C142.315 100.602 141.883 109.141 136.563 116.679C134.679 119.348 132.48 121.743 129.614 123.47C136.838 115.815 139.724 106.805 138.212 96.4011C138.094 106.864 135.405 116.207 127.121 123.235C133.54 115.56 134.797 106.353 134.934 96.7937C134.149 104.292 132.912 111.653 128.083 117.856C131.204 110.004 132.755 101.878 132.559 93.3978C132.677 94.8896 132.814 96.3815 132.873 97.8733C132.932 99.4437 132.893 100.994 132.893 102.565C133.05 102.565 133.207 102.584 133.364 102.584C133.54 98.8352 133.717 95.0859 133.894 90.9833C135.935 92.0237 136.014 93.5548 136.19 94.9878C136.367 96.4796 136.465 97.9715 136.701 99.4633C136.995 95.1448 135.346 90.7281 137.584 86.3704Z" fill="white"/>
<path d="M81.3256 123.588C76.1041 119.996 72.5707 115.187 70.647 109.16C68.743 103.173 68.8019 97.0881 69.7244 90.944C68.0952 94.9681 68.0167 99.5418 69.3319 109.121C66.2107 103.998 66.1911 91.2581 69.43 84.427C69.6067 85.8796 69.7637 87.1162 69.96 88.5688C70.3722 87.6855 70.7648 86.8807 71.1378 86.0562C71.2163 86.0759 71.2948 86.0955 71.393 86.1151C71.5304 88.7651 71.6481 91.4151 71.7856 94.0651C71.8248 94.0651 71.8837 94.0847 71.923 94.0847C72.3744 91.631 72.8063 89.197 73.2578 86.7433C74.4356 89.8447 74.887 92.8873 74.0822 96.0673C73.8074 97.1273 74.043 98.2855 74.1215 99.424C74.7889 96.6955 74.0822 93.594 76.5359 90.8262C77.9493 94.8699 76.6341 98.7762 77.7137 102.074C77.91 98.9136 78.1259 95.4588 78.3419 92.004C78.3811 92.0236 78.4204 92.0433 78.4596 92.0629C78.7541 96.4992 78.7148 100.994 79.4215 105.372C80.1085 109.651 81.5807 113.832 82.6015 117.699C79.8141 115.638 77.3604 108.061 76.1041 96.7544C74.73 103.801 78.4204 116.109 84.2504 123.451C81.8359 122.351 80.4422 120.604 79.1859 118.779C74.9656 112.654 72.9241 105.843 72.9633 98.3836C72.9633 97.2647 72.9633 96.1262 72.8456 95.027C70.8433 105.961 73.5718 115.501 81.3256 123.588Z" fill="white"/>
<path d="M125.532 119.191C127.18 114.931 128.908 110.691 128.613 105.98C127.239 113.616 124.648 120.585 118.249 125.571C123.254 120.742 125.63 114.716 126.533 107.943C126.434 109.317 126.356 110.691 126.258 112.085C126.376 112.105 126.513 112.105 126.631 112.124C126.906 109.16 127.2 106.196 127.416 103.232C127.612 100.248 127.73 97.2648 127.867 94.3007C128.005 94.3007 128.142 94.3203 128.28 94.3203C128.456 96.2637 128.633 98.2266 128.79 100.131C129.222 96.8722 129.673 93.5744 130.184 89.8251C132.009 100.445 131.244 110.201 125.532 119.191Z" fill="white"/>
<path d="M84.9767 118.151C79.7748 109.671 78.8326 100.504 80.8152 90.9048C81.2274 93.9081 81.62 96.9311 82.0322 99.9541C82.15 99.2081 82.307 98.4229 82.3855 97.6378C82.4641 96.774 82.4641 95.9103 82.5033 95.0466C82.6604 95.027 82.7978 95.027 82.9548 95.0074C83.3278 100.602 83.7007 106.216 84.0737 111.81C84.2504 111.81 84.4467 111.791 84.6233 111.791C84.5252 110.044 84.427 108.277 84.3289 106.53C85.0552 115.089 87.7837 120.761 93.2996 125.708C93.2211 125.826 93.123 125.944 93.0444 126.061C91.9452 125.159 90.6693 124.393 89.7663 123.313C86.017 118.779 83.7596 113.518 82.7192 107.747C82.5622 106.903 82.4248 106.059 82.0518 105.234C82.1696 106.667 82.1892 108.12 82.4052 109.533C82.6407 111.025 82.9744 112.497 83.4063 113.93C83.8185 115.403 84.4467 116.757 84.9767 118.151Z" fill="white"/>
<path d="M101.426 120.212C101.23 118.583 101.034 116.953 100.837 115.324C101.034 115.285 101.23 115.246 101.426 115.206C101.74 115.599 102.054 116.011 102.094 116.07C102.957 116.129 103.644 115.972 104.037 116.247C105.019 116.934 105.843 116.836 106.805 116.227C107.217 115.972 107.865 116.109 108.414 116.07C108.434 116.227 108.434 116.384 108.454 116.521C108.807 116.05 109.16 115.599 109.514 115.128C109.651 115.187 109.808 115.226 109.946 115.285C109.946 116.855 109.946 118.445 109.946 119.819C110.26 118.759 110.672 117.464 111.064 116.149C111.28 121.076 108.238 124.471 105.45 128.378C104.371 126.749 103.429 125.355 102.506 123.981C102.113 122.705 101.78 121.468 101.426 120.212ZM102.938 120.153C102.84 120.231 102.722 120.31 102.624 120.389C103.487 122.057 104.351 123.745 105.431 125.865C106.55 123.569 107.453 121.743 108.356 119.917C108.277 119.878 108.199 119.839 108.12 119.8C107.296 121.154 106.451 122.528 105.47 124.138C104.528 122.666 103.743 121.409 102.938 120.153ZM104.273 118.308C104.174 118.386 104.096 118.445 103.998 118.524C104.43 119.387 104.861 120.251 105.45 121.429C106 120.251 106.353 119.446 106.707 118.661C106.628 118.622 106.55 118.583 106.471 118.543C106.137 118.916 105.823 119.309 105.431 119.76C104.999 119.191 104.646 118.759 104.273 118.308Z" fill="white"/>
<path d="M109.043 127.985C111.712 125.787 114.362 123.588 114.951 120.035C113.302 122.234 111.575 124.53 109.828 126.847C109.631 126.729 109.435 126.611 109.239 126.493C113.165 122.489 114.814 117.444 116.266 112.242C116.443 113.302 116.6 114.382 116.796 115.599C117.444 113.381 118.033 111.32 118.641 109.239C119.073 116.502 114.637 125.708 109.043 127.985Z" fill="white"/>
<path d="M92.2004 109.16C92.8481 111.418 93.4959 113.675 94.183 116.109C94.3204 114.892 94.4578 113.852 94.5755 112.792C95.9889 117.994 98.1089 122.744 101.701 126.788C99.0511 125.06 97.4807 122.489 96.0281 119.643C96.0085 122.253 97.6378 124.471 101.996 127.966C97.8537 127.769 93.0641 118.897 92.2004 109.16Z" fill="white"/>
<path d="M86.4881 103.115C87.4107 111.693 89.9233 119.23 96.4011 125.08C90.0607 123.569 84.0933 110.476 86.4881 103.115Z" fill="white"/>
<path d="M115.442 124.472C118.131 121.527 120.447 118.308 121.684 114.539C122.881 110.927 123.667 107.178 124.589 103.703C126.827 109.906 121.841 121.664 115.442 124.472Z" fill="white"/>
<path d="M90.7282 108.689C91.6311 113.577 92.593 118.445 95.0663 122.862C91.9256 118.661 89.0989 114.382 90.7282 108.689Z" fill="white"/>
<path d="M116.423 122.253C117.621 118.033 118.995 113.243 120.31 108.591C121.92 114.107 119.113 118.484 116.423 122.253Z" fill="white"/>
<path d="M138.271 116.463C137.447 120.86 132.834 125.178 127.141 126.709C129.3 125.217 131.617 123.961 133.481 122.234C135.346 120.506 136.76 118.308 138.271 116.463Z" fill="white"/>
<path d="M84.0737 126.65C77.9493 125.453 74.4748 121.39 72.3548 115.854C75.0048 120.82 78.9896 124.354 84.0737 126.65Z" fill="white"/>
<path d="M109.16 125.59C110.593 121.625 111.967 117.817 113.44 113.754C113.754 118.524 111.771 122.155 109.16 125.59Z" fill="white"/>
<path d="M102.133 126.179C99.0118 122.705 97.0489 117.758 97.5789 114.637C99.11 118.504 100.68 122.508 102.133 126.179Z" fill="white"/>
<path d="M101.426 120.212C101.78 121.468 102.113 122.705 102.467 123.961C102.153 123.667 101.662 123.431 101.544 123.078C100.779 120.938 100.091 118.759 99.3848 116.58C99.5418 116.521 99.6793 116.482 99.8363 116.423C99.9737 116.796 100.131 117.169 100.249 117.562C100.386 117.974 100.445 118.406 100.621 118.798C100.837 119.27 101.151 119.741 101.426 120.212Z" fill="white"/>
<path d="M135.66 123.647C136.74 121.448 137.82 119.23 138.899 117.032C139.037 117.091 139.174 117.169 139.311 117.228C138.251 119.446 137.172 121.645 136.112 123.863C135.974 123.784 135.817 123.706 135.66 123.647Z" fill="white"/>
<path d="M75.1226 124.236C74.0233 122.155 72.9241 120.094 71.8052 118.013C71.9426 117.935 72.0996 117.856 72.237 117.778C73.297 119.839 74.357 121.92 75.4367 123.981C75.3189 124.079 75.2207 124.157 75.1226 124.236Z" fill="white"/>
<path d="M69.7048 33.174C70.2152 33.8218 70.6078 34.2144 70.8826 34.6855C72.3352 37.2177 74.4945 39.004 77.1837 40.0052C79.1663 40.7511 81.3648 40.9277 83.3671 41.6344C92.2985 44.7555 99.4241 50.0359 103.389 58.9281C103.429 59.0263 103.409 59.144 103.409 59.2422C101.387 57.024 99.5615 54.6096 97.3237 52.6663C95.0467 50.664 92.5341 48.7403 89.8252 47.4448C87.1163 46.1492 84.0345 45.6781 81.1096 44.834C81.0508 45.0303 80.9919 45.2266 80.933 45.4229C81.2471 45.5211 81.5808 45.6192 81.8948 45.7174C78.283 45.6389 74.7496 45.2659 71.9033 42.7533C69.3908 40.4959 68.4093 36.7074 69.7048 33.174Z" fill="white"/>
<path d="M87.1948 38.3563C91.7096 40.1426 95.3019 43.1852 98.4819 46.7578C99.4437 47.8374 100.288 49.0348 101.093 50.2322C101.407 50.7034 101.485 51.3315 101.662 51.9008C101.544 51.9793 101.426 52.0578 101.309 52.1167C101.034 51.9204 100.68 51.8026 100.504 51.5474C96.8722 46.483 91.7293 43.5385 86.0956 41.3204C83.4456 40.28 80.7171 39.4752 78.0278 38.4937C75.4759 37.5711 73.4737 35.883 71.7071 33.8808C70.333 32.3104 70.3526 31.4663 71.9426 29.3267C72.5315 29.8174 73.2971 30.21 73.6896 30.8185C75.5937 33.7237 78.4793 34.9997 81.6396 35.9222C82.9548 36.3148 84.1522 37.0804 85.3889 37.6693C83.3671 37.1197 81.3452 36.57 79.3234 36.04C79.2841 36.1578 79.2645 36.2756 79.2252 36.3934C79.6963 36.57 80.1871 36.7467 80.6582 36.9234C80.6385 37.0019 80.6385 37.0804 80.6189 37.1589C80.0104 37.1589 79.4019 37.1589 78.8719 37.1589C81.6985 38.16 84.5448 39.1611 87.3911 40.1622C87.4696 40.0837 87.5482 40.0248 87.6463 39.9463C87.2341 39.7697 86.8219 39.6126 86.4096 39.4359C86.5078 39.3182 86.6256 39.1808 86.7237 39.063C88.5493 40.123 90.3748 41.2026 92.2004 42.2626C92.2593 42.1841 92.3182 42.0859 92.3574 42.0074C90.6496 40.7904 88.9222 39.5734 87.1948 38.3563Z" fill="white"/>
<path d="M78.1259 50.7426C77.0463 58.3981 76.3397 65.9555 83.7597 71.2752C82.6604 69.9404 81.4434 68.6841 80.5011 67.2511C79.5982 65.8378 78.97 64.2478 78.4793 62.5989C80.2263 65.9163 82.1304 69.057 85.4674 71.02C89.0989 73.1596 92.6322 71.8052 96.2637 70.49C94.9289 71.8837 94.87 71.9033 89.0204 73.0615C90.0804 73.0615 91.16 73.1792 92.1808 73.0222C93.2015 72.8652 94.2026 72.4529 95.2037 72.1389C95.243 72.3155 95.2822 72.4922 95.3411 72.6689C93.3782 73.14 91.4348 73.6111 89.7663 74.0037C93.6137 74.9459 96.6956 72.767 99.7382 70.49C100.091 70.2348 100.386 69.8618 100.759 69.7244C101.132 69.587 101.583 69.6459 101.996 69.6263C101.897 70.0385 101.917 70.6078 101.662 70.8629C98.3248 74.0429 94.3596 75.417 89.7271 74.9459C79.8337 73.9055 76.0256 64.9937 76.4771 57.6129C76.6145 55.2966 77.2426 53.0196 77.6548 50.7229C77.7922 50.6837 77.9493 50.7033 78.1259 50.7426Z" fill="white"/>
<path d="M84.9767 79.8534C85.6048 78.7541 86.0563 77.4389 86.9593 76.6537C87.6071 76.0845 88.9026 76.0256 89.8645 76.1237C90.7282 76.2022 91.69 76.4574 91.8667 77.7922C92.4163 81.7771 91.8667 82.4445 87.9211 82.1108C87.293 82.0519 86.6648 81.9145 85.5263 81.7182C86.6845 80.2263 87.6071 79.0093 88.4511 77.91C87.3715 77.5763 87.3715 77.5763 84.9767 79.8534Z" fill="white"/>
<path d="M83.2296 75.0834C82.1304 75.3189 81.0507 75.5545 80.1085 75.7508C81.5219 73.3952 83.9167 73.356 85.6048 75.8489C85.6637 75.9471 85.8011 76.0649 85.7815 76.1041C85.2122 77.1838 84.7411 78.3419 83.9952 79.3037C83.5241 79.9123 82.9744 80.9919 81.777 80.3049C81.7378 80.2852 81.6789 80.2656 81.6396 80.2263C80.7367 79.6178 79.1074 79.7356 79.2055 78.1456C79.2644 77.1445 81.6004 75.7704 82.8959 75.7704C83.0333 75.7704 83.1904 75.7508 83.3278 75.7508C83.3082 75.5349 83.2689 75.2993 83.2296 75.0834Z" fill="white"/>
<path d="M74.2785 67.4082C73.9645 67.3101 73.6504 67.2315 73.1204 67.0745C73.9645 66.996 74.5926 67.0156 75.1422 66.8586C76.85 66.3482 77.3408 67.5849 77.7922 68.743C78.3026 70.0386 77.4782 70.5882 76.3593 70.9023C75.2796 71.1967 74.2 71.5893 73.1008 71.7267C72.5904 71.7856 71.7463 71.4519 71.5107 71.0397C71.0789 70.2349 70.9807 69.2534 70.7452 68.3308C71.5107 68.1738 72.2567 67.9775 73.0222 67.8401C73.4345 67.7615 73.8467 67.7615 74.2589 67.7223C74.2589 67.6045 74.2589 67.5064 74.2785 67.4082Z" fill="white"/>
<path d="M66.5052 57.6326C67.2315 59.36 65.2685 60.3219 64.8759 61.8137C64.9545 61.2445 65.033 60.6949 65.1115 60.1256C63.5215 62.5204 63.7767 65.2882 63.3448 67.9382C63.1878 66.466 63.0111 64.9937 62.8541 63.5019C62.7756 63.5019 62.6774 63.5215 62.5989 63.5215C62.7363 65.563 62.8541 67.6045 62.9915 69.7637C60.8322 66.5052 61.3034 60.6163 64.1693 56.396C63.9337 57.3186 63.7963 57.8878 63.6393 58.4767C64.5619 58.2019 65.4256 57.9467 66.5052 57.6326Z" fill="white"/>
<path d="M92.7696 80.9133C92.7108 80.0104 92.6126 79.3233 92.6519 78.6167C92.6911 77.8119 92.6322 76.4378 92.9856 76.3004C94.1437 75.8685 95.5571 75.5545 96.7152 75.8489C97.2845 75.9863 97.7359 77.4978 97.8537 78.44C97.9322 79.1467 97.5789 80.2067 97.0489 80.5993C96.1852 81.2471 95.0074 81.463 93.9671 81.8752C93.7904 81.7771 93.6334 81.6789 93.4567 81.5808C93.8493 80.2656 94.2419 78.9308 94.6541 77.5763C92.8089 77.6156 93.6726 79.7356 92.7696 80.9133Z" fill="white"/>
<path d="M78.5382 72.3352C77.3997 71.0201 76.0648 72.4726 74.573 72.3156C75.7704 71.8445 76.7519 71.3145 77.7922 71.1182C78.4597 71.0004 79.4019 71.1771 79.873 71.6089C81.1685 72.7475 81.09 73.4738 79.7159 74.5926C79.0093 75.1619 78.2241 75.6526 77.3997 76.0256C76.0845 76.6341 73.9841 75.5741 73.7093 74.1412C73.6504 73.8467 74.0626 73.2186 74.3571 73.1401C75.7311 72.7867 77.1445 72.5904 78.5382 72.3352Z" fill="white"/>
<path d="M70.5882 62.4222C71.8248 62.4222 73.0419 62.4615 74.2785 62.4026C75.5545 62.3437 75.79 63.2074 75.9078 64.13C76.0256 65.0526 76.1041 66.0341 74.7496 66.1322C73.4148 66.2304 72.08 66.4071 70.7452 66.3482C69.3122 66.2893 69.6263 65.0133 69.5478 64.13C69.4693 63.1289 70.2152 63.0504 70.9611 63.1289C71.8641 63.2074 72.7474 63.3056 73.7093 63.0307C72.6493 62.8737 71.5893 62.7167 70.5293 62.5596C70.5293 62.5204 70.5489 62.4811 70.5882 62.4222Z" fill="white"/>
<path d="M67.8597 69.5281C68.1345 70.2937 68.3308 70.863 68.5271 71.4518C68.7626 71.2948 68.9589 71.1574 69.3122 70.9218C69.96 74.6907 71.3341 77.9296 74.043 80.56C73.3167 79.9319 72.5904 79.3233 71.8641 78.6952C71.7856 78.7541 71.7267 78.813 71.6482 78.8719C72.2174 79.4804 72.767 80.1085 73.4737 80.8741C69.5871 79.4411 67.31 74.7693 67.8597 69.5281Z" fill="white"/>
<path d="M73.5523 62.1278C72.7082 61.9904 71.8445 61.9315 71.02 61.7156C69.6852 61.3623 69.5282 60.3415 69.7441 59.1637C69.9797 57.8486 70.8237 58.1823 71.7071 58.3982C72.4334 58.5749 73.1793 58.6141 73.9252 58.6926C75.1815 58.7908 75.2993 59.733 75.2404 60.636C75.1619 61.5782 74.73 62.3241 73.5523 62.1278Z" fill="white"/>
<path d="M69.1945 53.7656C66.8389 54.2171 65.8967 53.746 64.9152 51.9793C63.7767 49.9378 63.7374 48.3478 64.876 47.1308C64.9937 47.3271 65.1311 47.5037 65.1704 47.6804C65.4452 48.9563 65.6808 50.0948 67.0745 50.8604C67.9578 51.3511 68.3897 52.6271 69.1945 53.7656Z" fill="white"/>
<path d="M71.4715 46.2475C71.1967 46.9149 70.9415 47.5234 70.6863 48.1319C70.49 48.1515 70.2741 48.1515 70.0778 48.1712C69.3515 46.2082 68.6252 44.2452 67.8989 42.2626C68.0363 42.2038 68.1737 42.1645 68.3111 42.1056C68.3897 42.2823 68.4682 42.4589 68.7037 42.9301C68.7037 41.9682 68.7037 41.3204 68.7037 40.653C69.0571 42.5375 70.6471 43.2638 71.8641 44.3434C72.1978 44.6575 72.2763 45.3641 72.2763 45.8941C72.2763 46.0315 71.6089 46.1886 71.4715 46.2475Z" fill="white"/>
<path d="M66.5641 64.503C66.2696 65.3274 65.8182 66.1518 65.7004 66.9959C65.5237 68.2915 65.5237 69.6067 65.5826 70.9022C65.6415 72.2959 65.877 73.67 66.0537 75.2796C62.6185 69.6852 65.4059 64.817 67.4082 59.8704C67.3296 60.4396 67.2904 61.0285 67.1922 61.5978C67.0941 62.2259 66.937 62.8541 66.7996 63.4626C66.7211 63.8355 66.6426 64.1693 66.5641 64.503Z" fill="white"/>
<path d="M74.0822 58.3982C72.767 57.9074 71.7856 57.6915 70.9807 57.1811C70.5882 56.926 70.5489 56.1211 70.3722 55.5519C70.8237 55.4341 71.2556 55.2378 71.707 55.2182C72.3941 55.1789 73.1008 55.1985 73.7682 55.3163C74.6319 55.4537 75.3778 55.8856 75.0637 56.926C74.9067 57.4756 74.4159 57.9271 74.0822 58.3982Z" fill="white"/>
<path d="M66.5641 64.503C66.6426 64.1693 66.7408 63.8159 66.8193 63.4822C67.0548 63.227 67.2708 62.9719 67.5063 62.7167C66.9763 66.9174 66.7015 71.0593 67.8008 75.2011C66.3089 72.8848 66.093 70.333 66.3089 67.7026C66.3678 66.6426 66.466 65.5826 66.5641 64.503Z" fill="white"/>
<path d="M74.6122 53.3534C74.5337 53 74.4748 52.7449 74.3178 52.0971C75.0048 52.6075 75.6919 52.8626 75.8096 53.2945C75.9471 53.746 75.6722 54.5704 75.2993 54.8452C74.9852 55.0612 74.2393 54.806 73.7289 54.6293C73.0222 54.3741 72.237 54.1386 71.7463 53.6282C71.4322 53.2945 71.5893 52.5093 71.5304 51.9401C71.9622 51.9597 72.453 51.8419 72.8063 52.0186C73.4148 52.313 73.9252 52.8038 74.6122 53.3534Z" fill="white"/>
<path d="M76.006 52.2149C75.0637 51.783 74.0626 51.41 73.1989 50.8408C72.8848 50.6445 72.7474 49.9574 72.7867 49.5256C72.7867 49.3686 73.4934 49.1526 73.886 49.133C74.2393 49.1134 74.5926 49.3293 74.946 49.3882C77.3015 49.7612 77.4585 50.1341 76.006 52.2149Z" fill="white"/>
<path d="M69.2337 78.9308C72.6493 80.933 76.1041 82.9745 79.5589 84.9963C75.5152 83.8186 71.8641 82.0323 69.2337 78.9308Z" fill="white"/>
<path d="M74.887 47.0326C75.5937 46.9737 76.3004 46.8167 76.9874 46.9148C77.3996 46.9737 77.7726 47.4055 78.1456 47.6607C77.7333 48.1122 77.3015 48.9759 76.8893 48.9563C76.0256 48.9367 75.1619 48.5048 74.3374 48.1318C74.1019 48.0337 73.827 47.5037 73.9056 47.3074C74.0233 47.013 74.4356 46.8559 74.73 46.6204C74.7889 46.7578 74.8478 46.8952 74.887 47.0326Z" fill="white"/>
<path d="M66.623 43.4993C67.4671 45.5212 68.2522 47.3663 69.0178 49.2115C68.9589 49.2508 68.9197 49.29 68.8608 49.3293C68.3504 48.6423 67.84 47.9356 67.3296 47.2486C67.2708 47.2682 67.2119 47.2682 67.1334 47.2878C67.2904 47.7589 67.4671 48.23 67.6241 48.7208C66.3678 48.446 65.72 45.4819 66.623 43.4993Z" fill="white"/>
<path d="M76.4181 80.5993C77.753 81.7967 79.1074 82.9941 80.4422 84.1915C80.3833 84.2504 80.3441 84.2897 80.2852 84.3486C78.97 83.1315 77.6548 81.9145 76.3396 80.6975C76.3789 80.6582 76.3985 80.6189 76.4181 80.5993Z" fill="white"/>
<path d="M107.629 59.1244C110.397 52.2736 115.206 47.3662 121.763 44.2059C124.903 42.6944 128.123 41.1044 131.479 40.437C135.562 39.6125 138.271 37.4729 140.293 34.0966C140.45 33.8414 140.744 33.704 141.294 33.2525C141.942 35.7455 142.02 38.0029 140.96 40.064C138.389 45.0499 133.619 45.6388 128.692 45.737C129.084 45.6388 129.477 45.5211 129.87 45.4229C119.78 45.6192 113.263 51.6455 107.629 59.1244Z" fill="white"/>
<path d="M124.727 37.9637C126.513 37.1393 128.26 36.1774 130.105 35.5493C132.696 34.6659 135.111 33.6844 136.701 31.27C137.211 30.4848 138.075 29.9352 138.742 29.307C140.332 30.7793 140.489 32.2122 139.39 33.6059C136.819 36.8841 133.344 38.69 129.418 39.7696C123.588 41.3793 118.131 43.7348 113.616 47.8963C112.478 48.9563 111.496 50.193 110.515 51.3904C110.26 51.7044 110.279 52.2148 109.926 52.4111C108.886 49.0741 118.092 40.2604 123.549 38.5919C121.704 39.8089 119.878 41.0456 118.053 42.2626C118.131 42.3804 118.21 42.4785 118.288 42.5963C120.251 41.4185 122.234 40.2407 124.197 39.063C124.256 39.1415 124.295 39.2396 124.354 39.3181C124.02 39.6322 123.686 39.9267 123.372 40.2211C126.179 39.2004 128.986 38.16 131.774 37.1393C131.204 37.1393 130.557 37.1393 129.497 37.1393C130.439 36.7859 130.949 36.57 131.479 36.3737C131.44 36.2559 131.42 36.1578 131.381 36.04C129.163 36.6485 126.945 37.3159 124.727 37.9637Z" fill="white"/>
<path d="M121.429 73.9644C119.701 73.6111 117.994 73.2774 116.286 72.9437C116.306 72.8455 116.325 72.7474 116.325 72.6492C118.111 72.8652 119.898 73.0615 121.684 73.2774C121.684 73.1989 121.704 73.14 121.704 73.0615C119.525 72.5118 117.366 71.9818 115.187 71.4322C115.206 71.2163 115.246 71.0004 115.265 70.7844C118.877 72.1192 122.469 72.983 125.924 70.6078C129.124 68.4289 130.989 65.2881 132.441 61.8137C132.166 65.2292 130.203 67.8204 128.162 70.3526C134.757 64.6404 133.658 57.3381 132.539 50.2126C133.756 51.8418 134.777 55.9248 134.483 59.6741C134.129 64.1104 132.677 68.1148 129.379 71.3144C124.256 76.2807 114.343 76.163 109.396 70.9807C109.101 70.6863 109.101 70.0974 108.964 69.6655C109.435 69.7637 109.985 69.7441 110.358 69.9796C111.85 70.9415 113.263 72.0211 114.755 72.9829C116.836 74.2785 119.093 74.357 121.429 73.9644Z" fill="white"/>
<path d="M124.943 82.1696C123.196 82.1696 121.664 82.1696 120.114 82.1696C119.917 82.1696 119.682 82.1107 119.505 81.993C118.465 81.247 118.897 77.0266 120.055 76.477C122.214 75.4366 123.627 75.8489 124.805 77.8903C125.257 78.6559 125.669 79.4411 126.336 80.6189C124.707 79.4411 124.118 77.4389 121.586 77.8315C123.569 78.6559 124.629 79.8533 124.943 82.1696Z" fill="white"/>
<path d="M127.475 75.6918C129.183 75.5741 130.36 76.4181 131.42 77.5763C132.029 78.2437 132.049 78.8718 131.224 79.2644C130.243 79.7159 128.77 80.6189 128.221 80.2459C126.945 79.4215 126.062 77.9689 125.139 76.6733C125.002 76.477 125.433 75.6918 125.787 75.3581C127.887 73.3167 129.556 73.67 131.892 76.6537C130.341 76.3396 129.3 74.2 127.475 75.6918Z" fill="white"/>
<path d="M138.114 67.2119C137.525 67.2511 136.956 67.2904 136.367 67.3297C136.347 67.4082 136.347 67.5063 136.328 67.5848C137.623 67.7026 138.919 67.84 140.568 67.9971C140.097 69.1945 139.861 70.3133 139.272 71.1574C138.958 71.5893 137.898 71.8445 137.329 71.6678C135.817 71.1771 134.09 70.7059 133.03 69.6263C132.245 68.8215 134.09 66.7015 135.425 66.7997C136.328 66.8585 137.231 66.9567 138.153 67.0352C138.134 67.1137 138.114 67.153 138.114 67.2119Z" fill="white"/>
<path d="M147.831 70.1366C147.949 67.7418 148.066 65.347 148.204 62.9522C148.106 62.9522 148.027 62.9326 147.929 62.9326C147.831 64.6403 147.713 66.3481 147.615 68.0559C147.556 68.0559 147.517 68.0363 147.458 68.0363C147.046 65.2881 146.633 62.54 146.221 59.7918C146.044 59.8114 145.848 59.8311 145.671 59.8507C145.73 60.4003 145.789 60.9303 145.829 61.48C145.75 61.4996 145.672 61.5192 145.593 61.5389C145.083 60.3022 144.592 59.0459 144.062 57.7111C145.279 57.9663 146.143 58.1429 147.104 58.3392C146.908 57.6326 146.712 56.9455 146.496 56.2585C149.676 60.6359 149.931 65.2881 147.831 70.1366Z" fill="white"/>
<path d="M118.347 81.2667C117.032 80.0889 118.229 77.6352 116.207 77.6352C116.639 78.9111 117.091 80.2263 117.542 81.5415C117.385 81.6985 117.228 81.8556 117.071 82.0126C115.815 81.4237 114.343 81.09 113.341 80.2067C112.183 79.186 113.067 77.7334 113.577 76.6145C113.793 76.1434 114.696 75.9667 115.324 75.7115C115.56 75.6134 115.854 75.6919 116.129 75.7115C118.249 75.8882 118.367 76.006 118.367 78.1063C118.347 79.0878 118.347 80.0497 118.347 81.2667Z" fill="white"/>
<path d="M135.464 71.9819C134.326 72.4922 132.991 70.8826 132.284 72.3548C133.953 72.6296 135.66 72.9045 137.427 73.1793C136.446 76.2807 134.875 76.8893 132.52 75.4563C132.107 75.2011 131.656 75.0048 131.303 74.6711C130.616 74.0626 129.556 73.5326 130.38 72.3352C131.087 71.3145 131.833 70.4115 133.285 71.1378C133.933 71.4715 134.659 71.6678 135.464 71.9819Z" fill="white"/>
<path d="M140.646 62.6186C139.41 62.756 138.193 62.8737 136.956 63.0112C136.976 63.1486 136.995 63.286 136.995 63.4234C137.957 63.3056 138.899 63.1486 139.861 63.0504C140.784 62.9523 141.432 63.1486 141.333 64.346C141.255 65.3863 141.294 66.5249 139.842 66.4856C138.566 66.4464 137.27 66.3286 136.033 66.0145C135.562 65.8967 134.895 65.0526 134.973 64.66C135.15 63.8945 135.641 62.6971 136.21 62.5793C137.623 62.2849 139.154 62.4812 140.627 62.4812C140.627 62.5204 140.646 62.5793 140.646 62.6186Z" fill="white"/>
<path d="M138.88 80.5011C138.526 80.5599 138.173 80.6385 137.702 80.717C138.409 79.8533 139.056 79.0877 139.684 78.3222C139.626 78.2436 139.547 78.1848 139.488 78.1062C138.624 78.8914 137.78 79.6766 136.917 80.4814C139.606 77.8118 140.882 74.4355 141.667 70.3329C141.942 71.1181 142.04 71.4125 142.197 71.864C142.531 70.804 142.825 69.8618 143.257 68.4877C143.375 72.1585 142.923 75.2403 141.137 78.0277C140.901 78.3811 140.764 78.7736 140.587 79.1662C139.999 79.6177 139.449 80.0496 138.88 80.5011Z" fill="white"/>
<path d="M138.075 62.0297C136.76 62.0493 135.837 62.1474 135.739 60.7537C135.66 59.4974 135.994 58.7122 137.407 58.5748C138.094 58.516 138.781 58.0448 139.469 58.0645C140.018 58.0841 140.764 58.4374 141.019 58.8889C141.647 59.9489 141.412 61.0482 140.214 61.5782C139.469 61.9315 138.566 61.9511 138.075 62.0297Z" fill="white"/>
<path d="M142.158 40.9081C143.237 42.3214 142.668 45.1089 140.529 47.9159C139.92 47.2877 139.056 46.7381 138.821 45.9726C138.644 45.4229 139.154 44.52 139.567 43.9507C140.332 42.9103 141.255 41.9681 142.158 40.9081Z" fill="white"/>
<path d="M146.162 46.5418C146.182 47.013 146.221 47.4841 146.241 48.1318C146.417 47.8374 146.516 47.6804 146.614 47.5233C147.497 51.0959 145.652 53.7459 141.746 53.9226C142.334 52.9411 142.629 51.8811 143.316 51.3904C145.043 50.1733 145.671 48.5048 146.162 46.5418Z" fill="white"/>
<path d="M143.473 62.1867C143.552 61.637 143.63 61.0874 143.748 60.3218C145.966 65.3667 148.066 70.1759 144.808 75.4955C145.004 72.9829 145.475 70.5685 145.259 68.1933C145.083 66.1518 144.101 64.1889 143.473 62.1867Z" fill="white"/>
<path d="M137.584 55.5322C138.094 55.4144 138.585 55.2181 139.096 55.2181C139.567 55.2181 140.057 55.4341 140.529 55.5518C140.372 56.1015 140.372 56.8867 139.999 57.1419C139.331 57.5933 138.448 57.8289 137.623 57.9859C137.113 58.0841 136.328 58.0644 136.073 57.77C135.778 57.397 135.7 56.553 135.935 56.1407C136.19 55.6696 136.897 55.4537 137.407 55.12C137.466 55.2378 137.525 55.3752 137.584 55.5322Z" fill="white"/>
<path d="M138.88 80.5011C139.449 80.0693 140.018 79.6178 140.587 79.1859C141 78.8719 141.392 78.5382 141.804 78.2241C140.607 80.4619 138.801 82.0715 136.583 83.1708C134.875 84.0148 133.03 84.6037 130.91 85.4478C132.127 84.6233 133.069 83.9167 134.051 83.3082C135.641 82.3267 137.27 81.4237 138.88 80.5011Z" fill="white"/>
<path d="M139.684 52.8822C139.527 53.1178 139.351 53.5889 139.037 53.7459C138.153 54.217 137.211 54.6489 136.249 54.9237C135.974 55.0022 135.386 54.59 135.209 54.2563C135.032 53.903 135.17 53.3926 135.17 52.9411C135.543 52.9607 135.955 53.0981 136.269 52.9804C136.917 52.7055 137.506 52.3326 138.094 51.94C139.096 51.2333 139.39 51.8811 139.684 52.8822Z" fill="white"/>
<path d="M137.78 48.9759C138.762 49.9378 138.428 50.6248 137.29 51.1548C136.799 51.3707 136.269 51.5278 135.817 51.8026C134.895 52.3718 134.463 51.9793 134.129 51.1155C133.776 50.1733 134.11 49.663 135.032 49.4863C135.916 49.29 136.779 49.1526 137.78 48.9759Z" fill="white"/>
<path d="M143.434 47.4841C143.041 47.9356 142.648 48.4263 142.079 49.1133C142.825 47.0522 143.473 45.2463 144.101 43.4796C145.161 44.52 144.847 48.4263 143.277 50.35C143.336 49.2507 143.375 48.4263 143.434 47.4841Z" fill="white"/>
<path d="M143.473 62.1866C143.846 64.5029 144.317 66.8192 144.572 69.1552C144.788 71.3144 144.199 73.3559 143.453 74.9066C143.512 72.1978 143.63 69.1552 143.65 66.1126C143.669 64.817 143.551 63.5018 143.473 62.1866Z" fill="white"/>
<path d="M133.953 47.1897C134.64 47.0523 135.327 46.8363 136.033 46.7971C136.347 46.7774 136.799 47.013 136.995 47.2682C137.093 47.4056 136.838 48.0337 136.622 48.1123C135.739 48.4656 134.816 48.8582 133.894 48.9171C133.58 48.9367 133.128 48.0926 132.893 47.5823C132.834 47.4645 133.442 47.0523 133.756 46.7578C133.815 46.8952 133.894 47.0523 133.953 47.1897Z" fill="white"/>
<path d="M130.635 83.7989C131.931 82.7782 133.226 81.7771 134.522 80.7563C134.483 80.7367 134.463 80.7171 134.424 80.6778C133.226 81.7771 132.029 82.896 130.831 83.9952C130.773 83.9363 130.694 83.8578 130.635 83.7989Z" fill="white"/>
</svg>
