<svg width="46" height="46" viewBox="0 0 46 46" fill="none" xmlns="http://www.w3.org/2000/svg">
<g clip-path="url(#clip0)">
<path d="M14.8922 30.5275C13.466 27.4812 12.9184 24.2866 13.2721 20.9437C15.1888 20.1679 18.3606 20.6813 20.072 23.3168C21.8062 25.9866 21.1103 30.0027 17.8358 31.7483C19.1593 33.6879 20.825 35.2396 22.8331 36.449C24.8525 35.251 26.5069 33.6879 27.8532 31.7369C27.7619 31.6799 27.682 31.6342 27.5908 31.5772C26.0847 30.6645 25.1264 29.3524 24.7841 27.6182C24.168 24.5376 26.1076 21.5142 29.1653 20.7726C30.1693 20.5216 31.1733 20.5444 32.1659 20.8296C32.4055 20.8981 32.4283 20.8981 32.4283 21.1377C32.4511 21.9819 32.5082 22.8376 32.4854 23.6819C32.4397 25.2564 32.1545 26.7967 31.6525 28.2913C31.4357 28.9416 31.1619 29.5692 30.9223 30.2081C30.8881 30.3108 30.8424 30.402 30.7968 30.5047C33.0901 30.9383 36.9236 30.4705 39.9927 27.7094C43.3014 24.7202 44.294 20.3846 43.5296 16.9162C42.7424 17.635 41.9437 18.2967 41.0652 18.8786C40.1753 19.4605 39.2511 19.9625 38.2699 20.3846C37.3001 20.7954 36.3075 21.1262 35.2693 21.3544C35.1894 21.0806 35.2578 20.8182 35.3263 20.5786C35.5431 19.7799 36.0451 19.2095 36.8095 18.9014C37.5055 18.6162 38.2015 18.3081 38.8632 17.9545C40.6202 16.9961 42.1263 15.7525 43.3927 14.2122C43.6437 13.9041 43.8833 13.5733 44.1343 13.2652C44.1571 13.231 44.1913 13.1968 44.2256 13.1625C45.9484 16.2545 46.5074 21.2175 44.0887 25.6101C42.6853 28.1658 40.6773 30.0712 38.0417 31.3148C35.4062 32.5584 32.6565 32.8779 29.7814 32.353C28.4921 34.3725 26.872 36.0725 24.8639 37.4644C26.37 38.0805 27.8988 38.457 29.4733 38.5939C31.0592 38.7309 32.6223 38.6396 34.1854 38.3087C32.7592 41.1839 29.0512 44.4812 24.0653 44.9375C18.3492 45.4624 13.5687 42.2449 11.4694 38.3087C12.5305 38.5027 13.5687 38.6396 14.6184 38.651C15.668 38.651 16.7177 38.5825 17.7445 38.3772C18.7828 38.1832 19.7982 37.8866 20.8136 37.4644C20.5398 37.259 20.3002 37.0879 20.0606 36.9054C18.4861 35.6846 17.1398 34.2356 16.0559 32.5584C15.9533 32.3987 15.8506 32.353 15.6566 32.3873C14.356 32.6269 13.0439 32.6611 11.7318 32.5014C8.85665 32.1363 6.3466 30.9725 4.22447 28.9987C3.02649 27.8806 2.05669 26.5799 1.33791 25.1081C0.550661 23.4994 0.105697 21.7994 0.00301323 20.0081C-0.11108 18.0115 0.208381 16.0833 0.949988 14.2236C1.07549 13.9155 1.2124 13.6189 1.34931 13.3223C1.37213 13.2652 1.41777 13.2196 1.46341 13.1511C1.55468 13.2766 1.63455 13.3679 1.703 13.4706C3.51709 15.935 5.856 17.7149 8.70833 18.833C9.41571 19.1068 9.95195 19.5518 10.2486 20.2591C10.3855 20.6014 10.4882 20.9665 10.4197 21.3773C7.25935 20.6471 4.53252 19.1524 2.17079 16.939C1.48623 19.7914 2.04528 23.9444 5.05735 27.1047C8.08082 30.2765 12.1197 30.9953 14.8922 30.5275ZM15.8734 40.5792C17.8358 42.2335 20.962 43.3973 24.3049 42.9637C26.1532 42.7241 29.1995 41.4235 29.77 40.5678C29.6787 40.5563 29.6102 40.5449 29.5304 40.5449C28.6518 40.4765 27.7733 40.351 26.9062 40.1456C25.5713 39.8376 24.2821 39.3812 23.0499 38.7765C22.9015 38.708 22.7874 38.6966 22.6391 38.7651C21.7378 39.2215 20.7908 39.5865 19.821 39.8718C18.8969 40.1456 17.9499 40.351 16.9915 40.4537C16.6264 40.4879 16.2727 40.5335 15.8734 40.5792ZM30.5686 22.5638C28.8572 22.541 26.9633 23.7504 26.6438 25.9638C26.4955 26.9792 26.7237 27.9262 27.317 28.7705C27.7049 29.3296 28.2069 29.7745 28.8572 30.0598C30.0438 27.6866 30.6142 25.2108 30.5686 22.5638ZM16.8204 30.0598C18.4063 29.341 19.4445 27.4242 18.9425 25.5074C18.4291 23.5793 16.6378 22.5068 15.1204 22.5638C15.0519 25.1994 15.6338 27.6866 16.8204 30.0598Z" fill="white"/>
<path d="M22.8335 8.42772C22.8792 8.35927 22.9248 8.30222 22.959 8.24517C24.0087 6.59082 25.5033 5.54116 27.3973 5.06197C29.759 4.46868 32.1093 3.85258 34.4596 3.23647C35.7603 2.89419 37.0724 2.56332 38.373 2.22104C38.4529 2.19823 38.5328 2.18682 38.6469 2.164C38.6469 2.2895 38.6583 2.415 38.6469 2.51769C38.51 3.54453 37.7798 4.37741 36.7643 4.63982C33.7294 5.42707 30.6832 6.18008 27.6597 7.00155C25.8228 7.49216 24.602 8.70155 24.0543 10.527C23.5865 12.0787 23.849 13.5505 24.7503 14.8854C25.5261 16.0149 26.61 16.7223 27.9563 17.0075C30.1583 17.4639 32.3831 16.4143 33.467 14.4747C33.8892 13.7102 34.1174 12.8888 34.1174 12.0217C34.1174 11.5197 34.1972 11.0405 34.4482 10.6069C34.7221 10.1505 35.0872 9.79684 35.612 9.56865C35.6804 9.7512 35.7489 9.93375 35.7945 10.1049C36.9012 14.2693 34.1972 18.274 30.1583 18.9471C29.5879 19.0384 29.0174 19.1183 28.4697 19.2666C27.1691 19.6203 26.0624 20.2934 25.1268 21.2632C24.5563 21.8565 24.0886 22.5068 23.7349 23.2484C23.5523 23.6364 23.3241 24.0015 23.0389 24.3209C22.9704 24.3894 22.902 24.4578 22.8221 24.5377C22.4456 24.184 22.1604 23.7847 21.955 23.3283C21.3617 22.0733 20.4946 21.0464 19.3423 20.2592C18.3611 19.5975 17.2772 19.1639 16.102 19.027C14.9383 18.8901 13.8316 18.5706 12.8504 17.9089C10.9564 16.6539 9.88394 14.8854 9.63294 12.6264C9.53025 11.6452 9.64434 10.6982 9.94099 9.76261C9.96381 9.69416 9.99803 9.6257 10.0323 9.54584C10.4772 9.72839 10.7967 10.025 11.0705 10.3787C11.4356 10.8693 11.5383 11.4398 11.5383 12.0331C11.5497 12.9915 11.8121 13.8928 12.3369 14.7029C13.1812 16.0263 14.3906 16.8136 15.9309 17.0418C18.0872 17.3612 20.1181 16.3002 21.145 14.5089C22.6624 11.8391 21.5215 8.57604 18.9201 7.33243C18.3611 7.07001 17.7678 6.92169 17.1745 6.77337C14.5846 6.10022 12.0061 5.43848 9.41616 4.76533C9.2222 4.71969 9.02824 4.66264 8.83428 4.617C7.83026 4.35459 7.03161 3.37339 7.00879 2.34655C7.00879 2.2895 7.0202 2.24386 7.0202 2.15259C7.16852 2.18682 7.29402 2.22104 7.43093 2.25527C10.5457 3.05393 13.6604 3.86399 16.7752 4.66264C17.4597 4.83378 18.1329 4.99351 18.806 5.21029C20.449 5.72371 21.7154 6.72773 22.6624 8.16531C22.708 8.24517 22.7651 8.33645 22.8335 8.42772ZM22.8335 15.4673C22.1147 16.7109 21.1335 17.6236 19.8671 18.2854C21.0537 18.9928 22.0235 19.8827 22.8335 20.9894C23.2557 20.4189 23.6778 19.9055 24.1912 19.4834C24.6933 19.0612 25.2295 18.6733 25.7543 18.2626C24.5221 17.6122 23.5637 16.6881 22.8335 15.4673Z" fill="white"/>
<path d="M37.1741 5.81494C37.1856 6.32836 37.0715 6.75051 36.8319 7.13842C36.4439 7.77735 35.8849 8.17667 35.1547 8.35922C34.1735 8.61023 33.2037 8.87264 32.2225 9.12365C31.15 9.39747 30.0775 9.6713 29.0051 9.95653C28.6856 10.0478 28.3547 10.1391 28.0581 10.276C27.3393 10.6297 26.9628 11.4854 27.0655 12.1928C27.191 13.0256 27.7843 13.6532 28.5829 13.8357C29.5299 14.0525 30.6366 13.4592 30.8762 12.3183C30.9903 11.7706 31.2299 11.2914 31.6178 10.8921C31.8232 10.6867 32.2453 10.4243 32.5077 10.3787C32.6446 10.6069 32.7017 10.8579 32.7587 11.1203C32.9869 12.1699 32.8158 13.1626 32.2453 14.0639C31.6748 14.9538 30.8534 15.5243 29.8265 15.7525C28.0923 16.1404 26.301 15.3417 25.5138 13.733C24.8749 12.4209 24.9433 11.1089 25.7306 9.85384C26.3125 8.92969 27.1682 8.41627 28.2064 8.15385C29.6554 7.78876 31.093 7.41225 32.5305 7.03574C33.7742 6.71628 35.0292 6.38541 36.2728 6.05454C36.5809 5.96326 36.8547 5.89481 37.1741 5.81494Z" fill="white"/>
<path d="M8.48047 5.81494C8.86839 5.90622 9.19926 5.98608 9.51872 6.06595C10.5684 6.33977 11.6294 6.61359 12.6791 6.88742C13.9341 7.21829 15.1892 7.54916 16.4442 7.89144C16.8207 7.99412 17.1972 8.09681 17.5737 8.18808C18.6348 8.43909 19.4334 9.05519 20.0039 9.95653C20.3234 10.4585 20.5059 11.029 20.5401 11.6337C20.5744 12.2726 20.5059 12.8887 20.2435 13.482C19.8213 14.4404 19.1368 15.1364 18.167 15.5471C17.6992 15.7525 17.2086 15.8437 16.7066 15.8437C15.9422 15.8552 15.2234 15.6384 14.5616 15.2162C13.6717 14.6458 13.1241 13.8357 12.8845 12.8203C12.7133 12.1015 12.7704 11.029 13.1583 10.3559C13.4321 10.4357 13.6603 10.584 13.8771 10.7666C14.3677 11.1773 14.6643 11.7136 14.7898 12.3411C14.9039 12.9458 15.2576 13.3793 15.7939 13.6646C16.8891 14.2464 18.2583 13.6189 18.5549 12.3639C18.7831 11.4283 18.1442 10.3444 17.1516 10.0934C15.3261 9.62566 13.5006 9.13506 11.6637 8.65587C11.1959 8.53036 10.7281 8.42768 10.2717 8.27936C9.31335 7.97131 8.73147 7.30956 8.54892 6.31695C8.5147 6.16863 8.50329 6.0089 8.48047 5.81494Z" fill="white"/>
<path d="M10.3967 23.6136C10.0772 23.6592 8.81081 23.3284 7.56719 22.8834C6.64303 22.5525 5.75311 22.1418 4.85177 21.674C4.95445 22.1874 5.137 22.6096 5.34237 23.0203C5.91284 24.2069 6.70008 25.2223 7.71551 26.0552C8.73094 26.8881 9.87187 27.47 11.1383 27.8008C11.9141 28.0062 12.5188 28.4398 12.8725 29.1814C12.8953 29.227 12.9068 29.284 12.941 29.3753C12.8155 29.3753 12.7128 29.3981 12.6101 29.3867C10.8074 29.227 9.14168 28.6793 7.63565 27.6639C6.58599 26.9565 5.68465 26.078 4.96586 25.0284C4.17862 23.8874 3.63097 22.621 3.36855 21.2519C3.23164 20.5445 3.12896 19.8143 3.186 19.0613C3.23164 19.0841 3.27728 19.0841 3.3001 19.1069C4.22425 19.8029 5.22828 20.3848 6.26653 20.8982C7.09941 21.3089 7.96652 21.6284 8.85644 21.925C9.60946 22.176 10.2484 22.872 10.3967 23.6136Z" fill="white"/>
<path d="M42.4799 19.0498C42.6853 24.3666 38.3041 29.2383 32.7363 29.3753C32.839 29.1128 32.9531 28.8732 33.1357 28.6679C33.5122 28.2343 33.9799 27.9491 34.5276 27.8122C35.2692 27.6296 35.9766 27.3444 36.6497 26.9679C37.5967 26.4316 38.4296 25.7471 39.137 24.9028C39.8672 24.0357 40.392 23.0545 40.7571 21.982C40.7913 21.8907 40.8027 21.788 40.837 21.6625C39.0571 22.5981 37.243 23.2941 35.2692 23.6706C35.3377 23.2941 35.4974 22.9974 35.7142 22.735C36.0679 22.2786 36.547 22.0162 37.0833 21.8451C38.4068 21.4229 39.6618 20.8525 40.8484 20.1223C41.339 19.8142 41.8182 19.4834 42.3088 19.1639C42.3544 19.1183 42.4 19.0954 42.4799 19.0498Z" fill="white"/>
<path d="M16.6035 3.69288C19.5129 0.121758 25.6968 -0.25475 29.0967 3.69288C29.0511 3.7157 29.0055 3.74992 28.9598 3.76133C28.3551 3.92106 27.7504 4.06939 27.1458 4.22912C26.9974 4.26335 26.8947 4.25194 26.7692 4.14925C26.233 3.72711 25.6397 3.41905 25.0008 3.19087C24.4075 2.9855 23.7914 2.84859 23.1639 2.82577C21.9659 2.76872 20.8364 3.03114 19.7753 3.6016C19.4787 3.76133 19.2048 3.95529 18.931 4.14925C18.8283 4.22912 18.7257 4.26335 18.6002 4.22912C17.9498 4.05798 17.2995 3.88684 16.6492 3.72711C16.6263 3.72711 16.6149 3.70429 16.6035 3.69288Z" fill="white"/>
<path d="M27.5109 41.3551C24.3962 42.7927 21.3043 42.7813 18.1553 41.3551C18.3721 41.2068 18.5774 41.1726 18.7714 41.1612C19.1479 41.1383 19.513 41.184 19.8781 41.2981C20.5512 41.5148 21.2472 41.6518 21.9546 41.7202C22.6277 41.7887 23.3009 41.7659 23.974 41.6974C24.6358 41.6289 25.2747 41.4692 25.9136 41.2638C26.3928 41.1041 26.8834 41.1041 27.3626 41.2524C27.3968 41.2638 27.4311 41.2753 27.4653 41.2867C27.4653 41.2981 27.4767 41.3209 27.5109 41.3551Z" fill="white"/>
</g>
<defs>
<clipPath id="clip0">
<rect width="45.7143" height="45.7143" fill="white"/>
</clipPath>
</defs>
</svg>
