<svg width="500" height="330" viewBox="0 0 500 330" fill="none" xmlns="http://www.w3.org/2000/svg">
<path d="M167.5 320.1L176.667 273.9" stroke="white" stroke-width="2" stroke-miterlimit="10" stroke-linecap="round" stroke-linejoin="round"/>
<path d="M180 284.625L173.333 317.625" stroke="white" stroke-width="2" stroke-miterlimit="10" stroke-linecap="round" stroke-linejoin="round"/>
<path d="M326.667 240.137L342.971 327.525H349.166L331.259 235.125" stroke="white" stroke-width="2" stroke-miterlimit="10" stroke-linecap="round" stroke-linejoin="round"/>
<path d="M218.333 266.475L229.691 327.525H235.833L224.156 267.097" stroke="white" stroke-width="2" stroke-miterlimit="10" stroke-linecap="round" stroke-linejoin="round"/>
<path d="M300 255.75L286.614 327.465L281.667 327.525L294.475 257.91" stroke="white" stroke-width="2" stroke-miterlimit="10" stroke-linecap="round" stroke-linejoin="round"/>
<path d="M173.333 127.05C177.226 115.183 179.845 106.189 186.151 95.4915C194.63 81.1045 208.184 63.3927 225.833 54.45" stroke="white" stroke-width="2" stroke-miterlimit="10" stroke-linecap="round" stroke-linejoin="round"/>
<path d="M168.333 249.975C167.412 249.453 166.495 248.917 165.58 248.369C165.58 248.369 127.819 225.662 147.199 187.981C154.29 174.194 159.609 162.665 163.498 153.45" stroke="white" stroke-width="2" stroke-miterlimit="10" stroke-linecap="round" stroke-linejoin="round"/>
<path d="M254.583 266.475C238.598 268.01 220.347 267.451 203.333 263.175" stroke="white" stroke-width="2" stroke-miterlimit="10" stroke-linecap="round" stroke-linejoin="round"/>
<path d="M270.833 50.325C289.835 52.8812 312.757 59.7575 335.756 98.4119C364.767 147.165 349.494 219.992 326.598 240.229C318.572 247.324 303.241 255.331 285.207 260.7" stroke="white" stroke-width="2" stroke-miterlimit="10" stroke-linecap="round" stroke-linejoin="round"/>
<path d="M165.833 240.9C161.526 239.773 156.753 238.32 152.5 236.775" stroke="white" stroke-width="2" stroke-miterlimit="10" stroke-linecap="round" stroke-linejoin="round"/>
<path d="M258.75 237.6C242.575 242.511 222.586 246.119 202.5 245.834" stroke="white" stroke-width="2" stroke-miterlimit="10" stroke-linecap="round" stroke-linejoin="round"/>
<path d="M286.667 53.625C292.901 60.0578 297.6 66.5908 303.925 77.2938C332.89 126.296 318.195 199.109 295.334 219.45" stroke="white" stroke-width="2" stroke-miterlimit="10" stroke-linecap="round" stroke-linejoin="round"/>
<path d="M215 76.7251C213.938 76.7685 211.026 77.7363 206.766 85.7302C201.328 95.937 193.333 127.05 193.333 127.05" stroke="white" stroke-width="2" stroke-miterlimit="10" stroke-linecap="round" stroke-linejoin="round"/>
<path d="M240 72.6001C232.173 73.2776 220.719 74.8972 215 76.7251" stroke="white" stroke-width="2" stroke-miterlimit="10" stroke-linecap="round" stroke-linejoin="round"/>
<path d="M286.667 76.7251C286.667 76.7251 286.182 76.6525 270.759 74.1257C266.63 73.449 262.433 72.952 257.5 72.6001" stroke="white" stroke-width="2" stroke-miterlimit="10" stroke-linecap="round" stroke-linejoin="round"/>
<path d="M213.333 113.025C213.459 117.672 213.686 122.067 214.167 127.05" stroke="white" stroke-width="2" stroke-miterlimit="10" stroke-linecap="round" stroke-linejoin="round"/>
<path d="M252.5 303.6C251.85 306.081 250.846 309.003 249.972 310.299C249.727 310.662 249.344 311.456 249.167 311.85" stroke="white" stroke-width="2" stroke-miterlimit="10" stroke-linecap="round" stroke-linejoin="round"/>
<path d="M269.167 311.85C268.673 310.901 268.415 309.704 268.345 308.871C268.299 308.316 268.402 307.025 268.51 306.075" stroke="white" stroke-width="2" stroke-miterlimit="10" stroke-linecap="round" stroke-linejoin="round"/>
<path d="M198.333 215.325C214.077 219.14 233.38 222.921 260 225.225" stroke="white" stroke-width="2" stroke-miterlimit="10" stroke-linecap="round" stroke-linejoin="round"/>
<path d="M267.01 327.358C276.428 326.358 275.263 321.745 274.504 318.245C274.029 316.053 271.327 313.469 269.716 311.025C268.874 311.693 267.504 312.874 263.416 314.078C259.168 315.329 253.346 312.853 249.637 311.303C248.313 316.209 248.254 322.464 248.377 323.412C248.529 324.581 257.592 328.358 267.01 327.358Z" stroke="white" stroke-width="2" stroke-miterlimit="10" stroke-linecap="round" stroke-linejoin="round"/>
<path d="M261.542 216.491C259.603 231.019 250 303.34 250 303.34L272.283 306.075C272.283 306.075 299.685 211.679 298.281 197.24C296.876 182.802 286.62 181.587 286.62 181.587C286.62 181.587 280.5 180.495 274.168 186.062" stroke="white" stroke-width="2" stroke-miterlimit="10" stroke-linecap="round" stroke-linejoin="round"/>
<path d="M231.142 57.9986C231.142 57.9986 220.335 53.1868 223.653 42.0549C223.653 42.0549 217.826 36.8857 222.926 30.6834C222.926 30.6834 219.203 20.9832 226.568 15.2581C233.933 9.53304 240.084 10.4071 240.084 10.4071C240.084 10.4071 247.531 2.69442 253.52 12.0765C253.52 12.0765 258.134 9.53117 261.371 14.0641C261.371 14.0641 269.707 11.5992 271.73 23.8447C271.73 23.8447 276.02 23.0493 276.586 28.0595C277.152 33.0696 274.563 36.4084 274.563 36.4084C274.563 36.4084 276.973 38.1845 275.877 42.7904C274.946 46.7075 271.648 47.3027 271.648 47.3027C271.648 47.3027 270.759 53.9018 267.844 55.8912C264.929 57.8788 260.965 56.9243 260.965 56.9243C260.965 56.9243 260.134 60.5233 256.736 60.2051" stroke="white" stroke-width="2" stroke-miterlimit="10" stroke-linecap="round" stroke-linejoin="round"/>
<path d="M241.069 67.2739L240.274 73.0314C240.274 73.0314 237.283 86.9834 241.131 89.6731C244.98 92.3628 257.5 72.6348 257.5 72.6348L256.609 56.1001" stroke="white" stroke-width="2" stroke-miterlimit="10" stroke-linecap="round" stroke-linejoin="round"/>
<path d="M259.985 43.6218C259.455 60.1247 244.789 67.65 239.483 67.65C234.177 67.65 228.127 56.3365 228.339 44.712C228.427 40.0232 228.873 35.723 229.378 32.2609C231.352 31.6997 233.361 30.6872 235.202 29.2349C238.271 26.8155 240.224 23.6966 240.802 20.754C242.786 20.4734 244.873 20.6421 246.924 21.3437C255.199 24.1782 260.313 33.4326 259.985 43.6218Z" stroke="white" stroke-width="2" stroke-miterlimit="10" stroke-linecap="round" stroke-linejoin="round"/>
<path d="M259.167 49.5C261.464 49.5 264.167 47.4694 264.167 44.9626C264.167 42.4557 262.303 40.425 260.006 40.425" stroke="white" stroke-width="2" stroke-miterlimit="10" stroke-linecap="round" stroke-linejoin="round"/>
<path d="M278.333 137.775C277.754 147.286 277.341 156.401 277.104 162.845C266.693 163.838 250.122 163.138 242.5 162.679" stroke="white" stroke-width="2" stroke-miterlimit="10" stroke-linecap="round" stroke-linejoin="round"/>
<path d="M288.333 181.5C294.157 175.664 297.535 156.995 298.333 137.775" stroke="white" stroke-width="2" stroke-miterlimit="10" stroke-linecap="round" stroke-linejoin="round"/>
<path d="M247.5 174.9C247.5 174.9 250.222 175.342 253.478 176.094C257.339 176.987 262.928 178.327 265.833 179.025" stroke="white" stroke-width="2" stroke-miterlimit="10" stroke-linecap="round" stroke-linejoin="round"/>
<path d="M274.276 105.37C273.418 113.873 273.076 124.608 273.545 138.017C281.127 138.632 292.258 139.125 300.387 137.512C301.635 112.657 301.155 81.9517 286.952 76.7251" stroke="white" stroke-width="2" stroke-miterlimit="10" stroke-linecap="round" stroke-linejoin="round"/>
<path d="M221.667 127.05H223.069L244.167 179.025L242.714 178.804L221.667 127.05Z" stroke="white" stroke-width="2" stroke-miterlimit="10" stroke-linecap="round" stroke-linejoin="round"/>
<path d="M190 307.725C189.904 309.61 189.385 311.318 187.768 313.078C186.968 313.947 186.62 314.302 185 315.15" stroke="white" stroke-width="2" stroke-miterlimit="10" stroke-linecap="round" stroke-linejoin="round"/>
<path d="M206.667 314.325L205 307.725" stroke="white" stroke-width="2" stroke-miterlimit="10" stroke-linecap="round" stroke-linejoin="round"/>
<path d="M185.357 314.425C185.357 314.425 195.794 318.604 200.837 316.13C205.879 313.655 205.726 312.971 207.185 313.893C208.644 314.815 209.167 326.197 209.167 326.197L163.488 327.525C160.309 327.453 158.702 325.135 161.285 323.152C163.054 321.792 165.101 320.881 166.264 320.222C169.838 318.194 185.357 314.425 185.357 314.425Z" stroke="white" stroke-width="2" stroke-miterlimit="10" stroke-linecap="round" stroke-linejoin="round"/>
<path d="M196.008 207.512C198.801 217.034 200.795 227.672 201.342 236.269C202.227 250.179 205.833 307.725 205.833 307.725L185.99 307.595C185.123 297.601 160.271 224.926 156.497 212.562C152.722 200.199 155.933 188.126 167.898 183.214C172.178 181.456 176.087 181.104 179.163 181.913" stroke="white" stroke-width="2" stroke-miterlimit="10" stroke-linecap="round" stroke-linejoin="round"/>
<path d="M279.779 182.325H181.882C179.007 182.325 176.398 180.673 175.221 178.106L154.553 133.046C153.262 130.232 155.366 127.05 158.517 127.05H225.176C226.941 127.05 228.529 128.092 229.198 129.691L249.722 178.685H286.472C287.498 178.685 288.333 179.5 288.333 180.505C288.333 180.881 288.297 181.102 288.097 181.393" stroke="white" stroke-width="2" stroke-miterlimit="10" stroke-linecap="round" stroke-linejoin="round"/>
<path d="M235 54.6179L245 54.45C245 54.45 244.831 58.36 240.436 58.5642C235.076 58.8142 235 54.6179 235 54.6179Z" stroke="white" stroke-width="2" stroke-miterlimit="10" stroke-linecap="round" stroke-linejoin="round"/>
</svg>
