<svg width="25" height="24" viewBox="0 0 25 24" fill="none" xmlns="http://www.w3.org/2000/svg">
<path fill-rule="evenodd" clip-rule="evenodd" d="M8.99999 12C8.99999 11.744 9.09799 11.488 9.29299 11.293L13.293 7.29301C13.684 6.90201 14.316 6.90201 14.707 7.29301C15.098 7.68401 15.098 8.31601 14.707 8.70701L11.402 12.012L14.582 15.305C14.965 15.704 14.954 16.335 14.557 16.719C14.16 17.103 13.526 17.092 13.143 16.695L9.28099 12.695C9.09299 12.5 8.99999 12.25 8.99999 12Z" fill="white"/>
<mask id="mask0" mask-type="alpha" maskUnits="userSpaceOnUse" x="9" y="6" width="7" height="11">
<path fill-rule="evenodd" clip-rule="evenodd" d="M8.99999 12C8.99999 11.744 9.09799 11.488 9.29299 11.293L13.293 7.29301C13.684 6.90201 14.316 6.90201 14.707 7.29301C15.098 7.68401 15.098 8.31601 14.707 8.70701L11.402 12.012L14.582 15.305C14.965 15.704 14.954 16.335 14.557 16.719C14.16 17.103 13.526 17.092 13.143 16.695L9.28099 12.695C9.09299 12.5 8.99999 12.25 8.99999 12Z" fill="white"/>
</mask>
<g mask="url(#mask0)">
<rect x="24.5" width="24" height="24" transform="rotate(90 24.5 0)" fill="white"/>
</g>
</svg>
