<svg width="24" height="24" viewBox="0 0 24 24" fill="none" xmlns="http://www.w3.org/2000/svg">
<path fill-rule="evenodd" clip-rule="evenodd" d="M14.6678 17.9423C15.5065 18.3092 15.8211 17.5404 15.8211 17.5404L18.0403 6.39192C18.0228 5.64054 17.0093 6.09486 17.0093 6.09486L4.58525 10.9701C4.58525 10.9701 3.99114 11.1798 4.04356 11.5468C4.09598 11.9137 4.56778 12.0885 4.56778 12.0885L7.69564 13.1369C7.69564 13.1369 8.63924 16.2298 8.83145 16.8239C9.00619 17.4006 9.16346 17.4181 9.16346 17.4181C9.3382 17.488 9.49547 17.3656 9.49547 17.3656L11.5225 15.5309L14.6678 17.9423ZM15.2095 8.36645C15.2095 8.36645 15.6463 8.10433 15.6289 8.36645C15.6289 8.36645 15.6988 8.40139 15.4716 8.64603C15.2619 8.85572 10.3167 13.2941 9.65273 13.8882C9.60031 13.9232 9.56536 13.9756 9.56536 14.0455L9.37314 15.6881C9.33819 15.8628 9.11103 15.8803 9.05861 15.723L8.23733 13.032C8.20238 12.9272 8.23733 12.8049 8.34217 12.735L15.2095 8.36645Z" fill="white"/>
</svg>
